<svg width="94" height="128" viewBox="0 0 94 128" fill="none" xmlns="http://www.w3.org/2000/svg">
<path d="M60.751 0.749512C51.9324 0.749512 43.3862 4.44179 37.4158 10.4121C31.4454 16.3823 27.7505 24.6423 27.7505 33.7469C27.7519 34.5041 28.3655 35.1177 29.1228 35.1192C29.8832 35.1221 30.5017 34.5073 30.5031 33.7469C30.5031 25.3854 33.8871 17.8375 39.363 12.3619C44.8387 6.88609 52.3894 3.49955 60.751 3.49955C69.1125 3.49955 76.6605 6.88615 82.1362 12.3619C84.2459 14.4715 86.0463 16.8894 87.4618 19.5429L83.0198 18.6541C82.277 18.5076 81.5556 18.9888 81.4057 19.731C81.2592 20.4737 81.7404 21.1952 82.4826 21.345L89.6183 22.7871C90.2148 22.9472 91.0055 22.6084 91.226 21.7854L93.6699 14.9614C93.9245 14.2465 93.5519 13.4605 92.8374 13.2051C92.1225 12.9505 91.3364 13.323 91.081 14.0376L89.7033 17.8887C88.1892 15.1325 86.2937 12.6181 84.0877 10.4121C77.8712 4.19572 69.5695 0.749512 60.751 0.749512ZM59.6337 15.6919C59.6337 15.6919 57.8565 18.1739 56.0914 21.5276C54.3264 24.8811 52.4981 29.1018 52.4981 32.9977C52.4981 36.7708 53.9642 39.3137 55.7557 40.7615C56.9825 41.7529 58.2779 42.2579 59.3786 42.4775V51.7346L57.1013 49.6828C57.463 49.0009 57.7537 48.161 57.8478 47.1666C58.023 45.3154 57.3604 43.0263 55.2374 40.9038C53.0302 38.6966 49.6983 37.3615 46.8852 36.4591C44.0721 35.5569 41.7396 35.1487 41.7396 35.1487C40.7991 34.9813 39.9787 35.8003 40.1445 36.7411C40.1445 36.7411 40.5633 39.0764 41.4657 41.8895C42.3681 44.7026 43.7032 48.0342 45.9104 50.2414C48.0329 52.3638 50.322 53.0244 52.1731 52.8492C53.4835 52.725 54.5232 52.2649 55.2831 51.7427L59.3786 55.4379V62.1679C57.7828 62.327 56.2589 62.7597 54.8427 63.4194C48.8582 62.2356 43.5146 59.2861 39.363 55.1345C37.2533 53.025 35.4529 50.6068 34.0374 47.9533L38.4793 48.8423C39.2221 48.9888 39.9436 48.5076 40.0934 47.7654C40.24 47.0236 39.7603 46.3024 39.0192 46.1514L31.8836 44.7091C30.9627 44.5631 30.4231 45.1618 30.2695 45.7351C29.459 48.0006 28.6458 50.2686 27.8339 52.5348C27.5792 53.2497 27.9519 54.0359 28.6664 54.2913C29.3805 54.5444 30.1647 54.1717 30.4201 53.4587L31.8005 49.605C33.3144 52.3608 35.2103 54.8785 37.416 57.0842C41.3084 60.9765 46.1385 63.89 51.5776 65.4545C50.9553 65.9653 50.7002 66.1591 50.1556 66.7616C43.5335 67.3324 39.2455 71.8761 38.4983 77.5669L36.6829 77.0997C34.968 76.6403 33.7398 76.7619 32.5739 77.1517C31.2913 77.5986 30.1802 78.4446 29.0504 79.5766L0.650357 108.038C0.0866547 108.602 0.147301 109.474 0.650357 109.977L17.4782 126.845C18.0158 127.385 18.8904 127.385 19.428 126.845L31.0001 115.243C32.687 113.553 32.6868 110.784 31.0001 109.094L29.8641 107.955L33.4145 104.394C39.4192 105.713 45.502 107.089 51.4616 108.382C53.3976 108.818 55.3265 108.601 56.9724 107.641L87.3438 90.061C90.8384 88.0393 92.0405 83.533 90.0239 80.0332C89.0158 78.2833 87.3901 77.1095 85.5766 76.6226C84.676 76.381 83.731 76.3097 82.7916 76.4241C81.433 70.6218 76.6887 67.0563 71.3414 66.7677C70.7991 66.1688 70.5336 65.964 69.9145 65.4559C75.353 63.8911 80.1946 60.9769 84.0861 57.0854C90.0564 51.1152 93.7488 42.8526 93.7488 33.7481C93.7459 32.9929 93.1344 32.3815 92.3792 32.3785C91.6198 32.3755 91.0018 32.9887 90.9988 33.7481C90.9988 42.1095 87.6121 49.6601 82.1364 55.1358C77.9855 59.2867 72.64 62.2365 66.6567 63.4207C65.2439 62.7625 63.7231 62.3292 62.1315 62.1692V55.4311L66.2162 51.7439C66.9762 52.2662 68.0159 52.7263 69.3262 52.8503C71.1773 53.0254 73.4664 52.3649 75.589 50.2427C77.7962 48.0355 79.1339 44.7036 80.0363 41.8906C80.9385 39.0775 81.3549 36.7424 81.3549 36.7424C81.5201 35.8029 80.7019 34.9847 79.7623 35.1499C79.7623 35.1499 77.4271 35.5583 74.6141 36.4604C71.801 37.3627 68.4691 38.6978 66.2619 40.9051C64.1394 43.0275 63.479 45.3165 63.6542 47.1677C63.7482 48.1621 64.0362 49.0022 64.3981 49.6841L62.1315 51.7278V42.4763C63.2299 42.2554 64.5208 41.7511 65.7436 40.7628C67.5351 39.3149 69.0012 36.7721 69.0012 32.9989C69.0012 29.1031 67.173 24.8826 65.4079 21.529C63.6428 18.1754 61.8656 15.6933 61.8656 15.6933C61.6068 15.3358 61.1925 15.1239 60.7506 15.1235C60.3089 15.123 59.8929 15.3336 59.6337 15.6919ZM60.751 18.9775C61.3697 19.9066 61.8597 20.6926 62.9719 22.8058C64.6444 25.9835 66.251 30.0185 66.251 32.9977C66.251 36.0994 65.2053 37.6708 64.0193 38.6292C62.8332 39.5877 61.3283 39.8672 60.751 39.8672C60.1736 39.8672 58.6766 39.5877 57.4907 38.6292C56.3046 37.6708 55.2482 36.0994 55.2482 32.9977C55.2482 30.0185 56.8548 25.9835 58.5273 22.8058C59.6395 20.6926 60.1322 19.9066 60.751 18.9775ZM43.4021 38.3954C44.2831 38.594 44.592 38.6126 46.042 39.0776C48.6682 39.9199 51.7246 41.2797 53.2984 42.8536C54.957 44.5122 55.2073 45.839 55.1058 46.9114C55.0045 47.9838 54.3882 48.8886 54.1417 49.135C53.8954 49.3814 52.9824 50.0084 51.91 50.1099C50.8376 50.2113 49.5079 49.9504 47.8494 48.2918C46.2755 46.718 44.9266 43.6724 44.0842 41.0462C43.6186 39.5938 43.6004 39.2765 43.4021 38.3954ZM78.0971 38.3954C77.8986 39.2765 77.8835 39.5938 77.4177 41.0462C76.5753 43.6724 75.2236 46.718 73.6498 48.2918C71.9912 49.9504 70.6643 50.2114 69.5919 50.1099C68.5195 50.0086 67.604 49.3815 67.3575 49.135C67.1111 48.8887 66.4948 47.9838 66.3933 46.9114C66.292 45.839 66.542 44.5122 68.2008 42.8536C69.7746 41.2797 72.8309 39.9199 75.4572 39.0776C76.9072 38.6124 77.2161 38.5938 78.0971 38.3954ZM60.751 64.8482C64.2271 64.8482 67.3698 66.4275 69.6913 69.0403C69.9553 69.3345 70.3328 69.5007 70.7279 69.4971C75.4254 69.4971 79.3114 72.8278 80.1704 77.2664C74.4952 80.5386 68.794 83.8396 63.1115 87.125C62.3058 84.9893 60.5257 83.256 58.162 82.6213C52.5054 81.1771 46.8457 79.7153 41.1891 78.26C41.6215 73.3335 45.7394 69.4971 50.7821 69.4971C51.1734 69.4978 51.5465 69.3319 51.8079 69.0403C54.1293 66.4275 57.2748 64.8482 60.751 64.8482ZM60.751 69.4968C56.2108 69.4968 52.4981 73.2096 52.4981 77.7496C52.5011 78.509 53.1191 79.1222 53.8785 79.1192C54.6337 79.1163 55.2452 78.5048 55.2482 77.7496C55.2482 74.6958 57.6971 72.2468 60.751 72.2468C61.5103 72.2497 62.1283 71.6366 62.1313 70.8772C62.1343 70.1136 61.5145 69.4938 60.751 69.4968ZM66.251 73.6191C65.8851 73.6192 65.5342 73.7652 65.2762 74.0245C64.7376 74.5618 64.7376 75.4343 65.2762 75.9716C66.273 76.9684 66.8902 78.3333 66.8902 79.8602C66.8931 80.6164 67.5062 81.2284 68.2625 81.2298C69.0219 81.2328 69.6399 80.6196 69.6429 79.8602C69.6429 77.5902 68.7174 75.5159 67.2259 74.0245C66.9681 73.7652 66.617 73.6191 66.251 73.6191ZM83.5677 79.1031C85.1849 79.0563 86.7588 79.8847 87.639 81.4125C88.9194 83.6348 88.179 86.3934 85.9632 87.6753L55.5946 105.255C54.3834 105.954 53.1323 105.929 52.0711 105.703C45.8054 104.324 39.538 102.936 33.272 101.552C32.8116 101.446 32.3288 101.583 31.9937 101.917L27.9223 106.007L17.2418 95.3023L31 81.5148C31.9743 80.5385 32.7593 79.9866 33.4761 79.737C34.1929 79.4875 35.0703 79.5135 35.9845 79.7577C43.128 81.6092 50.2902 83.4415 57.4423 85.2792C59.9128 85.9426 61.3414 88.4127 60.6784 90.8921C60.0154 93.3715 57.5572 94.7955 55.0763 94.1415L36.4813 89.2376C35.7464 89.0474 34.9962 89.4887 34.8055 90.2233C34.6158 90.954 35.0513 91.7009 35.7803 91.8965L54.3754 96.8002C58.2713 97.8271 62.2962 95.5064 63.3398 91.6037C63.4796 91.0809 63.5555 90.5553 63.5789 90.0353L81.395 79.7282C82.0874 79.3276 82.8325 79.1246 83.5677 79.1031ZM15.2974 97.2492L29.0503 111.031C29.6947 111.677 29.6946 112.658 29.0503 113.303L18.453 123.922L3.56678 109.007L15.2974 97.2492Z" fill="black"/>
</svg>
