<svg width="84" height="98" viewBox="0 0 84 98" fill="none" xmlns="http://www.w3.org/2000/svg">
<path d="M5.22302 97.9571C3.90662 97.9024 2.78942 96.9727 2.49642 95.6876C2.3597 94.211 3.01204 92.7696 4.21122 91.8985C4.03153 91.4805 3.94169 91.0352 3.94169 90.5821C3.94169 89.0509 6.77369 85.8907 8.68389 83.9337C8.55889 81.6017 8.01201 71.4457 7.96123 70.1797C7.84014 69.4062 8.01982 68.6172 8.46123 67.9766C8.50419 67.9219 8.54326 67.8633 8.57842 67.8047C8.79717 67.4531 8.70733 66.9141 8.33623 66.1719C7.71123 64.8399 8.18779 63.0235 8.53935 61.6953C8.6331 61.375 8.70732 61.0507 8.76591 60.7226C8.64872 60.0351 8.41044 59.3749 8.06279 58.7734C7.98857 58.6367 7.9456 58.4804 7.93779 58.3242L7.53935 49.7422C7.51981 49.0234 7.11357 32.6562 7.21904 28.2732C7.43779 21.0232 6.70342 19.4685 6.47295 19.1638H6.46904C5.76201 18.2224 5.50029 17.0193 5.74638 15.8708C5.78544 15.3435 5.83232 14.6872 5.83232 13.82C5.83232 11.5192 3.09402 9.4528 3.06672 9.4333C2.85578 9.28096 2.71125 9.05439 2.66047 8.80049C2.39875 7.86299 1.99641 6.97239 1.46517 6.15989C1.09017 5.58958 0.797197 4.97239 0.590167 4.32399C0.426107 3.24589 0.351887 2.15989 0.375327 1.07009C0.379233 0.77712 0.504237 0.50368 0.719077 0.30837C0.937827 0.11306 1.22689 0.0193103 1.51596 0.0466503C1.65658 0.0583693 15.879 1.40215 17.922 1.45285C18.5274 1.46066 19.7111 1.43332 21.2072 1.39426C24.7111 1.2966 30.0041 1.14817 34.0042 1.45676C35.1995 1.55051 36.0862 1.63645 36.8792 1.71067C39.8714 1.99973 41.5198 2.16379 53.6912 2.0427C68.9212 1.86692 82.3322 0.347396 82.4682 0.331796L82.4642 0.32789C82.7611 0.29664 83.0541 0.39039 83.2767 0.5857C83.4994 0.78492 83.6244 1.06617 83.6244 1.36304C83.6439 2.35913 83.5619 3.35134 83.3822 4.32784C83.1557 5.03878 82.8158 5.70674 82.3822 6.31614C81.8002 7.14036 81.3549 8.05834 81.0619 9.02704C81.0072 9.28095 80.8627 9.50751 80.6518 9.65985C80.6283 9.67548 78.1674 11.4997 78.1674 13.8161C78.1674 14.6832 78.2142 15.3395 78.2533 15.8669V15.8708C78.5033 17.0192 78.2377 18.2224 77.5306 19.1638C77.2416 19.5466 76.5853 21.199 76.7572 28.2732C76.89 32.6521 76.4838 49.0272 76.4642 49.7182L76.0658 58.3237C76.058 58.4799 76.015 58.6322 75.9408 58.7729C75.5814 59.3822 75.3431 60.0541 75.2377 60.7534C75.2963 61.0659 75.3666 61.3745 75.4564 61.6792C75.808 63.0151 76.2884 64.8433 75.64 66.1636C75.1009 67.2886 75.3236 67.6753 75.3978 67.8042C75.4213 67.8393 75.4642 67.894 75.5033 67.9409H75.4994C75.972 68.5776 76.1674 69.3784 76.0384 70.1597C75.9916 71.4449 75.4408 81.6007 75.3158 83.9327C77.226 85.8897 80.058 89.0499 80.058 90.5616C80.058 91.0186 79.9681 91.4717 79.7885 91.8936C80.9877 92.7608 81.64 94.1944 81.5072 95.667C81.2338 96.9365 80.1479 97.874 78.8511 97.9561L5.22302 97.9571ZM6.12146 91.0704C6.49646 91.211 6.75818 91.5547 6.79334 91.9532C6.82849 92.3555 6.63318 92.7383 6.28943 92.9414C5.65271 93.3243 4.38323 94.4102 4.54333 95.293C4.63708 95.6368 4.94567 95.8751 5.29724 95.879L78.7772 95.8751C79.1171 95.8438 79.3983 95.5938 79.4647 95.2579C79.6171 94.4102 78.3514 93.3282 77.7108 92.9415C77.3671 92.7345 77.1718 92.3516 77.2108 91.9532C77.246 91.5548 77.5077 91.2149 77.8827 91.0743C77.9491 90.9024 77.9843 90.7227 77.9765 90.5391C77.8475 89.8595 75.5624 87.1407 73.5117 85.0664C73.3046 84.8594 73.1952 84.5703 73.2109 84.2774C73.2187 84.1485 73.9023 71.4844 73.9531 70.0974L73.957 70.1013C73.9804 69.8317 73.9648 69.5583 73.914 69.2927C73.8984 69.2732 73.8749 69.2458 73.8515 69.2146C73.7656 69.1052 73.6835 68.9919 73.6093 68.8708C73.0273 67.7224 73.0898 66.3513 73.7656 65.2575C74.0742 64.6247 73.6796 63.113 73.4413 62.2106V62.2067C73.3124 61.7809 73.2187 61.3434 73.1601 60.902C73.2148 59.8825 73.4999 58.8903 73.996 57.9958L74.3828 49.6442C74.3867 49.4958 74.8046 32.6562 74.6757 28.3282C74.4921 20.7305 75.2187 18.7657 75.871 17.9062C76.2656 17.3867 76.2616 17.1796 76.1757 16.0234C76.1367 15.4609 76.0859 14.7617 76.0859 13.8203C76.0859 11.0195 78.2773 8.92191 79.1171 8.22261C79.4764 7.15621 79.9803 6.14841 80.6132 5.21871C80.9061 4.79293 81.1522 4.3398 81.3514 3.86321C81.4413 3.4218 81.496 2.97649 81.5116 2.52731C77.8788 2.90231 66.4256 3.97651 53.7106 4.12501C41.4216 4.2461 39.7376 4.08204 36.6756 3.78517C35.8904 3.70704 35.0194 3.62501 33.8397 3.53517C29.9491 3.23439 24.7225 3.38283 21.2617 3.47657C19.7344 3.51954 18.5273 3.55861 17.8672 3.53517C16.082 3.4922 5.94921 2.5547 2.46921 2.23047H2.47312C2.48093 2.77735 2.53171 3.32427 2.62156 3.86327C2.79734 4.30077 3.01218 4.71874 3.26609 5.11327C3.8364 6.01561 4.28559 6.98437 4.60589 7.99607C5.49261 8.72654 7.91449 10.9883 7.91449 13.8164C7.91449 14.7578 7.8637 15.457 7.82464 16.0195C7.74261 17.1797 7.7387 17.3867 8.12933 17.9023C8.74261 18.7109 9.52773 20.6679 9.29733 28.3243C9.19186 32.6485 9.61374 49.4923 9.61764 49.6643L10.0044 57.9963H10.0083C10.4965 58.8791 10.7856 59.8635 10.8442 60.8713C10.7817 61.3322 10.688 61.7814 10.5552 62.2268C10.3169 63.1291 9.91843 64.6409 10.2114 65.2659V65.262C10.9223 66.3479 10.9809 67.7308 10.3677 68.8714C10.3012 68.9846 10.227 69.094 10.1489 69.1995C10.1294 69.2268 10.1059 69.2581 10.0864 69.2893C10.0356 69.5628 10.02 69.844 10.0473 70.1214C10.0981 71.4847 10.7856 84.1524 10.7895 84.2774C10.8052 84.5703 10.6958 84.8594 10.4887 85.0664C8.43795 87.1406 6.15285 89.8594 6.02395 90.6016C6.02004 90.7657 6.05505 90.9258 6.12146 91.0704Z" fill="black"/>
<path d="M46.961 11.461C43.5313 11.5392 40.1016 11.4103 36.688 11.0782C35.899 11.0001 35.0239 10.9142 33.8364 10.8243C29.9575 10.5235 24.7309 10.6681 21.2774 10.7657C19.7422 10.8087 18.5352 10.8438 17.8712 10.8243C16.2853 10.7735 8.24623 10.0548 3.59423 9.63292C3.02001 9.58214 2.59814 9.07433 2.64892 8.50402C2.70361 7.9298 3.20751 7.50793 3.78172 7.55871C11.6606 8.27355 16.8167 8.70711 17.9297 8.74231C18.5313 8.75793 19.7149 8.72278 21.2188 8.68371C24.7188 8.58606 30.0079 8.43762 33.9958 8.74621C35.1989 8.83996 36.0896 8.9259 36.8903 9.00402C39.7848 9.28918 41.5309 9.46105 53.6833 9.33605C64.9563 9.22277 75.4493 8.21105 79.9293 7.78135L80.1364 9.85555C75.6208 10.2891 65.0664 11.3048 53.7024 11.422C50.9836 11.4454 48.7774 11.461 46.961 11.461Z" fill="black"/>
<path d="M38.4139 61.2151C35.8084 61.2697 33.2694 60.3986 31.2381 58.7659C28.3983 56.43 26.9803 52.7581 27.2381 48.4219C27.2655 47.9726 27.5819 47.5898 28.0194 47.4765C32.2694 46.371 36.1835 47.0625 39.0424 49.414C41.8822 51.7499 43.3002 55.4218 43.0424 59.758H43.0385C43.0111 60.2073 42.6986 60.5901 42.2611 60.7034C41.0033 61.0354 39.7108 61.2072 38.4139 61.2151ZM29.2928 49.3171C29.1248 52.2937 30.328 55.1843 32.5623 57.1569C34.9607 58.985 38.0662 59.6139 40.9842 58.8639C41.1561 55.8873 39.949 52.9967 37.7147 51.0241C35.3202 49.1921 32.2147 48.5671 29.2928 49.3171Z" fill="black"/>
<path d="M45.5861 67.2971C44.2892 67.2893 42.9963 67.1174 41.7384 66.7854C41.3009 66.6721 40.9884 66.2893 40.9611 65.8401C40.6993 61.5042 42.1213 57.8323 44.9611 55.4961C47.8205 53.1445 51.7345 52.457 55.9841 53.5586H55.9802C56.4177 53.6679 56.7341 54.0508 56.7614 54.5039C57.0231 58.8398 55.6012 62.5117 52.7614 64.8479V64.844C50.7302 66.4807 48.1916 67.3479 45.5861 67.2971ZM43.0158 64.9416C45.9338 65.6955 49.0392 65.0666 51.4377 63.2385C53.6721 61.2619 54.8752 58.3752 54.7072 55.3987C51.7853 54.6448 48.6799 55.2737 46.2814 57.1018C44.0509 59.0784 42.8439 61.9651 43.0158 64.9416Z" fill="black"/>
<path d="M38.773 44.4961C36.4058 44.543 34.0972 43.7539 32.2535 42.2695C29.6754 40.1484 28.3824 36.8125 28.6207 32.8789C28.648 32.4297 28.9605 32.0469 29.398 31.9336C33.2535 30.9336 36.8082 31.5625 39.402 33.6953C41.9801 35.8164 43.2731 39.1523 43.0348 43.0859H43.0387C43.0114 43.5351 42.6989 43.9179 42.2614 44.0312C41.1208 44.332 39.9488 44.4883 38.773 44.4961ZM30.6753 33.7771C30.5464 36.3943 31.6167 38.9255 33.5776 40.6599C35.687 42.2654 38.4096 42.8279 40.9838 42.1872C41.1127 39.57 40.0424 37.0388 38.0815 35.3044C35.9721 33.695 33.2495 33.1325 30.6753 33.7771Z" fill="black"/>
<path d="M45.2271 49.9651C44.0513 49.9573 42.8794 49.801 41.7388 49.5002C41.3013 49.387 40.9888 49.0042 40.9615 48.5549C40.7271 44.6213 42.0162 41.2893 44.5943 39.1643C47.192 37.0276 50.7466 36.4026 54.5983 37.4026H54.6022C55.0397 37.5159 55.3522 37.8948 55.3795 38.3479C55.6139 42.2815 54.3248 45.6135 51.7467 47.7385V47.7346C49.9029 49.2229 47.5943 50.008 45.2271 49.9651ZM43.0162 47.6565C45.5904 48.2971 48.3131 47.7346 50.4224 46.1292C52.3833 44.3948 53.4536 41.8597 53.3247 39.2464C50.7505 38.6019 48.0278 39.1644 45.9185 40.7737C43.9576 42.5081 42.8873 45.0393 43.0162 47.6565Z" fill="black"/>
<path d="M42.0271 77.879C41.4529 77.879 40.9841 77.4103 40.9841 76.836V32C40.9841 31.4258 41.4529 30.9609 42.0271 30.9609C42.6014 30.9609 43.0701 31.4258 43.0701 32V76.836C43.0701 77.4103 42.6014 77.879 42.0271 77.879Z" fill="black"/>
</svg>
