<svg width="93" height="94" viewBox="0 0 93 94" fill="none" xmlns="http://www.w3.org/2000/svg">
<path d="M59.54 77.2567C59.54 84.2446 54.1754 89.9956 47.3477 90.62L47.3434 61.2923C48.5413 61.4572 50.3773 61.6395 52.5995 61.6395C57.3564 61.6395 63.7973 60.7888 69.1317 57.0475C78.7021 50.3331 80.7373 37.0953 80.8206 36.5308L80.9899 35.3763L79.8484 35.1419C79.2929 35.029 66.1507 32.4292 56.5807 39.148C50.6084 43.3363 47.5745 50.0594 46.1119 54.6647C44.6492 50.0597 41.6153 43.3413 35.6474 39.1524C26.0771 32.438 12.9352 35.0336 12.3797 35.1463L11.2382 35.3807L11.4075 36.5353C11.4899 37.0952 13.5211 50.3375 23.0964 57.0519C28.4306 60.7933 34.8719 61.6439 39.6286 61.6439C41.8465 61.6439 43.6824 61.4573 44.8847 61.2967V90.6245C38.0575 89.9995 32.6925 84.2486 32.6925 77.2612V70.0911L0.0969238 70.0867V72.5564H30.218V77.2569C30.218 86.0199 37.3492 93.1558 46.1169 93.1558C54.8799 93.1558 62.0158 86.0247 62.0158 77.2569V72.5564H92.1369V70.0867H59.5414L59.54 77.2567ZM57.9948 41.1712C65.0998 36.1885 74.7826 36.9221 78.1426 37.3734C77.4221 40.6851 74.818 50.0423 67.713 55.0256C60.608 60.0083 50.9252 59.2747 47.5652 58.8234C48.2857 55.5161 50.8855 46.1589 57.9948 41.1712ZM24.5093 55.0301C17.4043 50.0431 14.8001 40.6856 14.0796 37.3734C17.439 36.9263 27.1052 36.1755 34.2318 41.1712C41.3368 46.1582 43.9411 55.5112 44.6615 58.8234C41.2978 59.2791 31.6148 60.017 24.5093 55.0301Z" fill="black"/>
<path d="M51.9832 6.05006C51.9832 2.81217 49.3486 0.177612 46.1107 0.177612C42.8728 0.177612 40.2383 2.81217 40.2383 6.05006C40.2383 9.28794 42.8728 11.9268 46.1107 11.9268C49.3486 11.9268 51.9832 9.28794 51.9832 6.05006ZM42.708 6.05006C42.708 4.17506 44.2357 2.64728 46.1107 2.64728C47.9857 2.64728 49.5135 4.17506 49.5135 6.05006C49.5135 7.92939 47.9857 9.45717 46.1107 9.45717C44.2357 9.45717 42.708 7.92939 42.708 6.05006Z" fill="black"/>
<path d="M62.1832 0.178101C58.9453 0.178101 56.3108 2.81266 56.3108 6.05055C56.3108 9.28843 58.9453 11.923 62.1832 11.923C65.4211 11.923 68.0557 9.28843 68.0557 6.05055C68.0557 2.81266 65.4211 0.178101 62.1832 0.178101ZM62.1832 9.45766C60.3082 9.45766 58.7805 7.92988 58.7805 6.05488C58.7805 4.17988 60.3082 2.6521 62.1832 2.6521C64.0582 2.6521 65.586 4.17988 65.586 6.05488C65.5904 7.92988 64.0626 9.45766 62.1832 9.45766Z" fill="black"/>
<path d="M35.9111 6.05006C35.9111 2.81217 33.2766 0.177612 30.0387 0.177612C26.8008 0.177612 24.1663 2.81217 24.1663 6.05006C24.1663 9.28794 26.8008 11.9225 30.0387 11.9225C33.2766 11.9268 35.9111 9.28794 35.9111 6.05006ZM26.6316 6.05006C26.6316 4.17506 28.1594 2.64728 30.0344 2.64728C31.9094 2.64728 33.4371 4.17506 33.4371 6.05006C33.4371 7.92506 31.9094 9.45283 30.0344 9.45283C28.1594 9.45718 26.6316 7.92939 26.6316 6.05006Z" fill="black"/>
<path d="M43.95 17.9301C43.95 14.6922 41.3154 12.0576 38.0775 12.0576C34.8396 12.0576 32.2051 14.6922 32.2051 17.9301C32.2051 21.1679 34.8396 23.8025 38.0775 23.8025C41.3111 23.8025 43.95 21.1723 43.95 17.9301ZM34.6704 17.9301C34.6704 16.0551 36.1982 14.5273 38.0732 14.5273C39.9482 14.5273 41.476 16.0551 41.476 17.9301C41.476 19.8051 39.9482 21.3328 38.0732 21.3328C36.1982 21.3372 34.6704 19.8094 34.6704 17.9301Z" fill="black"/>
<path d="M54.1488 12.0579C50.9109 12.0579 48.2764 14.6924 48.2764 17.9303C48.2764 21.1682 50.9109 23.8028 54.1488 23.8028C57.3867 23.8028 60.0213 21.1682 60.0213 17.9303C60.0213 14.6924 57.3867 12.0579 54.1488 12.0579ZM54.1488 21.3374C52.2738 21.3374 50.746 19.8096 50.746 17.9346C50.746 16.0596 52.2738 14.5319 54.1488 14.5319C56.0238 14.5319 57.5516 16.0596 57.5516 17.9346C57.5516 19.8096 56.0238 21.3374 54.1488 21.3374Z" fill="black"/>
<path d="M46.111 35.5257C49.3489 35.5257 51.9834 32.8911 51.9834 29.6532C51.9834 26.4153 49.3489 23.7808 46.111 23.7808C42.8731 23.7808 40.2385 26.4153 40.2385 29.6532C40.2385 32.8911 42.8731 35.5257 46.111 35.5257ZM46.111 26.2504C47.986 26.2504 49.5137 27.7782 49.5137 29.6532C49.5137 31.5325 47.986 33.056 46.111 33.056C44.236 33.056 42.7082 31.5282 42.7082 29.6532C42.7082 27.7782 44.236 26.2504 46.111 26.2504Z" fill="black"/>
<path d="M65.5898 14.6267H68.0595V21.0764H65.5898V14.6267Z" fill="black"/>
<path d="M65.5898 25.1167H68.0595V28.4978H65.5898V25.1167Z" fill="black"/>
<path d="M24.1665 14.6267H26.6362V21.0764H24.1665V14.6267Z" fill="black"/>
<path d="M24.1665 25.1167H26.6362V28.4978H24.1665V25.1167Z" fill="black"/>
<path d="M32.2 25.1167H34.6696V32.009H32.2V25.1167Z" fill="black"/>
<path d="M57.5522 25.1167H60.0219V32.009H57.5522V25.1167Z" fill="black"/>
</svg>
