<svg width="120" height="150" viewBox="0 0 120 150" fill="none" xmlns="http://www.w3.org/2000/svg">
<path d="M29.1046 60.5695C27.989 62.5031 28.9054 63.9633 30.7054 65.0531C32.9577 66.4078 34.5984 66.4476 35.2757 63.8695C35.5687 62.7469 35.5476 61.5914 35.3882 61.0453C34.8562 59.2523 30.6984 57.7922 29.1046 60.5695ZM26.5054 63.6515C26.4656 63.532 26.4327 63.4054 26.3999 63.2859L23.2382 63.3515C22.4273 63.3703 21.8554 62.5734 22.1085 61.8164L24.1007 55.8445C24.3656 55.0547 25.357 54.7758 26.0085 55.3593L28.6406 57.6703C31.7624 55.4578 36.7054 57.2461 37.6359 60.3867C38.1281 62.0672 37.7812 65.3554 36.2015 67.0429C34.4132 68.9437 31.8703 68.4773 29.4984 67.05C28.0406 66.1758 26.9648 65.0273 26.5054 63.6515ZM26.4327 60.9469C26.5663 60.4476 26.7773 59.9297 27.0773 59.4117L25.7624 58.2492L24.846 60.9797L26.4327 60.9469ZM67.371 57.7383C70.5726 57.7383 73.2913 59.9765 73.9617 63.0328H83.5218V56.2429H44.2242V63.0328H47.3788C48.5085 57.8695 54.9515 55.9383 58.739 59.7164C59.6296 60.607 60.2742 61.7554 60.5531 63.0328H60.7781C61.4577 59.9765 64.1765 57.7383 67.371 57.7383ZM74.0624 65.3789C73.889 66.7148 73.3242 67.9242 72.4874 68.8945H94.9218C94.0851 67.9242 93.5202 66.7148 93.3468 65.3789H74.0624ZM67.3851 71.2383H44.0718V83.5031C44.0718 83.8547 43.9195 84.1664 43.6804 84.3797L28.7718 100.477H111.56V71.2383H67.3851ZM62.2617 68.8922C61.4249 67.9219 60.8601 66.7125 60.6867 65.3765H60.6538C60.4804 66.7125 59.9156 67.9219 59.0788 68.8922H62.2617ZM70.4882 61.3734C67.7249 58.6101 62.9742 60.5765 62.9742 64.4883C62.9742 68.407 67.7249 70.3687 70.4882 67.6031C72.2085 65.8828 72.2085 63.0937 70.4882 61.3734ZM48.8554 68.8922C48.0187 67.9219 47.4538 66.7125 47.2804 65.3765H43.0546C42.4031 65.3765 41.8781 64.8515 41.8781 64.207V55.0711C41.8781 54.4195 42.4031 53.8945 43.0546 53.8945H43.4202L35.1351 50.6531C34.896 50.5593 34.6898 50.3883 34.5515 50.1539L29.0179 40.732C28.6921 40.1742 28.8773 39.457 29.4304 39.1312L66.5343 17.3343C67.0851 17.0086 67.8023 17.1937 68.1281 17.7469L79.6804 37.4133C80.0062 37.964 79.821 38.6812 79.2609 39.007L73.4413 42.4289L75.8062 46.5351L77.2148 45.7242C77.7726 45.3984 78.4827 45.5906 78.8085 46.1484L83.2874 53.8945H83.5195V33.539C83.5195 32.8875 84.0445 32.3625 84.689 32.3625H97.8843C98.4093 32.3625 98.8617 32.714 99.007 33.1992L99.9632 35.9836H102.375C102.9 35.9836 103.352 36.3351 103.498 36.8203L107.564 48.6328C109.059 48.7195 110.236 49.9945 110.236 51.5039V64.207C110.236 64.8515 109.711 65.3765 109.066 65.3765H106.72C106.547 66.7125 105.982 67.9219 105.145 68.8922H112.725C113.377 68.8922 113.902 69.4172 113.902 70.0617V101.653C113.902 102.298 113.377 102.823 112.725 102.823H26.0952V102.816C25.9148 102.816 25.7296 102.776 25.5632 102.689C25.2703 102.616 13.8445 102.83 13.1062 102.703V102.71C12.621 102.623 10.4882 101.461 9.47806 100.809C7.65697 99.6398 5.84994 98.1117 6.12416 96.6234C6.77572 92.9297 7.42025 92.0929 8.50306 90.6843C9.30697 89.6414 10.3968 88.2258 12.0374 84.4453C13.671 80.6578 16.6218 82.7039 17.5382 81.689C17.9038 81.2836 18.2765 80.5008 18.682 79.6429C19.9242 77.032 21.4124 73.882 25.3124 74.3203C27.6445 74.5804 30.8788 72.6984 32.1749 73.1719C35.4492 74.3484 34.3265 78.3867 37.6101 77.2781C39.171 76.7461 40.5398 76.5539 41.7351 76.8539V70.064C41.7351 69.4195 42.2601 68.8945 42.9046 68.8945H48.8554V68.8922ZM57.0796 61.3734C54.3163 58.6101 49.5656 60.5765 49.5656 64.4883C49.5656 68.407 54.3163 70.3687 57.0796 67.6031C58.8023 65.8828 58.8023 63.0937 57.0796 61.3734ZM18.4335 90.5109C18.0023 90.989 17.264 91.0289 16.7859 90.5976C16.3007 90.1664 16.2609 89.4211 16.6992 88.9429C20.3062 84.9445 20.9577 85.4015 22.5046 86.4773C22.9499 86.789 23.5546 87.2086 24.8226 87.2086C25.4999 87.2086 26.0718 87.6281 26.4304 87.7593C27.0421 87.9797 27.3538 88.65 27.1335 89.2547C26.9132 89.8664 26.2429 90.1781 25.6382 89.9578L24.8202 89.5453C22.814 89.5453 21.8695 88.8867 21.1663 88.4015C20.8124 88.1531 20.6601 88.0476 18.4335 90.5109ZM26.0413 81.7945C25.7367 81.2297 25.9546 80.5195 26.5195 80.2195C27.0913 79.9148 27.8015 80.1328 28.1015 80.6976C28.2421 80.9578 28.1343 80.4726 28.3148 80.4984C29.4984 80.7047 30.839 80.9297 30.8132 82.7367C30.8132 82.7765 31.0265 82.7554 31.3054 82.8304C32.1304 83.0367 33.1195 83.2945 34.0359 84.239C35.4445 83.9672 36.0023 86.032 34.6265 86.4984C33.8835 86.7515 33.0257 86.6437 32.4609 85.9875C31.1718 84.4804 28.4484 85.6359 28.4812 82.7133C28.4812 82.5211 28.1812 82.8539 27.9234 82.8117C27.1499 82.6781 26.4468 82.5586 26.0413 81.7945ZM20.632 98.2851C19.1038 98.4445 18.8648 96.1195 20.3929 95.9601C20.9976 95.9015 23.2827 95.2898 23.2827 94.2328C23.2827 92.5054 23.8218 91.9265 24.8577 91.9265C25.3687 91.9265 25.7671 92.1586 26.2593 92.4445C26.8312 92.7773 27.6538 93.2625 28.5257 92.9156C28.5398 92.9156 28.5257 92.9156 28.5398 92.9086C28.7202 92.8218 28.9921 92.6836 29.2898 92.5898C29.6812 92.3179 30.2132 92.3039 30.6257 92.5968C31.1765 92.9812 31.289 93.6937 30.8648 94.2914C30.546 94.7437 29.9413 94.9148 29.4304 94.6828C29.6109 95.0414 29.6765 94.9828 29.3835 95.0953C27.7617 95.7328 26.5195 95.2547 25.5843 94.7507C25.2117 97.0289 22.2679 98.1187 20.632 98.2851ZM29.3952 94.6711C29.0554 94.4976 29.421 94.7836 29.5476 94.9242L29.3952 94.6711ZM63.4453 26.3929C62.6671 25.057 64.6945 23.8875 65.4656 25.2234L71.871 36.3047C72.6421 37.6406 70.6148 38.8101 69.8437 37.4812L63.4453 26.3929ZM39.2882 40.3383C38.5171 39.0023 40.5445 37.8328 41.3156 39.1617L46.1249 47.4937C46.896 48.8297 44.8687 49.9992 44.0976 48.6633L39.2882 40.3383ZM45.3281 36.8437C44.564 35.5148 46.5843 34.3523 47.3554 35.6812L53.7538 46.7695C54.5179 48.0984 52.4976 49.2679 51.7335 47.932L45.3281 36.8437ZM51.3679 33.3633C50.5968 32.0344 52.6242 30.8648 53.3952 32.1937L59.7937 43.282C60.5648 44.6109 58.5374 45.7804 57.7663 44.4515L51.3679 33.3633ZM57.4054 29.8804C56.6343 28.5445 58.6546 27.375 59.4257 28.7039L65.8312 39.7922C66.6023 41.1281 64.5749 42.2976 63.8038 40.9617L57.4054 29.8804ZM49.5257 53.7797L77.0765 37.589L66.7054 19.9429L31.6195 40.5586L36.3562 48.6234L49.5257 53.7797ZM71.4234 43.6195L53.9249 53.8969H74.5593L72.2671 49.9242C71.9484 49.3664 72.1406 48.6562 72.6913 48.3375L73.7812 47.707L71.4234 43.6195ZM100.024 68.8922C103.964 68.8922 105.905 64.1344 103.146 61.3711C100.383 58.6078 95.632 60.5742 95.632 64.4859C95.6343 66.9187 97.5937 68.8875 100.024 68.8922ZM25.7085 100.357L41.7327 83.0508V79.3898C40.9077 78.7922 39.5812 79.0781 38.3507 79.4906C34.664 80.7398 33.7406 78.9468 32.7703 77.0648C32.3976 76.3406 32.0202 75.5976 31.3874 75.3703C31.2749 75.3304 30.9492 75.5695 30.239 75.7828C28.7507 76.2351 26.7445 76.8328 25.057 76.6476C22.8046 76.3945 21.7077 78.7148 20.7984 80.6461C20.3132 81.6633 19.8679 82.5984 19.2773 83.257C17.3109 85.4437 15.0843 83.264 14.1749 85.3687C12.4148 89.4351 11.2312 90.975 10.3476 92.1117C9.48978 93.2273 8.97884 93.8929 8.43509 97.0148C8.44916 97.5586 13.0734 100.317 13.4648 100.39L25.7085 100.357ZM77.3695 48.3304L74.871 49.7719L77.257 53.8969H80.5851L77.3695 48.3304ZM100.031 57.7383C103.233 57.7383 105.952 59.9765 106.622 63.0328H107.89V51.5062C107.89 51.2133 107.677 50.9742 107.391 50.9742H93.2929C92.6484 50.9742 92.1234 50.4492 92.1234 49.7976V37.1601C92.1234 36.5086 92.6484 35.9836 93.2929 35.9836H97.4859L97.0476 34.7086H85.8656V63.0304H93.4382C94.1179 59.9765 96.8367 57.7383 100.031 57.7383ZM105.089 48.6304L101.541 38.332H94.4718V48.6304H105.089Z" fill="black"/>
</svg>
