<svg width="92" height="78" viewBox="0 0 92 78" fill="none" xmlns="http://www.w3.org/2000/svg">
<g clip-path="url(#clip0_46_290)">
<path d="M18.9937 63.4443C18.7298 63.4443 18.4766 63.34 18.2893 63.1541C18.102 62.9683 17.9957 62.7159 17.9937 62.4521L17.8311 41.81C17.8402 32.2453 21.6432 23.0749 28.4056 16.3109C35.1681 9.54689 44.3376 5.74177 53.9023 5.73047H55.6934C55.9586 5.73047 56.2129 5.83583 56.4005 6.02336C56.588 6.2109 56.6934 6.46525 56.6934 6.73047C56.6934 6.99569 56.588 7.25004 56.4005 7.43758C56.2129 7.62511 55.9586 7.73047 55.6934 7.73047H53.9023C44.8691 7.74074 36.209 11.3337 29.8216 17.7211C23.4342 24.1085 19.8413 32.7687 19.8311 41.8018L19.9937 62.4365C19.9947 62.5678 19.9698 62.698 19.9205 62.8197C19.8712 62.9415 19.7984 63.0523 19.7063 63.1459C19.6142 63.2395 19.5045 63.314 19.3835 63.3652C19.2626 63.4164 19.1328 63.4432 19.0015 63.4443H18.9937Z" fill="black"/>
<path d="M27.1011 42.8018C26.8359 42.8018 26.5815 42.6964 26.394 42.5089C26.2064 42.3213 26.1011 42.067 26.1011 41.8018C26.0948 35.9433 27.942 30.2329 31.3782 25.488C34.8145 20.7431 39.6637 17.2068 45.2319 15.3853C45.3574 15.3411 45.4904 15.3225 45.6232 15.3304C45.756 15.3383 45.8859 15.3726 46.0053 15.4314C46.1246 15.4901 46.2311 15.5721 46.3184 15.6725C46.4056 15.7729 46.472 15.8897 46.5136 16.016C46.5552 16.1424 46.5711 16.2758 46.5605 16.4084C46.5499 16.541 46.5129 16.6702 46.4518 16.7883C46.3906 16.9065 46.3065 17.0112 46.2044 17.0965C46.1022 17.1817 45.9841 17.2457 45.8569 17.2847C40.6891 18.9753 36.1886 22.2573 32.9993 26.661C29.81 31.0648 28.0955 36.3645 28.1011 41.8018C28.1011 42.067 27.9957 42.3213 27.8082 42.5089C27.6207 42.6964 27.3663 42.8018 27.1011 42.8018Z" fill="black"/>
<path d="M34.3521 50.0137C34.0868 50.0137 33.8325 49.9084 33.6449 49.7208C33.4574 49.5333 33.3521 49.279 33.3521 49.0137C33.3521 36.9844 40.6596 26.3706 51.536 22.6021C51.6601 22.5592 51.7915 22.5411 51.9226 22.5489C52.0537 22.5567 52.182 22.5902 52.3001 22.6476C52.4182 22.705 52.5239 22.785 52.6111 22.8833C52.6983 22.9815 52.7652 23.0959 52.8082 23.22C52.8512 23.3441 52.8693 23.4754 52.8615 23.6065C52.8537 23.7376 52.8201 23.8659 52.7627 23.984C52.7054 24.1022 52.6253 24.2078 52.5271 24.295C52.4289 24.3822 52.3144 24.4492 52.1903 24.4921C42.1191 27.9821 35.3521 37.8363 35.3521 49.0141C35.3519 49.2793 35.2465 49.5335 35.059 49.721C34.8715 49.9084 34.6172 50.0137 34.3521 50.0137Z" fill="black"/>
<path d="M45.5449 62.2334C45.2797 62.2334 45.0254 62.128 44.8378 61.9405C44.6503 61.753 44.5449 61.4986 44.5449 61.2334V46.0908C44.5632 43.2094 45.7238 40.453 47.7719 38.4262C49.8201 36.3995 52.5886 35.268 55.47 35.28H55.6937C55.9589 35.28 56.2133 35.3854 56.4008 35.5729C56.5884 35.7604 56.6937 36.0148 56.6937 36.28C56.6937 36.5452 56.5884 36.7996 56.4008 36.9871C56.2133 37.1746 55.9589 37.28 55.6937 37.28H55.47C53.119 37.2675 50.859 38.1881 49.1858 39.8398C47.5127 41.4915 46.563 43.7395 46.5452 46.0905V61.2334C46.5452 61.3647 46.5193 61.4948 46.4691 61.6162C46.4188 61.7375 46.3451 61.8478 46.2522 61.9406C46.1593 62.0335 46.0491 62.1071 45.9277 62.1574C45.8063 62.2076 45.6763 62.2334 45.5449 62.2334Z" fill="black"/>
<path d="M62.9316 41.7578H60.0962C58.6638 41.7562 57.2905 41.1864 56.2776 40.1735C55.2648 39.1607 54.695 37.7874 54.6934 36.355V5.31253C54.695 3.88015 55.2647 2.50689 56.2776 1.49407C57.2905 0.481243 58.6638 -0.0884307 60.0962 -0.0899658H62.9316C64.3639 -0.0884308 65.7372 0.481212 66.7501 1.49399C67.763 2.50677 68.3328 3.87997 68.3345 5.31233V36.355C68.3328 37.7874 67.763 39.1607 66.7501 40.1736C65.7372 41.1864 64.364 41.7562 62.9316 41.7578ZM60.0962 1.91003C59.194 1.91096 58.3291 2.2697 57.6912 2.90754C57.0533 3.54538 56.6944 4.41023 56.6934 5.31233V36.355C56.6943 37.2572 57.0532 38.1222 57.6911 38.7601C58.329 39.398 59.194 39.7569 60.0962 39.7578H62.9316C63.8337 39.7569 64.6987 39.398 65.3367 38.7601C65.9746 38.1222 66.3335 37.2572 66.3345 36.355V5.31253C66.3334 4.41038 65.9746 3.54548 65.3366 2.9076C64.6986 2.26972 63.8337 1.91096 62.9316 1.91003H60.0962Z" fill="black"/>
<path d="M80.7661 7.73047H67.3345C67.0693 7.73047 66.8149 7.62511 66.6274 7.43758C66.4398 7.25004 66.3345 6.99569 66.3345 6.73047C66.3345 6.46525 66.4398 6.2109 66.6274 6.02336C66.8149 5.83583 67.0693 5.73047 67.3345 5.73047H80.7661C81.0313 5.73047 81.2856 5.83583 81.4732 6.02336C81.6607 6.2109 81.7661 6.46525 81.7661 6.73047C81.7661 6.99569 81.6607 7.25004 81.4732 7.43758C81.2856 7.62511 81.0313 7.73047 80.7661 7.73047Z" fill="black"/>
<path d="M80.7661 37.355H67.3345C67.0693 37.355 66.8149 37.2496 66.6274 37.0621C66.4398 36.8746 66.3345 36.6202 66.3345 36.355C66.3345 36.0898 66.4398 35.8354 66.6274 35.6479C66.8149 35.4603 67.0693 35.355 67.3345 35.355H80.7661C81.0313 35.355 81.2856 35.4603 81.4732 35.6479C81.6607 35.8354 81.7661 36.0898 81.7661 36.355C81.7661 36.6202 81.6607 36.8746 81.4732 37.0621C81.2856 37.2496 81.0313 37.355 80.7661 37.355Z" fill="black"/>
<path d="M91 63.4443C87.8827 63.499 84.7729 63.1187 81.7607 62.3143C78.9046 61.5459 75.9543 61.1845 72.9971 61.241C70.0399 61.1846 67.0896 61.5459 64.2334 62.3143C61.2209 63.1188 58.111 63.4991 54.9934 63.4443C51.8766 63.4991 48.7673 63.1187 45.7556 62.3143C42.8998 61.5459 39.9498 61.1845 36.9929 61.241C34.0362 61.1845 31.0864 61.5459 28.2307 62.3143C25.2191 63.1187 22.1101 63.499 18.9934 63.4443C15.8775 63.4991 12.7692 63.1187 9.7585 62.3143C6.90409 61.546 3.95546 61.1847 1 61.2412C0.734784 61.2412 0.48043 61.1358 0.292893 60.9483C0.105357 60.7608 0 60.5064 0 60.2412C0 59.976 0.105357 59.7216 0.292893 59.5341C0.48043 59.3466 0.734784 59.2412 1 59.2412C4.11572 59.1864 7.22383 59.5667 10.2344 60.3712C13.0891 61.1396 16.038 61.5009 18.9937 61.4444C21.9502 61.5009 24.8999 61.1396 27.7554 60.3712C30.7671 59.5667 33.8764 59.1864 36.9932 59.2412C40.1102 59.1864 43.2195 59.5667 46.2314 60.3712C49.0871 61.1396 52.037 61.5009 54.9937 61.4444C57.951 61.5009 60.9015 61.1396 63.7578 60.3712C66.77 59.5668 69.8798 59.1864 72.9971 59.2412C76.1144 59.1864 79.2241 59.5668 82.2363 60.3712C85.0925 61.1396 88.0428 61.5008 91 61.4443C91.2652 61.4443 91.5196 61.5497 91.7071 61.7372C91.8946 61.9247 92 62.1791 92 62.4443C92 62.7095 91.8946 62.9639 91.7071 63.1514C91.5196 63.3389 91.2652 63.4443 91 63.4443Z" fill="black"/>
<path d="M91 70.7676C87.8826 70.8222 84.7729 70.4416 81.7607 69.6367C78.9045 68.8684 75.9542 68.5071 72.9971 68.5635C70.0399 68.5071 67.0896 68.8684 64.2334 69.6367C61.221 70.4416 58.111 70.8223 54.9934 70.7676C51.8765 70.8222 48.7673 70.4416 45.7556 69.6367C42.8998 68.8684 39.9498 68.5071 36.9929 68.5635C34.0362 68.5071 31.0864 68.8684 28.2307 69.6367C25.2192 70.4416 22.1101 70.8222 18.9934 70.7676C15.8775 70.8223 12.7692 70.4416 9.7585 69.6367C6.90407 68.8685 3.95546 68.5072 1 68.5635C0.734784 68.5635 0.48043 68.4581 0.292893 68.2706C0.105357 68.0831 0 67.8287 0 67.5635C0 67.2983 0.105357 67.0439 0.292893 66.8564C0.48043 66.6689 0.734784 66.5635 1 66.5635C4.11576 66.5089 7.22388 66.8895 10.2344 67.6943C13.0891 68.4627 16.038 68.824 18.9937 68.7676C21.9502 68.824 24.8999 68.4627 27.7554 67.6943C30.7671 66.8895 33.8763 66.5089 36.9932 66.5635C40.1102 66.5089 43.2196 66.8895 46.2314 67.6943C49.0871 68.4627 52.037 68.824 54.9937 68.7676C57.951 68.824 60.9015 68.4627 63.7578 67.6943C66.77 66.8895 69.8797 66.5089 72.9971 66.5635C76.1144 66.5089 79.2241 66.8895 82.2363 67.6943C85.0925 68.4627 88.0428 68.824 91 68.7676C91.2652 68.7676 91.5196 68.873 91.7071 69.0605C91.8946 69.248 92 69.5024 92 69.7676C92 70.0328 91.8946 70.2872 91.7071 70.4747C91.5196 70.6622 91.2652 70.7676 91 70.7676Z" fill="black"/>
<path d="M91 78.09C87.8827 78.1447 84.7729 77.7644 81.7607 76.96C78.9046 76.1916 75.9543 75.8302 72.9971 75.8867C70.0399 75.8303 67.0896 76.1916 64.2334 76.96C61.2209 77.7644 58.111 78.1448 54.9934 78.09C51.8766 78.1448 48.7673 77.7644 45.7556 76.96C42.8998 76.1916 39.9498 75.8302 36.9929 75.8867C34.0363 75.8303 31.0866 76.1916 28.231 76.96C25.2194 77.7644 22.1104 78.1447 18.9937 78.09C15.8778 78.1448 12.7695 77.7644 9.7588 76.96C6.9043 76.1916 3.95557 75.8303 1 75.8867C0.734784 75.8867 0.48043 75.7813 0.292893 75.5938C0.105357 75.4063 0 75.1519 0 74.8867C0 74.6215 0.105357 74.3671 0.292893 74.1796C0.48043 73.9921 0.734784 73.8867 1 73.8867C4.11572 73.8319 7.22383 74.2122 10.2344 75.0167C13.0891 75.7851 16.038 76.1465 18.9937 76.09C21.9502 76.1464 24.8999 75.7852 27.7554 75.0168C30.7671 74.2123 33.8764 73.832 36.9932 73.8868C40.1102 73.832 43.2195 74.2123 46.2314 75.0168C49.0871 75.7852 52.037 76.1465 54.9937 76.09C57.951 76.1465 60.9015 75.7852 63.7578 75.0168C66.77 74.2124 69.8798 73.832 72.9971 73.8868C76.1144 73.832 79.2241 74.2123 82.2363 75.0168C85.0925 75.7852 88.0428 76.1465 91 76.09C91.2652 76.09 91.5196 76.1954 91.7071 76.3829C91.8946 76.5704 92 76.8248 92 77.09C92 77.3552 91.8946 77.6096 91.7071 77.7971C91.5196 77.9846 91.2652 78.09 91 78.09Z" fill="black"/>
</g>
<defs>
<clipPath id="clip0_46_290">
<rect width="92" height="78" fill="white"/>
</clipPath>
</defs>
</svg>
