<svg width="85" height="106" viewBox="0 0 85 106" fill="none" xmlns="http://www.w3.org/2000/svg">
<path fill-rule="evenodd" clip-rule="evenodd" d="M21.806 71.4447C22.1208 71.991 21.9356 72.6901 21.3893 73.0049C20.8431 73.3196 20.1439 73.1345 19.8292 72.5882L16.3338 66.5326C16.3199 66.5095 16.3107 66.491 16.3014 66.4678L10.8523 57.0327C10.718 56.8428 10.6393 56.616 10.6393 56.3706V34.9816C10.6393 33.8705 10.1856 32.8612 9.44951 32.1298C8.71802 31.3983 7.70871 30.94 6.59771 30.94C5.48672 30.94 4.4773 31.3937 3.74592 32.1298C3.01444 32.8613 2.55611 33.8706 2.55611 34.9816V60.3054L15.0883 81.9955C15.2225 82.1807 15.3012 82.4122 15.3012 82.6576L15.2966 103.459H29.4726V71.9447L23.8476 62.1946C23.4124 61.44 22.6994 60.9261 21.9078 60.7178C21.13 60.5094 20.2828 60.5881 19.5328 61.0002C18.755 61.477 18.2412 62.0789 18.0004 62.9724C17.792 63.7502 17.8707 64.5974 18.2828 65.3474L18.3152 65.3983L21.806 71.4447ZM73.5192 57.0376L68.0701 66.4727C68.0608 66.4959 68.0469 66.5144 68.0377 66.5375L64.5423 72.5931C64.2275 73.1394 63.5284 73.3246 62.9821 73.0098C62.4358 72.695 62.2506 71.9959 62.5655 71.4496L66.0608 65.394L66.0932 65.3431C66.5053 64.5977 66.584 63.7458 66.3756 62.9681C66.1627 62.1764 65.6534 61.4635 64.8895 61.0283C64.1858 60.5978 63.2553 60.5051 62.4682 60.7181C61.6765 60.9311 60.9636 61.4403 60.5284 62.195L54.9034 71.945L54.8988 103.459H69.0748L69.0701 82.6627C69.0701 82.4173 69.1488 82.1858 69.2831 82.0006L81.8105 60.3058V34.982C81.8105 33.8708 81.3568 32.8615 80.6207 32.1302C79.8892 31.3987 78.8799 30.9404 77.7689 30.9404C76.6579 30.9404 75.6485 31.3941 74.9171 32.1302C74.1856 32.8616 73.7273 33.871 73.7273 34.982V56.3757C73.7319 56.6211 73.6535 56.8478 73.5192 57.0376ZM68.283 61.5515L71.4451 56.0792L71.4405 34.9818C71.4405 33.241 72.1535 31.6577 73.297 30.5142C74.4451 29.3707 76.0238 28.6577 77.7645 28.6577C79.5052 28.6577 81.0886 29.3707 82.2321 30.5142C83.3802 31.6623 84.0886 33.2411 84.0886 34.9818V60.6019C84.0886 60.8473 84.0098 61.0788 83.8756 61.2639L71.3612 82.9587V104.603C71.3612 105.237 70.8473 105.746 70.2177 105.746H53.7543C53.12 105.746 52.6108 105.232 52.6108 104.603L52.6061 71.6438C52.6061 71.4077 52.6802 71.1855 52.8006 71.0049L58.546 61.0559C59.3006 59.7503 60.5183 58.8706 61.8701 58.5096C63.1988 58.1531 64.6664 58.2966 65.9534 59.0142C66.9581 59.5004 67.8016 60.4959 68.283 61.5515ZM13.0096 82.9583L0.486892 61.2635C0.352634 61.0737 0.273926 60.8468 0.273926 60.6014V34.9813C0.273926 33.2405 0.986887 31.6572 2.1304 30.5137C3.27391 29.3703 4.85727 28.6573 6.59796 28.6573C8.33864 28.6573 9.92205 29.3702 11.0701 30.5137C12.2136 31.6619 12.9266 33.2406 12.9266 34.9813V56.0788L16.0841 61.5464C16.5378 60.5325 17.3016 59.6482 18.334 59.051C19.584 58.3241 21.0979 58.1343 22.4914 58.5047C23.8432 58.8658 25.0609 59.7454 25.8155 61.0509L31.5609 71C31.6859 71.1805 31.7554 71.4027 31.7554 71.6389V104.593C31.7554 105.227 31.2415 105.736 30.6118 105.736H14.1437C13.5094 105.736 13.0002 105.223 13.0002 104.593L13.0096 82.9583ZM30.2137 18.7319C29.6674 18.4171 29.4822 17.718 29.797 17.1717C30.1119 16.6254 30.8109 16.4403 31.3572 16.7551L35.5471 19.1764C35.3851 18.7459 35.1767 18.3246 34.9314 17.9264C34.2878 16.8755 33.3666 15.9541 32.2045 15.2875C31.0378 14.6162 29.7831 14.2782 28.5517 14.2412C27.5378 14.2134 26.5379 14.3939 25.6257 14.7689C25.76 15.7412 26.1026 16.6949 26.635 17.5653C27.2785 18.6162 28.1998 19.5329 29.3665 20.2088L29.4221 20.2412C30.5702 20.8894 31.8063 21.2181 33.0146 21.2505C33.4868 21.2644 33.9498 21.232 34.4081 21.1533L30.2137 18.7319ZM38.2414 20.7319L41.0424 22.3477V16.9079C39.8989 16.0838 38.9452 15.0005 38.2599 13.7366C37.496 12.3292 37.0609 10.6996 37.0609 8.9635C37.0609 7.22744 37.4961 5.59781 38.2599 4.1904C39.0516 2.73203 40.2043 1.50987 41.5886 0.657961C41.9729 0.417214 42.4498 0.440372 42.8062 0.671848C44.1812 1.5237 45.3247 2.7413 46.1118 4.19505C46.8757 5.60246 47.3108 7.23209 47.3108 8.96815C47.3108 10.7042 46.8756 12.3386 46.1118 13.7412C45.4266 15.0051 44.4729 16.0885 43.3293 16.9126V22.3523L46.1303 20.7366C46.2692 19.3384 46.7368 17.9681 47.4867 16.7412C48.3247 15.3801 49.5191 14.1809 51.0284 13.3107C52.533 12.4449 54.1626 12.0051 55.7645 11.9635C57.4311 11.9172 59.0655 12.3014 60.4868 13.0699C60.9034 13.2922 61.1257 13.7366 61.084 14.1764C61.0238 15.7737 60.5423 17.357 59.6858 18.7505C58.8479 20.1162 57.6535 21.3108 56.1488 22.181C56.1256 22.1949 56.1025 22.2042 56.0793 22.2181C54.5932 23.0607 52.9867 23.4866 51.408 23.5283C49.9683 23.5653 48.5469 23.2829 47.2691 22.7089L43.3293 24.982V25.3987C48.709 25.6857 53.5562 27.9867 57.1261 31.5561C60.9502 35.3802 63.316 40.6626 63.316 46.4954C63.316 52.3281 60.9502 57.6157 57.1261 61.4346C53.302 65.2587 48.0196 67.6245 42.1868 67.6245C36.3541 67.6245 31.0665 65.2587 27.2476 61.4346C23.4234 57.6105 21.0577 52.3281 21.0577 46.4954C21.0577 40.6626 23.4234 35.375 27.2476 31.5561C30.8216 27.982 35.6643 25.6858 41.0443 25.3987V24.982L37.1045 22.7089C35.8268 23.2876 34.4101 23.5653 32.9656 23.5283C31.3869 23.4866 29.7804 23.0607 28.2943 22.2181C28.2712 22.2088 28.248 22.1949 28.2249 22.181C26.7203 21.3153 25.5259 20.1208 24.6878 18.7505C23.8313 17.3524 23.3499 15.7737 23.2896 14.1764C23.248 13.7366 23.4702 13.2922 23.8869 13.0699C25.3081 12.3014 26.9424 11.9172 28.6091 11.9635C30.211 12.0051 31.8407 12.4449 33.3452 13.3107C34.8545 14.181 36.0489 15.3755 36.8869 16.7412C37.6369 17.9633 38.0998 19.3292 38.2434 20.7319L38.2414 20.7319ZM37.2831 28.3013C38.8479 27.88 40.4914 27.6578 42.1859 27.6578C47.3895 27.6578 52.1026 29.7642 55.5097 33.1763C55.8523 33.5189 56.1764 33.8707 56.4912 34.2365C56.4681 34.2828 56.4449 34.3291 56.4218 34.3754C56.1532 34.9355 55.8245 35.7225 55.6162 36.2318C55.5097 36.3753 55.4403 36.5513 55.4125 36.7411V36.7503C55.4032 36.8105 55.3847 36.8753 55.3523 36.9448C55.1671 37.3476 54.7134 37.7272 54.1718 38.005C53.6116 38.292 52.9912 38.4448 52.5004 38.38C52.3986 38.3661 52.306 38.3429 52.2273 38.3059C51.6023 38.0189 51.0884 37.8198 50.6069 37.6392C49.2179 37.1115 48.1624 36.7087 47.4171 35.0884C45.5698 31.0699 44.0791 31.7412 42.1809 32.6068C41.2272 33.042 40.0745 33.5605 38.3152 32.0096C37.843 31.5929 37.7411 30.8059 37.6439 30.0883C37.5652 29.4401 37.4822 28.8199 37.2831 28.3013ZM58.0333 36.3013C59.7463 38.9541 60.8112 42.0699 61.0009 45.4171C60.3759 45.4634 59.7648 45.6717 59.2185 45.9819C58.3852 46.4541 57.6815 47.1902 57.3157 47.9542C57.2277 48.1347 57.1629 48.306 57.1166 48.4773C56.2972 51.3985 55.524 51.2875 54.8296 51.1903C53.7972 51.0422 52.8296 50.8986 51.899 52.1996C50.5518 54.0792 49.9638 56.1347 50.0702 58.1394C50.1536 59.7829 50.7045 61.3755 51.6814 62.7968C48.8943 64.4218 45.6536 65.357 42.1906 65.357C40.8619 65.357 39.5657 65.2181 38.3111 64.9589C38.3574 64.5607 38.4407 64.1672 38.7046 63.9079C41.575 61.1024 39.7046 58.9635 38.1907 57.2274C37.7555 56.732 37.3712 56.2922 37.3666 56.1765C37.2787 54.371 38.5981 53.9079 39.7185 53.5191C41.6075 52.8616 43.1954 52.3061 42.2648 49.6024C40.7092 45.0977 38.3481 45.5052 35.4453 46.0005C34.2463 46.2088 32.9222 46.4357 31.6258 46.1208C30.7786 45.9171 30.7462 45.0699 30.7138 44.1903C30.6582 42.6857 30.6027 41.1348 28.7879 40.1672C28.5934 40.0653 28.598 39.2459 28.6027 38.4218C28.6073 38.0329 28.6073 37.6394 28.5888 37.2968C28.5193 36.1949 28.2832 35.2273 27.5193 34.6903C27.9406 34.1625 28.3943 33.6625 28.8712 33.1857C30.5703 31.4866 32.5934 30.1116 34.8388 29.158C35.2509 29.2691 35.3203 29.7969 35.399 30.3941C35.5472 31.5145 35.7092 32.7506 36.8203 33.7275C39.6907 36.2598 41.5749 35.4081 43.1351 34.6997C43.8804 34.3617 44.4638 34.0978 45.3619 36.0469C46.5008 38.5237 47.9314 39.07 49.811 39.7876C50.2971 39.9727 50.8156 40.1718 51.2971 40.3894C51.5841 40.5237 51.8989 40.607 52.223 40.6533C53.1721 40.7783 54.2786 40.5283 55.2229 40.0468C56.1905 39.5514 57.0331 38.7922 57.4405 37.9125C57.5656 37.644 57.6489 37.357 57.6905 37.0607C57.6767 37.0468 57.8296 36.718 58.0333 36.3013ZM53.0148 16.7553C53.5611 16.4405 54.2602 16.6256 54.575 17.1719C54.8898 17.7182 54.7046 18.4173 54.1583 18.7321L49.9638 21.1534C50.4175 21.2275 50.8851 21.2599 51.3574 21.2507C52.5657 21.2183 53.8018 20.8895 54.9499 20.2414L55.0054 20.209C56.1721 19.5377 57.0934 18.6163 57.7369 17.5654C58.2693 16.6997 58.6119 15.7413 58.7462 14.7691C57.8342 14.3941 56.8341 14.2136 55.8202 14.2413C54.5887 14.2738 53.3294 14.6117 52.1675 15.2876C51.0054 15.9589 50.0842 16.8755 49.4406 17.9266C49.1952 18.3293 48.9869 18.746 48.8249 19.1766L53.0148 16.7553ZM60.9917 47.7135C60.6908 52.4357 58.6537 56.6857 55.5102 59.8296C54.9037 60.4361 54.2602 61.0009 53.575 61.5195C52.8297 60.4408 52.4084 59.2417 52.3435 58.0149C52.2648 56.5242 52.7185 54.9732 53.7509 53.5241C53.8713 53.3528 54.1768 53.3991 54.5009 53.4454C56.1305 53.6815 57.9453 53.9454 59.3065 49.0889C59.3204 49.0333 59.3435 48.9824 59.3667 48.9315C59.538 48.575 59.8991 48.2093 60.3435 47.9593C60.5518 47.8435 60.7741 47.7505 60.9917 47.7135ZM41.0426 8.95912C41.0426 8.32485 41.5565 7.8156 42.1862 7.8156C42.8204 7.8156 43.3297 8.32949 43.3297 8.95912V13.797C43.6167 13.4406 43.876 13.0563 44.0982 12.6443C44.6861 11.5609 45.0195 10.3016 45.0195 8.95905C45.0195 7.61647 44.6815 6.35721 44.0982 5.27383C43.6167 4.38031 42.9593 3.60248 42.1861 3.00527C41.413 3.60712 40.7556 4.38032 40.2695 5.27383C39.6815 6.35716 39.3482 7.61647 39.3482 8.95905C39.3482 10.3016 39.6861 11.5609 40.2695 12.6443C40.4917 13.0563 40.7509 13.4406 41.038 13.797L41.0426 8.95912ZM36.0843 64.3345C33.3343 63.3947 30.8714 61.8345 28.862 59.8252C25.45 56.4132 23.3436 51.7048 23.3436 46.5014C23.3436 42.9089 24.3482 39.5523 26.0935 36.6959C26.2371 36.8579 26.2834 37.1218 26.3019 37.4181C26.325 37.7514 26.3204 38.0755 26.3158 38.4042C26.3065 39.918 26.2972 41.4135 27.7047 42.1681C28.3575 42.5153 28.3899 43.3997 28.4223 44.2607C28.4871 46.0154 28.5473 47.7144 31.0751 48.3255C32.8436 48.7514 34.4038 48.4829 35.8158 48.2422C37.6677 47.9227 39.1723 47.6635 40.0936 50.3301C40.2834 50.881 39.677 51.094 38.9501 51.3486C37.089 51.9968 34.8992 52.7653 35.0705 56.2653C35.1168 57.1773 35.7464 57.8995 36.4594 58.7097C37.3391 59.7143 38.4271 60.9597 37.103 62.2514C36.4178 62.932 36.1908 63.6447 36.0843 64.3345Z" fill="black"/>
</svg>
