<svg width="106" height="102" viewBox="0 0 106 102" fill="none" xmlns="http://www.w3.org/2000/svg">
<path fill-rule="evenodd" clip-rule="evenodd" d="M3.97155 53.6216H102.03C102.243 53.6216 102.422 53.443 102.422 53.2296V50.0825C102.422 49.8702 102.242 49.6904 102.03 49.6904H3.97155C3.75927 49.6904 3.57947 49.869 3.57947 50.0825V53.2296C3.57947 53.443 3.75927 53.6216 3.97155 53.6216ZM68.8724 23.754H92.3218C92.773 23.754 93.1477 23.3793 93.1477 22.928V21.5175C93.1477 21.0662 92.773 20.6916 92.3218 20.6916H68.8724C68.4212 20.6916 68.0465 21.0662 68.0465 21.5175V22.928C68.0465 23.3793 68.4212 23.754 68.8724 23.754ZM90.8289 26.5322H70.3665L68.123 30.7221C67.5825 31.7324 67.3412 32.6987 67.3412 33.8552V46.9122H70.4976V36.7228C70.4976 35.956 71.1193 35.3331 71.8872 35.3331H89.3093C90.076 35.3331 90.699 35.9548 90.699 36.7228V46.9122H93.8553V33.8552C93.8553 32.6987 93.6152 31.7324 93.0735 30.7221L90.8289 26.5322ZM67.3957 26.2143L65.6801 29.4182C64.8553 30.9576 64.5618 32.3078 64.5618 34.0327C61.7256 35.3516 59.3801 34.9282 56.5636 33.8309C58.1946 31.4413 59.3349 28.5216 59.8441 25.2828C59.9613 24.5277 59.4439 23.8201 58.6876 23.7041C57.9313 23.5881 57.2248 24.1043 57.1088 24.8606C56.2585 30.3126 53.05 35.811 47.5005 37.297C42.0938 38.7458 36.5235 35.6822 32.9553 31.3183C32.4693 30.7244 31.5946 30.6374 31.0019 31.1234C30.4079 31.6095 30.3209 32.4841 30.807 33.0769C32.8614 35.5894 35.3182 37.5406 37.9363 38.7992C36.9678 39.9916 35.8228 41.1725 34.5503 41.9381C33.156 42.7768 31.6491 43.1074 29.9509 43.054L27.5091 29.779C28.1471 28.0784 29.1876 26.5751 30.5309 25.4789C31.8405 24.4105 33.4402 23.7273 35.2347 23.6298C35.9991 23.5904 36.5873 22.9396 36.5478 22.1752C36.5084 21.4108 35.8576 20.8226 35.0932 20.8621C31.6503 21.043 28.7062 22.8364 26.7203 25.4893L26.3178 23.3004C25.9698 21.4096 24.8829 19.868 23.3691 18.8274C24.0094 15.3892 26.247 12.3871 29.6771 11.4672C30.3418 11.2932 30.8789 11.1436 31.0738 10.3629C31.4925 8.68788 32.2848 7.18568 33.3775 6.00712C35.585 3.62796 38.8353 2.79856 41.9175 3.81472C43.4858 4.33208 44.9404 5.29024 46.1317 6.58944C46.6108 7.13348 47.3242 7.27964 47.9355 6.90612C48.2569 6.71008 48.5933 6.53608 48.9424 6.38644C53.9385 4.24624 59.3059 7.6404 61.2001 12.6794C61.373 13.1376 61.7546 13.4671 62.2372 13.5622C64.8054 14.0703 67.0373 15.7244 68.5279 17.9238C67.6718 18.005 66.9004 18.389 66.3239 18.9655C65.114 20.1754 65.266 21.391 65.266 22.9234C65.266 24.3641 66.1232 25.6366 67.3945 26.2108L67.3957 26.2143ZM71.726 17.911H92.3218C94.3065 17.911 95.9259 19.5304 95.9259 21.5152C95.9259 23.0464 96.0779 24.2632 94.868 25.4731C94.5606 25.7805 94.1987 26.0322 93.7973 26.2132L95.5129 29.4171C96.2774 30.8439 96.6312 32.2452 96.6312 33.8529V46.9099H102.028C103.774 46.9099 105.198 48.3344 105.198 50.0802V53.2272C105.198 54.9742 103.773 56.3975 102.028 56.3975H99.0846L92.7927 93.5442C92.0202 98.103 88.1377 101.383 83.522 101.383H22.477C17.8614 101.383 13.9777 98.1042 13.2063 93.5442L6.91447 56.3975H3.97155C2.22459 56.3975 0.80127 54.973 0.80127 53.2272V50.0802C0.80127 48.3332 2.22575 46.9099 3.97155 46.9099H9.00363C6.94927 41.1354 4.89607 35.3609 2.84287 29.5876C1.37663 25.465 4.19891 21.0628 8.30995 19.9608L9.65323 19.6012C7.92715 18.034 5.67907 16.8717 3.48783 16.0527C2.77095 15.7859 2.40671 14.989 2.67351 14.2721C2.94031 13.5552 3.73723 13.191 4.45411 13.4578C6.61171 14.264 8.78091 15.3614 10.6044 16.787C9.98035 14.6781 9.12659 12.0925 8.24035 10.545C7.85987 9.8792 8.09071 9.03124 8.75539 8.65076C9.42123 8.27028 10.2692 8.50112 10.6497 9.1658C11.6855 10.9742 12.6228 13.8081 13.3304 16.2395C13.9058 14.3197 14.7828 12.5774 16.0889 11.2492C16.626 10.704 17.5029 10.6958 18.0481 11.2329C18.5933 11.77 18.6015 12.647 18.0644 13.1922C16.8661 14.4125 16.1585 16.1826 15.7351 17.9702L17.3835 17.5572C18.5249 17.3473 19.6884 17.396 20.7823 17.6686C21.7485 13.5924 24.5499 10.1251 28.6088 8.88856C31.2953 0.391557 40.9628 -2.1326 47.4727 4.01308C53.7425 1.03072 60.7373 4.70908 63.5155 11.0137C67.0744 11.966 70.0219 14.5737 71.726 17.911ZM87.9184 46.911H73.2746V38.1101H87.9184V46.911ZM64.5618 46.911V37.029C64.324 37.1125 64.0885 37.1868 63.8542 37.2517C62.5191 38.247 61.6317 39.6251 61.0749 41.2085C60.4693 42.9322 60.249 44.9042 60.271 46.9122H64.5607L64.5618 46.911ZM34.2777 18.5896C36.3309 13.8534 41.4987 11.8848 46.0749 14.3533C46.7489 14.7164 47.5899 14.4635 47.9529 13.7884C48.316 13.1133 48.0631 12.2734 47.388 11.9104C41.3873 8.67396 34.432 11.2619 31.7373 17.4934C31.4345 18.1952 31.7582 19.0084 32.4588 19.3112C33.1606 19.6139 33.9749 19.2903 34.2777 18.5896ZM52.5802 37.9245L53.391 40.951C53.8701 39.313 54.5882 37.8955 55.4976 36.3945C55.2447 36.2947 54.9895 36.1915 54.732 36.0836C54.065 36.7703 53.3458 37.3874 52.5813 37.9257L52.5802 37.9245ZM52.115 46.911L50.0827 39.3281C48.9181 39.8327 47.6954 40.1691 46.4345 40.3257L48.1989 46.911H52.115ZM44.3755 43.3614L43.5763 40.3791C42.5938 40.2967 41.6124 40.1134 40.6403 39.835C40.4872 40.0357 40.3329 40.2318 40.1798 40.4232C41.747 41.2781 43.1227 42.1643 44.3755 43.3614ZM57.4986 46.911C57.4661 43.6526 58.0148 40.2457 59.8058 37.5603C59.2734 37.5 58.7433 37.4025 58.2085 37.2726C56.1634 40.5334 55.3247 42.8186 55.595 46.911H57.4986ZM37.0316 43.5958C38.644 44.3753 40.0325 45.5388 41.2354 46.911H43.8199C42.2956 44.8683 40.5603 43.7547 38.2588 42.5436C37.861 42.9241 37.4526 43.2756 37.0316 43.5958ZM37.1823 46.911C37.0037 46.7811 36.8216 46.6582 36.6371 46.5422C35.6836 45.9459 34.6362 45.5422 33.4889 45.4065C32.5574 45.6768 31.5563 45.823 30.4625 45.8346L30.6608 46.911H37.1823ZM63.8554 21.6613C62.8636 18.7741 60.5865 16.939 57.8431 16.1757C55.2644 15.4588 52.3134 15.7059 50.0351 16.8578C49.3519 17.2023 49.077 18.0363 49.4215 18.7196C49.766 19.4028 50.6001 19.6777 51.2833 19.3332C51.5339 19.2068 51.8123 19.0896 52.1162 18.9864C55.3781 17.8658 59.9311 18.781 61.228 22.5638C61.4762 23.2888 62.2662 23.6751 62.9923 23.4268C63.7173 23.1786 64.1036 22.3875 63.8554 21.6613ZM23.5941 23.8015C23.0965 21.0952 20.0434 19.6905 17.4902 20.3749L9.02683 22.6427C6.43423 23.3375 4.54459 26.0948 5.45867 28.6654L7.43995 34.2346L18.4449 31.2858C19.1849 31.0886 19.9459 31.5283 20.1431 32.2684C20.3403 33.0084 19.9007 33.7694 19.1606 33.9666L8.37143 36.8573L10.4467 42.6921L18.4008 40.5612C19.1409 40.364 19.9018 40.8036 20.099 41.5437C20.2962 42.2838 19.8566 43.0448 19.1165 43.242L11.3793 45.3149L11.9465 46.9099H27.8432C26.4268 39.2063 25.0093 31.5039 23.5929 23.8004L23.5941 23.8015ZM51.6116 64.1533V76.7404C51.6116 77.5072 52.2333 78.1301 53.0013 78.1301C53.7692 78.1301 54.3909 77.5084 54.3909 76.7404V64.1533C54.3909 63.3865 53.7692 62.7636 53.0013 62.7636C52.2333 62.7636 51.6116 63.3854 51.6116 64.1533ZM51.6116 81.6554V90.8507C51.6116 91.6174 52.2333 92.2404 53.0013 92.2404C53.7692 92.2404 54.3909 91.6186 54.3909 90.8507V81.6554C54.3909 80.8886 53.7692 80.2657 53.0013 80.2657C52.2333 80.2657 51.6116 80.8874 51.6116 81.6554ZM68.5023 63.9248L63.9807 90.6222C63.8554 91.3773 64.3646 92.0919 65.1209 92.2172C65.8761 92.3436 66.5907 91.8332 66.716 91.078L71.2376 64.3806C71.3629 63.6255 70.8537 62.9109 70.0973 62.7856C69.3422 62.6604 68.6276 63.1696 68.5023 63.9259V63.9248ZM34.7637 64.3806L39.2854 91.078C39.4107 91.8332 40.1253 92.3436 40.8804 92.2172C41.6356 92.0919 42.146 91.3773 42.0207 90.6222L37.499 63.9248C37.3726 63.1696 36.6592 62.6592 35.904 62.7845C35.1489 62.9098 34.6385 63.6255 34.7637 64.3806ZM81.7008 63.9248L79.0757 79.4247C78.9505 80.1798 79.4597 80.8944 80.216 81.0197C80.9712 81.145 81.6857 80.6357 81.811 79.8794L84.4361 64.3795C84.5614 63.6243 84.0521 62.9098 83.2958 62.7845C82.5407 62.6592 81.8261 63.1684 81.7008 63.9248ZM78.2429 84.3396L77.1792 90.6222C77.0539 91.3773 77.5631 92.0919 78.3194 92.2172C79.0746 92.3436 79.7892 91.8332 79.9144 91.078L80.9781 84.7955C81.1034 84.0403 80.5942 83.3258 79.839 83.2005C79.0839 83.074 78.3681 83.5844 78.2429 84.3396ZM21.5641 64.3806L22.8772 72.1318C23.0025 72.8869 23.7171 73.3973 24.4722 73.272C25.2274 73.1456 25.7378 72.4322 25.6113 71.677L24.2982 63.9259C24.1729 63.1708 23.4584 62.6604 22.7032 62.7856C21.9481 62.9109 21.4377 63.6255 21.5641 64.3806ZM23.709 77.0467L26.0858 91.078C26.2111 91.8332 26.9256 92.3436 27.6808 92.2172C28.4359 92.0919 28.9464 91.3773 28.8199 90.6222L26.4431 76.5908C26.3178 75.8356 25.6032 75.3252 24.8481 75.4517C24.0929 75.577 23.5825 76.2915 23.709 77.0467ZM9.72631 56.3987L15.9404 93.0895C16.4856 96.3062 19.2047 98.6053 22.4759 98.6053H83.522C86.7932 98.6053 89.5134 96.3062 90.0575 93.0895L96.2716 56.3987H9.72631Z" fill="black"/>
</svg>
