<svg width="73" height="93" viewBox="0 0 73 93" fill="none" xmlns="http://www.w3.org/2000/svg">
<path d="M67.5343 0.508541C67.8736 0.630069 68.142 0.893386 68.2787 1.22252C68.9775 2.88852 72.2486 11.1777 68.2432 19.1931C66.1671 23.3656 63.0581 26.0645 61.1997 27.4063C55.9638 31.2091 50.5356 31.8217 47.9127 32.1053C47.2037 32.1813 46.5657 31.6699 46.4847 30.9559C46.4087 30.247 46.9252 29.6039 47.6341 29.5279C50.1913 29.2494 55.027 28.6873 59.6806 25.3099C61.3414 24.1098 64.096 21.7046 65.9241 18.0384C68.785 12.3114 67.3368 6.31603 66.3798 3.51603C65.3215 4.01226 63.9543 4.57939 62.3339 5.00469C59.9945 5.6174 58.1716 5.79968 56.6018 5.90096C56.2524 5.92122 55.9284 5.94147 55.6144 5.95667C54.4903 6.01743 53.5536 6.06807 52.561 6.26555C48.2214 7.15168 43.8464 10.7874 41.6641 15.3295C39.3095 20.2311 40.226 24.9859 41.1324 27.6797C44.7934 20.8792 50.3685 14.7521 58.5416 10.2147C59.1695 9.86532 59.9595 10.0932 60.3038 10.716C60.6532 11.3439 60.4304 12.1339 59.8025 12.4782C42.9247 21.846 37.7447 38.4339 37.5983 53.5552H71.2968C72.0108 53.5552 72.5931 54.1376 72.5931 54.8515C72.5931 55.5655 72.0108 56.1478 71.2968 56.1478H37.5931V57.1909L46.5811 60.3153C50.1459 61.5559 52.8448 64.508 53.7563 68.169C53.9336 68.8627 53.5082 69.5666 52.8145 69.7387C52.1208 69.9159 51.417 69.4906 51.2448 68.7969C50.541 65.9865 48.47 63.718 45.7305 62.7661L37.5933 59.9355V66.812L41.472 70.6908L48.4295 72.063C51.9436 72.7567 55.068 74.7467 57.1846 77.6381L59.8279 81.2587C62.2736 82.4031 63.7624 83.6842 64.7548 85.3147C65.6258 86.7477 66.0663 88.4035 66.5322 90.1556L66.5372 90.1657V90.1707C66.598 90.3885 66.6537 90.6062 66.7145 90.829C66.9018 91.5177 66.4917 92.2316 65.803 92.4191C65.1144 92.6065 64.4004 92.1962 64.213 91.5076L64.1218 91.1633L64.0358 90.8544C63.5446 89.0264 63.2053 87.7555 62.537 86.6617C61.9091 85.6287 60.9419 84.6869 59.0228 83.75C57.2101 84.7476 56.1466 85.6591 55.4378 86.692C54.6428 87.8364 54.1921 89.2492 53.7718 91.4163C53.6401 92.1151 52.9565 92.5759 52.2527 92.4392C51.5539 92.3075 51.0931 91.6239 51.2298 90.9201C51.6653 88.6718 52.197 86.8185 53.306 85.2184C54.1972 83.9221 55.4124 82.874 57.0682 81.8765L55.0884 79.1725C53.3617 76.8027 50.8045 75.1773 47.9284 74.6102L44.2775 73.8861C45.8219 76.2104 46.6676 78.9599 46.6676 81.7905V83.3907C46.6676 84.1047 46.0853 84.687 45.3713 84.687C44.6574 84.687 44.075 84.1047 44.075 83.3907V81.7905C44.075 78.6967 42.8446 75.7293 40.6571 73.5418L37.2594 70.1441C36.7479 72.2455 35.6744 74.1798 34.1199 75.7344L30.6614 79.1929C29.2891 80.5651 28.5195 82.4235 28.5195 84.3629C28.5195 86.9909 27.4764 89.5076 25.618 91.3659L24.8989 92.0849C24.3926 92.5913 23.5723 92.5913 23.0658 92.0849C22.5594 91.5786 22.5595 90.7583 23.0658 90.2518L23.7849 89.5328C25.1571 88.1605 25.9268 86.3022 25.9268 84.3628C25.9268 81.7348 26.9699 79.218 28.8283 77.3598L32.2868 73.9013C34.0236 72.1645 35.001 69.8047 35.001 67.3489V63.9512C34.5908 64.1233 34.1908 64.2904 33.8059 64.4474C29.6081 66.1791 26.808 67.3388 23.0254 70.2554C23.6331 70.7719 24.0635 71.3998 24.3673 72.1441C24.6155 72.7518 24.7623 73.405 24.8838 74.0532C24.9395 74.357 24.9952 74.676 25.0459 75.0001L25.0611 75.0811C25.1218 75.4356 25.1826 75.8002 25.2585 76.185C25.3902 76.8888 24.9243 77.5623 24.2205 77.6991C23.5166 77.8307 22.8432 77.3649 22.7064 76.661C22.6305 76.2509 22.5646 75.866 22.5039 75.5116L22.4937 75.4356C22.438 75.1065 22.3874 74.8128 22.3368 74.5292C22.2203 73.9267 22.1089 73.476 21.9671 73.1165C21.7899 72.6861 21.5468 72.3266 21.0253 71.9975C20.0683 73.0153 19.2783 73.9976 18.701 74.7723C18.3516 75.2382 18.0782 75.6281 17.8959 75.8964L17.8858 75.9116C18.2656 78.6156 18.2251 80.8538 17.5364 83.0564C16.8123 85.3654 15.4097 87.5125 13.3133 90.0493C12.8576 90.6012 12.0423 90.6772 11.4905 90.2215C10.9385 89.7657 10.8626 88.9505 11.3183 88.3986C13.3387 85.9529 14.4831 84.1147 15.0603 82.2766C15.5363 80.7575 15.6477 79.1523 15.4198 77.0762C13.7235 77.3193 12.4627 77.5623 11.4094 78.0029C10.189 78.5092 9.20164 79.2941 8.22942 80.8385C7.84457 81.4462 7.04452 81.6285 6.44195 81.2487C5.83431 80.8639 5.65202 80.0638 6.03179 79.4612C7.26226 77.5067 8.64966 76.3421 10.4169 75.6077C11.9512 74.9697 13.7336 74.6861 15.7742 74.4076C15.9717 74.1089 16.2603 73.6987 16.6249 73.2126C17.3794 72.21 18.4732 70.8631 19.8252 69.511C19.8505 69.4857 19.8809 69.4553 19.9113 69.43C24.7977 65.3538 28.0992 63.9917 32.8642 62.027C33.5477 61.7485 34.2516 61.4548 35.001 61.1409V56.1481H1.29727C0.583299 56.1481 0.000976562 55.5657 0.000976562 54.8518C0.000976562 54.1378 0.583299 53.5555 1.29727 53.5555H34.9854C34.8234 49.3982 33.1676 44.4915 30.2661 39.9495C27.2127 35.1694 22.8478 30.8906 17.5868 28.3639C16.9437 28.055 16.6703 27.2803 16.9791 26.6322C17.2931 25.9891 18.0628 25.7157 18.7109 26.0296C23.1467 28.1614 26.9596 31.397 29.9674 35.1087C30.2054 32.9162 30.0535 29.7211 28.0179 26.7385C25.8354 23.5434 22.1035 21.3052 18.7464 21.1382C17.9767 21.1027 17.2729 21.1685 16.4019 21.2546C16.1538 21.2799 15.8955 21.3053 15.617 21.3306C14.3815 21.4369 12.9333 21.5129 11.0293 21.3103C9.84948 21.1888 8.81654 20.9508 7.97589 20.7128C7.59612 23.0573 7.34799 27.5386 10.047 31.3616C11.8547 33.934 14.2246 35.4429 15.6272 36.1619C19.5514 38.1874 23.2936 38.0607 25.2936 37.9747C26.0076 37.9443 26.6152 38.4962 26.6457 39.2153C26.6761 39.9292 26.119 40.5318 25.4051 40.5622C23.339 40.6534 19.0046 40.8256 14.4372 38.4659C12.8219 37.6354 10.0622 35.8885 7.92543 32.8554C3.80865 27.017 5.39363 20.1102 5.73793 18.7374C5.82401 18.388 6.05693 18.0893 6.37088 17.9171C6.68483 17.7399 7.05954 17.7044 7.39881 17.8209L7.42919 17.826C8.34571 18.1298 9.65726 18.5602 11.2979 18.7324H11.3029C12.979 18.9096 14.2499 18.8438 15.3892 18.7475C15.612 18.7273 15.8348 18.702 16.0576 18.6817C16.959 18.5956 17.8958 18.5045 18.868 18.545H18.8731C23.162 18.7577 27.5927 21.5174 30.1599 25.2746C33.6893 30.4446 32.5854 36.0349 32.0587 37.9489C32.1904 38.1514 32.322 38.3489 32.4486 38.5514C33.7449 40.582 34.8234 42.7036 35.654 44.8252C36.3376 40.0908 37.5883 35.3309 39.6037 30.7941C38.834 29.2194 35.6236 21.9175 39.3252 14.2054C41.8064 9.05059 46.794 4.79718 52.0501 3.72877L52.0552 3.72371C53.2452 3.48572 54.4098 3.42495 55.5693 3.36419C55.858 3.349 56.1466 3.33381 56.4352 3.31356C57.9087 3.22241 59.5544 3.05531 61.6761 2.49831C63.7573 1.95649 65.3574 1.14627 66.4613 0.584195L66.5018 0.569004C66.8208 0.401899 67.1951 0.381951 67.5343 0.508541Z" fill="black"/>
<path d="M5.18506 62.6296C5.18506 61.1966 6.34463 60.037 7.77765 60.037C9.21067 60.037 10.3702 61.1966 10.3702 62.6296C10.3702 64.0627 9.21067 65.2222 7.77765 65.2222C6.34463 65.2222 5.18506 64.0627 5.18506 62.6296Z" fill="black"/>
<path d="M57.0369 73C57.0369 71.5669 58.1964 70.4074 59.6295 70.4074C61.0625 70.4074 62.2221 71.567 62.2221 73C62.2221 74.433 61.0625 75.5926 59.6295 75.5926C58.1964 75.5926 57.0369 74.433 57.0369 73Z" fill="black"/>
<path d="M35 85.963C35 84.53 36.1596 83.3704 37.5926 83.3704C39.0256 83.3704 40.1852 84.53 40.1852 85.963C40.1852 87.396 39.0256 88.5556 37.5926 88.5556C36.1596 88.5556 35 87.396 35 85.963Z" fill="black"/>
<path d="M62.2222 61.9815C62.2222 60.908 63.0931 60.037 64.1666 60.037C65.2401 60.037 66.1111 60.908 66.1111 61.9815C66.1111 63.055 65.2401 63.9259 64.1666 63.9259C63.0931 63.9259 62.2222 63.055 62.2222 61.9815Z" fill="black"/>
<path d="M22.0369 60.6852C22.0369 59.6117 22.9078 58.7408 23.9813 58.7408C25.0548 58.7408 25.9258 59.6117 25.9258 60.6852C25.9258 61.7587 25.0548 62.6297 23.9813 62.6297C22.9078 62.6297 22.0369 61.7587 22.0369 60.6852Z" fill="black"/>
</svg>
