<svg width="96" height="90" viewBox="0 0 96 90" fill="none" xmlns="http://www.w3.org/2000/svg">
<path d="M77.3794 69.567C77.7533 68.028 78.1567 66.6696 78.5474 65.3564C79.9228 60.7282 81.2219 56.3554 81.2219 45.0001C81.2219 33.6449 79.9228 29.272 78.5474 24.6439C78.1567 23.3306 77.7533 21.9722 77.3794 20.4319C76.2508 15.7427 76.8175 10.8054 78.9791 6.49384C79.3096 5.83315 79.4657 5.09891 79.4326 4.36089C79.3995 3.62286 79.1782 2.90557 78.7898 2.27715C78.4014 1.64873 77.8587 1.13006 77.2134 0.770423C76.5681 0.410783 75.8415 0.222118 75.1028 0.222351H6.45215C5.71338 0.222118 4.98683 0.410783 4.34151 0.770423C3.69619 1.13006 3.15354 1.64873 2.76513 2.27715C2.37671 2.90557 2.15543 3.62286 2.1223 4.36089C2.08917 5.09891 2.24529 5.83315 2.57584 6.49384C4.73751 10.8059 5.30414 15.7436 4.17546 20.4333C3.80165 21.9722 3.39822 23.3306 3.00748 24.6438C1.63216 29.272 0.333008 33.6449 0.333008 45.0001C0.333008 56.3554 1.63216 60.7282 3.00748 65.3563C3.39822 66.6696 3.80165 68.028 4.17546 69.5683C5.30407 74.2575 4.73744 79.1948 2.57584 83.5064C2.24529 84.1671 2.08917 84.9013 2.1223 85.6394C2.15543 86.3774 2.37671 87.0947 2.76513 87.7231C3.15354 88.3515 3.69619 88.8702 4.34151 89.2298C4.98683 89.5895 5.71338 89.7781 6.45215 89.7779H75.1028C75.8415 89.7781 76.5681 89.5895 77.2134 89.2298C77.8587 88.8702 78.4014 88.3515 78.7898 87.7231C79.1782 87.0947 79.3995 86.3774 79.4326 85.6394C79.4657 84.9013 79.3096 84.1671 78.9791 83.5064C76.8174 79.1943 76.2508 74.2566 77.3794 69.567ZM76.3314 86.2035C76.2036 86.4145 76.0232 86.5886 75.8078 86.7088C75.5924 86.829 75.3494 86.8911 75.1028 86.889H6.45215C6.20597 86.8889 5.9639 86.8259 5.74891 86.7059C5.53391 86.586 5.35312 86.4131 5.22369 86.2037C5.09426 85.9943 5.02047 85.7553 5.00934 85.5094C4.9982 85.2635 5.05008 85.0188 5.16005 84.7985C7.62701 79.8762 8.27261 74.2397 6.98254 68.8871C6.5918 67.2762 6.17709 65.8811 5.77643 64.5326C4.46322 60.1118 3.2219 55.935 3.2219 45.0001C3.2219 34.0652 4.46322 29.8885 5.77647 25.4677C6.17709 24.1192 6.5918 22.7241 6.98258 21.1146C8.27272 15.7615 7.62711 10.1245 5.16005 5.20174C5.05008 4.98149 4.9982 4.73679 5.00934 4.49086C5.02047 4.24493 5.09426 4.00592 5.22369 3.79651C5.35312 3.5871 5.53391 3.41423 5.74891 3.2943C5.9639 3.17437 6.20597 3.11136 6.45215 3.11124H75.1028C75.3489 3.11136 75.591 3.17437 75.806 3.2943C76.021 3.41423 76.2018 3.5871 76.3312 3.79651C76.4606 4.00592 76.5344 4.24493 76.5456 4.49086C76.5567 4.73679 76.5048 4.98149 76.3949 5.20174C73.9279 10.1241 73.2823 15.7605 74.5724 21.1132C74.9631 22.7241 75.3778 24.1192 75.7785 25.4677C77.0917 29.8885 78.333 34.0652 78.333 45.0001C78.333 55.935 77.0917 60.1118 75.7784 64.5326C75.3778 65.8811 74.9631 67.2762 74.5723 68.8856C73.2822 74.2387 73.9278 79.8757 76.3948 84.7985C76.5073 85.018 76.5606 85.263 76.5495 85.5094C76.5384 85.7558 76.4632 85.995 76.3314 86.2035Z" fill="#19D8C5"/>
<path d="M53.0535 23.27C52.6737 20.0432 51.337 17.0039 49.2152 14.5433C47.0935 12.0827 44.284 10.3134 41.1482 9.46312L33.9344 7.49535C33.6888 7.4285 33.4299 7.42773 33.1839 7.49312C32.9379 7.55851 32.7136 7.68773 32.5336 7.86771C32.3537 8.04769 32.2244 8.27202 32.159 8.518C32.0937 8.76399 32.0944 9.02288 32.1613 9.26847L33.9767 15.925C34.8116 19.0175 36.338 21.88 38.4407 24.2964C40.5434 26.7128 43.1674 28.6201 46.1149 29.8744L47.431 30.4386C47.6054 30.5139 47.793 30.5541 47.9829 30.5568C48.1729 30.5595 48.3616 30.5247 48.5381 30.4544C48.7146 30.384 48.8755 30.2795 49.0115 30.1469C49.1475 30.0143 49.2561 29.8561 49.3309 29.6814C49.4057 29.5068 49.4453 29.3191 49.4474 29.1291C49.4495 28.9391 49.4141 28.7506 49.3432 28.5743C49.2724 28.398 49.1674 28.2374 49.0343 28.1018C48.9013 27.9662 48.7428 27.8581 48.5679 27.7839L47.2518 27.2196C44.7051 26.1357 42.4379 24.4876 40.6211 22.3996C38.8044 20.3115 37.4855 17.8382 36.7641 15.1661L35.613 10.9485L40.3893 12.2505C42.9702 12.9511 45.2824 14.4082 47.028 16.4342C48.7737 18.4601 49.873 20.9623 50.1844 23.6184C51.911 37.8202 50.0843 64.0078 18.4644 79.8191C18.1227 79.991 17.8631 80.2914 17.7425 80.6545C17.622 81.0175 17.6504 81.4136 17.8215 81.7557C17.9925 82.0979 18.2923 82.3582 18.6551 82.4796C19.0179 82.601 19.414 82.5736 19.7566 82.4033C52.9619 65.7993 54.8704 38.2279 53.0535 23.27Z" fill="#19D8C5"/>
<path d="M32.335 67.8122C32.5183 67.8944 32.7166 67.9375 32.9174 67.9387C33.1182 67.94 33.317 67.8993 33.5013 67.8194C33.6855 67.7395 33.851 67.6221 33.9873 67.4747C34.1237 67.3272 34.2277 67.153 34.2929 66.9631C36.7321 59.9314 36.9774 52.3247 34.9965 45.1505C33.0155 37.9763 28.9017 31.5732 23.2001 26.7895L22.9306 26.5623C22.7655 26.4232 22.5713 26.3228 22.3623 26.2686C22.1532 26.2144 21.9347 26.2078 21.7228 26.2492C21.5109 26.2906 21.3109 26.379 21.1377 26.5079C20.9644 26.6368 20.8222 26.8029 20.7217 26.994L19.2278 29.8307C17.4746 33.1623 16.4224 36.8178 16.1363 40.5717C15.8502 44.3256 16.3363 48.0983 17.5644 51.6571C18.7925 55.216 20.7367 58.4854 23.2771 61.2639C25.8175 64.0424 28.9002 66.271 32.335 67.8122ZM21.7838 31.1763L22.4256 29.9576C27.1 34.231 30.4808 39.7309 32.183 45.8312C33.8853 51.9315 33.8407 58.3872 32.0543 64.4635C26.2869 61.4025 21.9677 56.1807 20.0427 49.9416C18.1176 43.7025 18.7438 36.9547 21.7838 31.1763Z" fill="#19D8C5"/>
<path d="M71.3786 40.1914C63.1743 42.4741 56.1615 47.8234 51.7911 55.1324L49.6498 58.7012C49.5423 58.8806 49.4751 59.0812 49.4527 59.2892C49.4302 59.4972 49.4532 59.7075 49.52 59.9057C49.5868 60.1039 49.6958 60.2853 49.8395 60.4373C49.9832 60.5893 50.1582 60.7083 50.3523 60.786C52.3566 61.5879 54.5079 61.9568 56.6648 61.8686C58.8218 61.7804 60.9357 61.2371 62.8679 60.2743C64.8001 59.3114 66.5068 57.9509 67.876 56.2819C69.2453 54.613 70.2461 52.6733 70.8129 50.5903L73.1615 41.9617C73.2286 41.7153 73.2291 41.4555 73.1631 41.2088C73.097 40.9621 72.9667 40.7374 72.7855 40.5574C72.6043 40.3775 72.3786 40.2488 72.1314 40.1845C71.8843 40.1202 71.6245 40.1226 71.3786 40.1914ZM68.0256 49.8314C67.1742 52.9614 65.132 55.6341 62.3358 57.2781C59.5396 58.9222 56.2111 59.4071 53.0621 58.6293L54.2682 56.6192C57.7968 50.7163 63.2291 46.1898 69.6718 43.7842L68.0256 49.8314Z" fill="#19D8C5"/>
<path d="M71.1109 76.7779H65.3331C64.95 76.7779 64.5826 76.9301 64.3117 77.201C64.0409 77.4718 63.8887 77.8392 63.8887 78.2223C63.8887 78.6054 64.0409 78.9728 64.3117 79.2437C64.5826 79.5146 64.95 79.6668 65.3331 79.6668H71.1109C71.494 79.6668 71.8614 79.5146 72.1323 79.2437C72.4032 78.9728 72.5553 78.6054 72.5553 78.2223C72.5553 77.8392 72.4032 77.4718 72.1323 77.201C71.8614 76.9301 71.494 76.7779 71.1109 76.7779Z" fill="#19D8C5"/>
<path d="M11.8888 13.2223H14.7777C15.1608 13.2223 15.5282 13.0701 15.799 12.7993C16.0699 12.5284 16.2221 12.161 16.2221 11.7779C16.2221 11.3948 16.0699 11.0274 15.799 10.7565C15.5282 10.4856 15.1608 10.3334 14.7777 10.3334H11.8888C11.5057 10.3334 11.1383 10.4856 10.8674 10.7565C10.5965 11.0274 10.4443 11.3948 10.4443 11.7779C10.4443 12.161 10.5965 12.5284 10.8674 12.7993C11.1383 13.0701 11.5057 13.2223 11.8888 13.2223Z" fill="#19D8C5"/>
<path d="M88.6175 79.8177L88.9814 76.9006C89.1189 75.8004 89.0207 74.6835 88.6936 73.6241C88.3665 72.5647 87.8178 71.587 87.084 70.7558C86.3502 69.9246 85.448 69.2589 84.4373 68.803C83.4266 68.3471 82.3306 68.1112 81.2218 68.1112C80.8387 68.1112 80.4713 68.2634 80.2004 68.5343C79.9295 68.8052 79.7773 69.1726 79.7773 69.5557C79.7773 69.9387 79.9295 70.3061 80.2004 70.577C80.4713 70.8479 80.8387 71.0001 81.2218 71.0001C81.921 70.9999 82.6122 71.1485 83.2496 71.436C83.887 71.7234 84.456 72.1431 84.9188 72.6672C85.3816 73.1914 85.7276 73.808 85.9338 74.4761C86.1401 75.1442 86.2019 75.8485 86.1151 76.5423L85.5664 80.9321C85.5408 81.1354 85.5587 81.3417 85.619 81.5375C85.6793 81.7333 85.7807 81.914 85.9162 82.0676C86.0518 82.2212 86.2186 82.3441 86.4053 82.4283C86.5921 82.5125 86.7947 82.5559 86.9996 82.5557C88.2801 82.557 89.5241 82.9832 90.5364 83.7674C91.5488 84.5516 92.2725 85.6494 92.594 86.889H82.6662C82.2831 86.889 81.9157 87.0412 81.6449 87.312C81.374 87.5829 81.2218 87.9503 81.2218 88.3334C81.2218 88.7165 81.374 89.0839 81.6449 89.3548C81.9157 89.6257 82.2831 89.7779 82.6662 89.7779H94.2218C94.4115 89.778 94.5994 89.7407 94.7747 89.6681C94.95 89.5956 95.1093 89.4892 95.2434 89.355C95.3776 89.2209 95.484 89.0616 95.5565 88.8863C95.6291 88.711 95.6663 88.5231 95.6662 88.3334C95.6635 86.3162 94.9584 84.3629 93.6722 82.8089C92.3859 81.2549 90.5987 80.1973 88.6175 79.8177Z" fill="#19D8C5"/>
</svg>
