<svg width="116" height="86" viewBox="0 0 116 86" fill="none" xmlns="http://www.w3.org/2000/svg">
<path d="M113.27 54.953L113.269 54.9529C109.283 54.6014 105.163 54.4222 101.021 54.4222C78.7071 54.4222 57.4151 59.7097 42.6115 68.9657C39.951 70.6284 37.5317 72.3969 35.421 74.224C33.0089 76.2975 30.9201 78.4984 29.2089 80.7715C28.3205 81.9436 27.529 83.1406 26.8528 84.3384L26.8527 84.3386C26.5485 84.878 25.9863 85.1825 25.4053 85.1825C25.1298 85.1825 24.8495 85.1136 24.5906 84.9681C23.7927 84.5173 23.5113 83.5052 23.962 82.7065C24.7096 81.3815 25.5837 80.0574 26.5601 78.7707L26.5614 78.769C28.4057 76.3173 30.6577 73.94 33.2518 71.7109L33.2532 71.7097C35.4829 69.7794 38.0407 67.9074 40.8515 66.1504L40.8515 66.1503C56.1256 56.6001 78.0557 51.1022 101.021 51.1022C105.261 51.1022 109.479 51.2858 113.561 51.6459C114.474 51.7271 115.149 52.5325 115.068 53.445L115.566 53.4892L115.068 53.4451C114.987 54.3587 114.167 55.0348 113.27 54.953Z" fill="#4B75F9" stroke="#F0F0F0"/>
<path d="M115.065 63.054L115.065 63.0539C115.167 62.1437 114.51 61.3227 113.598 61.2198C109.475 60.7607 105.243 60.5269 101.022 60.5269C79.3548 60.5269 59.3885 66.6237 47.5879 76.7622L47.5878 76.7623C45.4751 78.5761 43.6418 80.5157 42.1374 82.5281L42.1372 82.5283C41.5884 83.2619 41.7385 84.3028 42.4724 84.8518C42.7714 85.0749 43.1199 85.1825 43.4652 85.1825C43.9717 85.1825 44.4702 84.952 44.7959 84.5167C44.7959 84.5167 44.7959 84.5167 44.7959 84.5167L45.1963 84.8162C46.5364 83.0247 48.1782 81.2894 50.0767 79.6595L115.065 63.054ZM115.065 63.054C114.964 63.961 114.151 64.6117 113.228 64.5204M115.065 63.054L49.7508 79.2802C61.0332 69.5879 80.2111 63.8469 101.022 63.8469C105.12 63.8469 109.227 64.0727 113.228 64.5204M113.228 64.5204C113.229 64.5205 113.23 64.5206 113.231 64.5207L113.176 65.0176L113.226 64.5201C113.227 64.5202 113.228 64.5203 113.228 64.5204Z" fill="#4B75F9" stroke="#F0F0F0"/>
<path d="M113.675 70.9339L113.675 70.9339C109.592 70.2843 105.333 69.9543 101.021 69.9543C84.7835 69.9543 69.9801 74.5939 61.3879 82.2862L61.3874 82.2867C60.704 82.8967 60.6461 83.9455 61.2581 84.6289L61.2585 84.6293C61.5858 84.9955 62.0387 85.1825 62.4958 85.1825C62.8894 85.1825 63.2838 85.0434 63.6004 84.7591L63.601 84.7587C71.5513 77.6426 85.9014 73.2743 101.021 73.2743C105.157 73.2743 109.239 73.5898 113.154 74.2129L113.675 70.9339ZM113.675 70.9339C114.581 71.0776 115.198 71.9293 115.054 72.8338L115.054 72.8339M113.675 70.9339L115.054 72.8339M115.054 72.8339C114.911 73.7382 114.054 74.3554 113.154 74.2129L115.054 72.8339Z" fill="#4B75F9" stroke="#F0F0F0"/>
<path d="M85.488 85.5405C85.2349 85.6375 84.9747 85.6825 84.7188 85.6825C83.8483 85.6825 83.0285 85.1538 82.7008 84.2917C82.2761 83.1766 82.8344 81.9292 83.9496 81.5046C88.9966 79.5808 94.9001 78.5641 101.021 78.5641C105.55 78.5641 109.905 79.1083 113.967 80.1827C115.121 80.4878 115.808 81.6705 115.503 82.8236L85.488 85.5405ZM85.488 85.5405C90.0485 83.8024 95.4204 82.8841 101.021 82.8841M85.488 85.5405L101.021 82.8841M101.021 82.8841C105.177 82.8841 109.161 83.3805 112.862 84.3592L101.021 82.8841ZM84.1275 81.9718L84.1277 81.9718C89.1108 80.0724 94.9529 79.0641 101.021 79.0641C105.51 79.0641 109.822 79.6035 113.839 80.666C114.726 80.9005 115.254 81.8095 115.02 82.6957L115.02 82.6963C114.786 83.5834 113.881 84.1137 112.991 83.8762L112.99 83.8759C109.244 82.8852 105.216 82.3841 101.021 82.3841C95.3684 82.3841 89.9351 83.3105 85.31 85.0733L85.3091 85.0736C85.1151 85.148 84.9158 85.1825 84.7188 85.1825C84.0486 85.1825 83.4195 84.7752 83.1682 84.1141L83.1681 84.1138C82.8415 83.2563 83.2708 82.2981 84.1275 81.9718Z" fill="#4B75F9" stroke="#F0F0F0"/>
<mask id="path-5-inside-1_92_37" fill="white">
<path d="M27.4289 67.9187C29.5833 66.0737 31.9831 64.2822 34.5621 62.5933C43.7794 56.552 55.3845 51.7539 69.0504 48.324H113.415C114.607 48.324 115.575 47.3565 115.575 46.164C115.575 44.9715 114.607 44.004 113.415 44.004H97.0854V43.0801C100.228 43.0028 102.781 42.0212 104.674 40.1277C108.542 36.2598 107.966 30.1335 107.939 29.8747C107.883 29.32 107.615 28.8411 107.233 28.4952C106.901 28.1858 106.474 27.9728 105.988 27.9229C105.837 27.9081 103.709 27.7112 101.194 28.3004C101.218 28.0262 101.248 27.752 101.248 27.4729C101.248 22.0026 96.5075 18.0791 96.3064 17.9146C95.9056 17.5883 95.4232 17.4393 94.9437 17.4393C94.4529 17.4315 93.9565 17.5806 93.5473 17.9146C93.3462 18.0784 88.6043 22.0019 88.6043 27.4722C88.6043 27.7513 88.6339 28.0255 88.6578 28.3011C86.1434 27.7112 84.0143 27.9081 83.8639 27.9229C83.3984 27.9707 82.9864 28.1668 82.6601 28.4544C82.2537 28.8032 81.9725 29.2996 81.9134 29.8747C81.8867 30.1335 81.3101 36.2598 85.1787 40.1277C87.0715 42.0205 89.621 43.0028 92.7654 43.0801V44.004H61.347C62.5564 42.3236 63.2764 40.269 63.2764 38.0451C63.2764 37.0199 63.1203 36.0313 62.839 35.0968C63.1006 34.3572 63.244 33.5753 63.244 32.7857V25.7657C63.244 21.9477 60.1531 18.8413 56.3534 18.8413H54.6701V17.8829C56.1846 17.0961 57.2323 15.531 57.2323 13.7099V11.6076C57.2323 9.00388 55.1138 6.88537 52.5101 6.88537C49.9071 6.88537 47.7893 9.00388 47.7893 11.6076V13.7099C47.7893 15.5303 48.8363 17.0954 50.3501 17.8829V18.8413H44.2554C43.3062 0.837788 33.3359 0.330132 32.8367 0.316772H15.4962C14.303 0.316772 13.3362 1.28357 13.3362 2.47677V21.8394C10.2966 24.6259 8.37636 28.614 8.37636 33.0529C8.37636 37.3511 10.1735 41.2323 13.0465 44.004H2.58683C1.39363 44.004 0.42683 44.9715 0.42683 46.164C0.42683 47.3565 1.39363 48.324 2.58683 48.324H54.147C46.343 51.1183 39.3849 54.4468 33.3366 58.2733C24.8435 53.2684 14.7903 50.6022 4.13089 50.6022C3.59441 50.6022 3.06003 50.6078 2.52636 50.6233C1.33386 50.6556 0.393783 51.6484 0.426127 52.8409C0.459174 54.0334 1.47238 55.0248 2.64449 54.9404C12.0727 54.6915 21.5072 56.8403 29.3239 60.9606C28.0857 61.8522 26.8967 62.7634 25.7618 63.6915C19.3578 60.2842 11.9229 58.4687 4.13089 58.4687C3.59019 58.4687 3.0523 58.4772 2.51441 58.4954C1.32191 58.5348 0.387455 59.5333 0.42683 60.7243C0.465502 61.9168 1.44144 62.8829 2.65644 62.8126C9.61105 62.5989 16.406 63.9615 22.2778 66.7543C21.2295 67.7429 20.2346 68.747 19.3022 69.7637C14.7495 67.5208 9.54566 66.3325 4.13089 66.3325C3.57753 66.3325 3.03191 66.3479 2.4905 66.3704C1.29871 66.4239 0.374799 67.4322 0.427533 68.6247C0.480268 69.8158 1.48785 70.7495 2.68035 70.6876C3.15988 70.6651 3.64222 70.6525 4.13089 70.6525C8.498 70.6525 12.6879 71.5314 16.4117 73.1851C15.6256 74.2004 14.8859 75.2228 14.2158 76.2508C10.6953 74.5126 6.48425 73.6858 2.41949 73.9979C1.2298 74.0893 0.340346 75.1272 0.431752 76.3168C0.523158 77.5065 1.56308 78.4234 2.75136 78.3039C5.96956 78.0536 9.28058 78.685 12.0537 80.0026C11.5791 80.9364 11.1488 81.8575 10.8064 82.7462C10.3782 83.86 10.9329 85.1101 12.046 85.5376C12.3012 85.6361 12.5635 85.6825 12.8215 85.6825C13.6892 85.6825 14.5076 85.1565 14.8381 84.2987C15.1777 83.417 15.7993 81.9953 16.8357 80.2248C18.0809 78.0887 19.625 75.9484 21.4285 73.8601C23.1729 71.8323 25.1916 69.834 27.4289 67.9187ZM94.9254 22.6867C95.8578 23.83 96.9279 25.5449 96.9279 27.4722C96.9279 28.9642 96.2515 30.4351 94.9268 31.8618C93.6078 30.4408 92.9314 28.9761 92.9243 27.4911C92.9173 25.5526 93.9903 23.8314 94.9254 22.6867ZM97.1079 38.7573C97.1796 36.823 97.7309 35.3071 98.7757 34.2545C100.137 32.8806 102.127 32.4109 103.598 32.2618C103.447 33.7286 102.98 35.7114 101.619 37.0726C100.567 38.1259 99.0471 38.6842 97.1079 38.7573ZM88.2471 37.0867C86.8718 35.7226 86.4021 33.7335 86.2531 32.2626C87.7254 32.4123 89.7139 32.8813 91.0765 34.2545C92.1214 35.3071 92.6726 36.823 92.7443 38.7573C90.8149 38.6842 89.299 38.1308 88.2471 37.0867ZM52.1093 11.6076C52.1093 11.3861 52.2893 11.2054 52.5101 11.2054C52.7316 11.2054 52.9123 11.3861 52.9123 11.6076V13.7099C52.913 14.1515 52.1093 14.1529 52.1093 13.7099V11.6076ZM58.9564 38.0451C58.9564 41.309 56.3007 43.9647 53.036 43.9647C49.7714 43.9647 47.1157 41.309 47.1157 38.0451C47.1157 34.7811 49.7714 32.1261 53.036 32.1261C56.3007 32.1261 58.9564 34.7811 58.9564 38.0451ZM58.924 25.7657V29.6814C57.2562 28.5043 55.2284 27.8061 53.036 27.8061C48.3075 27.8061 44.3285 31.0314 43.1564 35.3943H38.641C38.7598 34.6286 38.84 33.8509 38.84 33.0529C38.84 29.2771 37.4506 25.8254 35.1675 23.1613H56.3534C57.7709 23.1613 58.924 24.3299 58.924 25.7657ZM38.2451 10.1704H28.5012C27.5196 10.1704 26.7209 9.37091 26.7209 8.38865V4.63466L32.7263 4.63396C32.9239 4.64873 36.1533 4.9806 38.2451 10.1704ZM17.6562 4.63607L22.4009 4.63537V8.38865C22.4009 11.7531 25.1375 14.4904 28.5012 14.4904H39.4397C39.6682 15.7665 39.8356 17.2136 39.9277 18.8413H29.0419C27.3516 18.1923 25.5242 17.8218 23.6075 17.8218C21.4967 17.8218 19.4857 18.2549 17.6562 19.0347V4.63607ZM12.6964 33.0529C12.6964 29.6842 14.232 26.6692 16.6381 24.6667C16.7499 24.5964 16.8532 24.5162 16.9496 24.4276C18.7946 23.0003 21.1001 22.1418 23.6075 22.1418C29.6248 22.1418 34.52 27.0362 34.52 33.0529C34.52 39.0695 29.6248 43.9647 23.6075 43.9647C17.5908 43.9647 12.6964 39.0695 12.6964 33.0529ZM37.2846 39.7143H42.9441C43.205 41.2956 43.8258 42.7539 44.7251 44.004H34.1691C35.4446 42.7736 36.4985 41.3223 37.2846 39.7143Z"/>
</mask>
<path d="M27.4289 67.9187C29.5833 66.0737 31.9831 64.2822 34.5621 62.5933C43.7794 56.552 55.3845 51.7539 69.0504 48.324H113.415C114.607 48.324 115.575 47.3565 115.575 46.164C115.575 44.9715 114.607 44.004 113.415 44.004H97.0854V43.0801C100.228 43.0028 102.781 42.0212 104.674 40.1277C108.542 36.2598 107.966 30.1335 107.939 29.8747C107.883 29.32 107.615 28.8411 107.233 28.4952C106.901 28.1858 106.474 27.9728 105.988 27.9229C105.837 27.9081 103.709 27.7112 101.194 28.3004C101.218 28.0262 101.248 27.752 101.248 27.4729C101.248 22.0026 96.5075 18.0791 96.3064 17.9146C95.9056 17.5883 95.4232 17.4393 94.9437 17.4393C94.4529 17.4315 93.9565 17.5806 93.5473 17.9146C93.3462 18.0784 88.6043 22.0019 88.6043 27.4722C88.6043 27.7513 88.6339 28.0255 88.6578 28.3011C86.1434 27.7112 84.0143 27.9081 83.8639 27.9229C83.3984 27.9707 82.9864 28.1668 82.6601 28.4544C82.2537 28.8032 81.9725 29.2996 81.9134 29.8747C81.8867 30.1335 81.3101 36.2598 85.1787 40.1277C87.0715 42.0205 89.621 43.0028 92.7654 43.0801V44.004H61.347C62.5564 42.3236 63.2764 40.269 63.2764 38.0451C63.2764 37.0199 63.1203 36.0313 62.839 35.0968C63.1006 34.3572 63.244 33.5753 63.244 32.7857V25.7657C63.244 21.9477 60.1531 18.8413 56.3534 18.8413H54.6701V17.8829C56.1846 17.0961 57.2323 15.531 57.2323 13.7099V11.6076C57.2323 9.00388 55.1138 6.88537 52.5101 6.88537C49.9071 6.88537 47.7893 9.00388 47.7893 11.6076V13.7099C47.7893 15.5303 48.8363 17.0954 50.3501 17.8829V18.8413H44.2554C43.3062 0.837788 33.3359 0.330132 32.8367 0.316772H15.4962C14.303 0.316772 13.3362 1.28357 13.3362 2.47677V21.8394C10.2966 24.6259 8.37636 28.614 8.37636 33.0529C8.37636 37.3511 10.1735 41.2323 13.0465 44.004H2.58683C1.39363 44.004 0.42683 44.9715 0.42683 46.164C0.42683 47.3565 1.39363 48.324 2.58683 48.324H54.147C46.343 51.1183 39.3849 54.4468 33.3366 58.2733C24.8435 53.2684 14.7903 50.6022 4.13089 50.6022C3.59441 50.6022 3.06003 50.6078 2.52636 50.6233C1.33386 50.6556 0.393783 51.6484 0.426127 52.8409C0.459174 54.0334 1.47238 55.0248 2.64449 54.9404C12.0727 54.6915 21.5072 56.8403 29.3239 60.9606C28.0857 61.8522 26.8967 62.7634 25.7618 63.6915C19.3578 60.2842 11.9229 58.4687 4.13089 58.4687C3.59019 58.4687 3.0523 58.4772 2.51441 58.4954C1.32191 58.5348 0.387455 59.5333 0.42683 60.7243C0.465502 61.9168 1.44144 62.8829 2.65644 62.8126C9.61105 62.5989 16.406 63.9615 22.2778 66.7543C21.2295 67.7429 20.2346 68.747 19.3022 69.7637C14.7495 67.5208 9.54566 66.3325 4.13089 66.3325C3.57753 66.3325 3.03191 66.3479 2.4905 66.3704C1.29871 66.4239 0.374799 67.4322 0.427533 68.6247C0.480268 69.8158 1.48785 70.7495 2.68035 70.6876C3.15988 70.6651 3.64222 70.6525 4.13089 70.6525C8.498 70.6525 12.6879 71.5314 16.4117 73.1851C15.6256 74.2004 14.8859 75.2228 14.2158 76.2508C10.6953 74.5126 6.48425 73.6858 2.41949 73.9979C1.2298 74.0893 0.340346 75.1272 0.431752 76.3168C0.523158 77.5065 1.56308 78.4234 2.75136 78.3039C5.96956 78.0536 9.28058 78.685 12.0537 80.0026C11.5791 80.9364 11.1488 81.8575 10.8064 82.7462C10.3782 83.86 10.9329 85.1101 12.046 85.5376C12.3012 85.6361 12.5635 85.6825 12.8215 85.6825C13.6892 85.6825 14.5076 85.1565 14.8381 84.2987C15.1777 83.417 15.7993 81.9953 16.8357 80.2248C18.0809 78.0887 19.625 75.9484 21.4285 73.8601C23.1729 71.8323 25.1916 69.834 27.4289 67.9187ZM94.9254 22.6867C95.8578 23.83 96.9279 25.5449 96.9279 27.4722C96.9279 28.9642 96.2515 30.4351 94.9268 31.8618C93.6078 30.4408 92.9314 28.9761 92.9243 27.4911C92.9173 25.5526 93.9903 23.8314 94.9254 22.6867ZM97.1079 38.7573C97.1796 36.823 97.7309 35.3071 98.7757 34.2545C100.137 32.8806 102.127 32.4109 103.598 32.2618C103.447 33.7286 102.98 35.7114 101.619 37.0726C100.567 38.1259 99.0471 38.6842 97.1079 38.7573ZM88.2471 37.0867C86.8718 35.7226 86.4021 33.7335 86.2531 32.2626C87.7254 32.4123 89.7139 32.8813 91.0765 34.2545C92.1214 35.3071 92.6726 36.823 92.7443 38.7573C90.8149 38.6842 89.299 38.1308 88.2471 37.0867ZM52.1093 11.6076C52.1093 11.3861 52.2893 11.2054 52.5101 11.2054C52.7316 11.2054 52.9123 11.3861 52.9123 11.6076V13.7099C52.913 14.1515 52.1093 14.1529 52.1093 13.7099V11.6076ZM58.9564 38.0451C58.9564 41.309 56.3007 43.9647 53.036 43.9647C49.7714 43.9647 47.1157 41.309 47.1157 38.0451C47.1157 34.7811 49.7714 32.1261 53.036 32.1261C56.3007 32.1261 58.9564 34.7811 58.9564 38.0451ZM58.924 25.7657V29.6814C57.2562 28.5043 55.2284 27.8061 53.036 27.8061C48.3075 27.8061 44.3285 31.0314 43.1564 35.3943H38.641C38.7598 34.6286 38.84 33.8509 38.84 33.0529C38.84 29.2771 37.4506 25.8254 35.1675 23.1613H56.3534C57.7709 23.1613 58.924 24.3299 58.924 25.7657ZM38.2451 10.1704H28.5012C27.5196 10.1704 26.7209 9.37091 26.7209 8.38865V4.63466L32.7263 4.63396C32.9239 4.64873 36.1533 4.9806 38.2451 10.1704ZM17.6562 4.63607L22.4009 4.63537V8.38865C22.4009 11.7531 25.1375 14.4904 28.5012 14.4904H39.4397C39.6682 15.7665 39.8356 17.2136 39.9277 18.8413H29.0419C27.3516 18.1923 25.5242 17.8218 23.6075 17.8218C21.4967 17.8218 19.4857 18.2549 17.6562 19.0347V4.63607ZM12.6964 33.0529C12.6964 29.6842 14.232 26.6692 16.6381 24.6667C16.7499 24.5964 16.8532 24.5162 16.9496 24.4276C18.7946 23.0003 21.1001 22.1418 23.6075 22.1418C29.6248 22.1418 34.52 27.0362 34.52 33.0529C34.52 39.0695 29.6248 43.9647 23.6075 43.9647C17.5908 43.9647 12.6964 39.0695 12.6964 33.0529ZM37.2846 39.7143H42.9441C43.205 41.2956 43.8258 42.7539 44.7251 44.004H34.1691C35.4446 42.7736 36.4985 41.3223 37.2846 39.7143Z" fill="#4B75F9" stroke="#F0F0F0" stroke-width="2" mask="url(#path-5-inside-1_92_37)"/>
<path d="M54.696 38.0457C54.696 38.9625 53.9528 39.7057 53.036 39.7057C52.1192 39.7057 51.376 38.9625 51.376 38.0457C51.376 37.1289 52.1192 36.3857 53.036 36.3857C53.9528 36.3857 54.696 37.1289 54.696 38.0457Z" fill="#4B75F9" stroke="#F0F0F0"/>
<path d="M29.943 33.0528C29.943 36.5469 27.1005 39.39 23.6073 39.39C20.1141 39.39 17.2715 36.5469 17.2715 33.0528C17.2715 29.5595 20.114 26.717 23.6073 26.717C27.1006 26.717 29.943 29.5595 29.943 33.0528ZM26.623 33.0528C26.623 31.3894 25.2707 30.037 23.6073 30.037C21.9439 30.037 20.5915 31.3894 20.5915 33.0528C20.5915 34.7167 21.9436 36.07 23.6073 36.07C25.2709 36.07 26.623 34.7167 26.623 33.0528Z" fill="#4B75F9" stroke="#F0F0F0"/>
</svg>
