<svg width="96" height="112" viewBox="0 0 96 112" fill="none" xmlns="http://www.w3.org/2000/svg">
<path d="M95.1921 83.9235C94.3609 81.8509 92.4888 80.0224 90.2381 79.7606C92.6939 76.5798 94.1581 72.8661 94.4812 68.7752C95.2675 58.8143 89.7229 47.303 78.0007 34.5586C77.5833 34.1059 77.1683 33.6497 76.7545 33.1934C75.4247 31.728 74.0594 30.2401 72.6329 28.8902C73.813 28.0461 74.5853 26.7457 74.5853 25.2721C74.5853 23.1358 72.9807 21.3509 70.8221 20.8321C74.8069 12.4392 77.2461 6.18607 75.0014 2.58439C74.0335 1.03054 72.3405 0.234748 69.972 0.219421C69.9178 0.219421 69.8659 0.219421 69.8129 0.219421C65.6748 0.219421 62.1592 1.29108 59.3273 3.38372C56.3434 2.29319 53.3347 1.73083 50.1728 1.69311C47.8361 1.64831 46.142 2.36628 45.2684 3.77866C43.3431 6.89108 46.1031 12.2553 49.298 18.466C49.7342 19.3148 50.1728 20.1743 50.6055 21.0337C48.8064 21.7364 47.5414 23.3716 47.5414 25.2721C47.5414 26.629 48.1957 27.8374 49.2178 28.6816C46.9448 30.5007 44.9253 32.6334 43.184 34.5751C27.8895 51.671 27.2281 64.3306 29.8973 72.3922C29.4339 72.5384 28.9789 72.7459 28.5415 73.0218L20.9856 77.7741H18.2999V75.6791C18.2999 74.8338 17.615 74.1477 16.7685 74.1477H1.85128C1.00479 74.1477 0.319824 74.8338 0.319824 75.6791V106.069C0.319824 106.914 1.00479 107.6 1.85128 107.6H16.7685C17.615 107.6 18.2999 106.914 18.2999 106.069V103.974H21.4678L42.703 111.173C43.8996 111.577 45.0161 111.78 46.0642 111.78C47.4494 111.78 48.7133 111.425 49.8792 110.714L93.0629 90.5457C95.4715 89.4186 96.3274 86.7577 95.1921 83.9235ZM47.8762 5.38793C48.2287 4.81614 49.4784 4.74068 50.1386 4.75365C55.2941 4.81496 60.0335 6.40536 65.0511 9.76064C65.7549 10.2299 66.704 10.0424 67.1756 9.33858C67.6448 8.63593 67.4562 7.68452 66.7535 7.21412C65.3989 6.30868 64.0608 5.52351 62.7274 4.84797C64.7234 3.80224 67.0589 3.28115 69.8082 3.28115C69.8565 3.28115 69.9048 3.28115 69.9532 3.28115C71.8371 3.29412 72.2639 3.97791 72.403 4.20308C74.0382 6.82624 70.2904 14.8891 67.5116 20.6635H53.844C53.2498 19.4598 52.6356 18.2514 52.0237 17.063C49.7248 12.5925 46.8623 7.02784 47.8762 5.38675V5.38793ZM52.5755 23.7276H52.8903C52.8903 23.7276 52.8926 23.7276 52.8938 23.7276C52.895 23.7276 52.8973 23.7276 52.8985 23.7276H68.4653C68.4653 23.7276 68.4689 23.7276 68.4701 23.7276C68.4712 23.7276 68.4724 23.7276 68.4736 23.7276H69.5523C70.6193 23.7276 71.5212 24.435 71.5212 25.2721C71.5212 26.1091 70.6193 26.8188 69.5523 26.8188H52.5731C51.5062 26.8188 50.6043 26.1103 50.6043 25.2721C50.6043 24.4338 51.5062 23.7276 52.5731 23.7276H52.5755ZM45.4676 36.6182C47.5331 34.3134 50.0054 31.7374 52.7582 29.8806H69.1326C70.96 31.3849 72.6801 33.2594 74.4886 35.2518C74.9059 35.7116 75.3256 36.1738 75.7465 36.6324C86.7119 48.5527 92.1339 59.5841 91.4277 68.5335C91.028 73.5912 88.7314 77.8366 84.6181 81.1636L65.2162 87.7079C65.248 87.4155 65.2657 87.1196 65.2657 86.8202C65.2657 83.6028 63.2721 80.3442 59.4617 80.3442H49.8568L33.888 72.7023C33.6557 72.5915 33.4211 72.4995 33.1853 72.4217C29.263 62.3723 33.4836 50.0146 45.4676 36.6182ZM15.2394 104.536H3.38391V77.2082H15.2394V104.536ZM91.7672 87.7692L48.5034 107.975C48.4468 108.001 48.3914 108.032 48.3372 108.065C47.0616 108.864 45.6268 108.927 43.6862 108.27L22.2129 100.99C22.0537 100.937 21.8887 100.909 21.7213 100.909H18.3023V80.8335H21.4289C21.7177 80.8335 21.9995 80.7521 22.2435 80.5989L30.1755 75.6119C30.9583 75.1191 31.74 75.072 32.5676 75.4646L48.8477 83.255C49.054 83.3541 49.2791 83.4048 49.509 83.4048H59.4617C61.6251 83.4048 62.2028 85.5505 62.2028 86.819C62.2028 87.7598 61.9304 88.6523 61.4541 89.2677C60.9661 89.9008 60.3141 90.2085 59.4617 90.2085H40.5467C39.7002 90.2085 39.0152 90.8946 39.0152 91.7399C39.0152 92.5852 39.7002 93.2714 40.5467 93.2714H59.4617C61.0922 93.2714 62.54 92.6418 63.5869 91.4888L85.8831 83.9683C85.8831 83.9683 85.8843 83.9683 85.8855 83.9683L89.0851 82.8896C90.461 82.4298 91.7896 83.6653 92.3496 85.0624C92.543 85.5434 93.0688 87.1609 91.7672 87.7692ZM9.31166 78.7644C6.8677 78.7644 4.87881 80.7545 4.87881 83.2008C4.87881 85.6471 6.8677 87.6395 9.31166 87.6395C11.7556 87.6395 13.7457 85.6483 13.7457 83.2008C13.7457 80.7533 11.7556 78.7644 9.31166 78.7644ZM9.31166 84.5766C8.55595 84.5766 7.94172 83.9601 7.94172 83.2008C7.94172 82.4416 8.55595 81.8262 9.31166 81.8262C10.0674 81.8262 10.6828 82.4427 10.6828 83.2008C10.6828 83.9589 10.0685 84.5766 9.31166 84.5766ZM54.7506 57.1414C55.5948 57.1414 56.5096 57.0353 57.4587 56.8761L59.3804 59.1809V61.1604C55.1869 61.8218 51.8728 65.1382 51.2126 69.3364H49.087C48.2405 69.3364 47.5555 70.0225 47.5555 70.8678C47.5555 71.7131 48.2405 72.3993 49.087 72.3993H72.7237C73.5702 72.3993 74.2551 71.7131 74.2551 70.8678C74.2551 70.0225 73.5702 69.3364 72.7237 69.3364H70.5969C69.9378 65.1393 66.6297 61.8218 62.4421 61.1604V59.1774L64.3544 56.8749C65.3034 57.0341 66.2171 57.1402 67.0612 57.1402C69.4934 57.1402 71.487 56.48 73.0102 55.1643C75.3103 53.1789 76.3266 49.905 76.033 45.4344C76 44.9204 75.7112 44.4582 75.2631 44.2048C74.8175 43.9501 74.2693 43.9371 73.813 44.1694C71.1309 45.5311 69.0961 46.1972 67.4609 46.7336C63.2379 48.1189 61.8149 49.0986 62.1698 54.7127L60.9095 56.23L59.6421 54.7092C59.9958 49.0974 58.574 48.1177 54.3545 46.7324C52.7217 46.196 50.6903 45.5299 48.0118 44.1682C47.552 43.9348 47.0061 43.9478 46.5617 44.2012C46.1149 44.4547 45.8248 44.9169 45.7906 45.4297C45.4888 49.8991 46.5016 53.173 48.7993 55.1595C50.3225 56.4764 52.3149 57.1378 54.7506 57.1378V57.1414ZM67.4939 69.3364H54.3191C55.0147 66.3348 57.7063 64.0912 60.913 64.0912C64.1197 64.0912 66.7995 66.3348 67.4939 69.3364ZM68.417 49.6444C69.6136 49.2518 71.1309 48.7555 72.9831 47.9467C72.8522 49.7977 72.3441 51.6958 71.0107 52.8465C69.728 53.9535 67.7686 54.3154 65.1761 53.9287C64.9603 50.7774 65.3234 50.6583 68.417 49.6444ZM53.4019 49.6444C56.4908 50.6583 56.8539 50.7774 56.6381 53.9287C54.0515 54.3166 52.0862 53.9547 50.8035 52.8453C49.4713 51.6934 48.9679 49.7965 48.8394 47.9456C50.6904 48.7543 52.2065 49.253 53.4019 49.6444Z" fill="#F4317B"/>
</svg>
