<svg width="88" height="102" viewBox="0 0 88 102" fill="none" xmlns="http://www.w3.org/2000/svg">
<path d="M18.6247 31.75C20.1981 31.7498 21.7255 31.2196 22.9606 30.2449C24.1957 29.2701 25.0664 27.9077 25.4322 26.3775C26.8148 26.1604 28.1409 25.6728 29.3347 24.9425C31.3748 27.2626 34.0867 28.89 37.0939 29.5986C40.1011 30.3072 43.2543 30.0618 46.1156 28.8966C48.977 27.7314 51.4046 25.7041 53.0612 23.0963C54.7179 20.4885 55.5214 17.4296 55.3603 14.3442C55.1991 11.2589 54.0813 8.30031 52.1619 5.87928C50.2426 3.45824 47.6171 1.6949 44.6499 0.834119C41.6827 -0.0266662 38.5211 0.0578164 35.6041 1.07584C32.6871 2.09386 30.1595 3.99489 28.3722 6.51498C26.772 5.75645 25.006 5.41497 23.2384 5.52229C21.4708 5.62962 19.759 6.18226 18.2623 7.12881C16.7657 8.07536 15.5327 9.38507 14.6782 10.9361C13.8236 12.4871 13.3752 14.2291 13.3747 16C13.3786 17.1945 13.5918 18.3791 14.0047 19.5C12.939 20.4399 12.1845 21.6819 11.8416 23.0609C11.4987 24.4399 11.5836 25.8906 12.0851 27.2201C12.5865 28.5497 13.4807 29.6952 14.6489 30.5043C15.817 31.3135 17.2037 31.7479 18.6247 31.75ZM17.0147 21.67C17.2186 21.5628 17.3992 21.4164 17.5464 21.2392C17.6935 21.062 17.8043 20.8575 17.8722 20.6375C17.9422 20.416 17.9675 20.1828 17.9465 19.9514C17.9254 19.7201 17.8585 19.4952 17.7497 19.29C17.1862 18.2843 16.8853 17.1527 16.8747 16C16.8774 14.716 17.2333 13.4575 17.9033 12.3621C18.5733 11.2668 19.5316 10.3768 20.6735 9.78965C21.8153 9.20245 23.0967 8.94064 24.3774 9.03285C25.6581 9.12507 26.8887 9.56775 27.9347 10.3125C28.1353 10.4549 28.3636 10.5535 28.6049 10.6017C28.8461 10.65 29.0948 10.6468 29.3347 10.5925C29.5786 10.5376 29.8078 10.4311 30.007 10.2801C30.2063 10.1292 30.3708 9.93734 30.4897 9.71747C31.6684 7.53381 33.5288 5.79549 35.7874 4.76752C38.0459 3.73954 40.5786 3.47832 42.9994 4.02367C45.4202 4.56902 47.5963 5.89103 49.1959 7.78815C50.7955 9.68526 51.7308 12.0534 51.8593 14.5316C51.9878 17.0097 51.3024 19.4619 49.9076 21.5143C48.5128 23.5666 46.4852 25.1066 44.1337 25.8994C41.7823 26.6922 39.2361 26.6943 36.8834 25.9055C34.5307 25.1166 32.5004 23.58 31.1022 21.53C30.9629 21.325 30.7817 21.1518 30.5705 21.0221C30.3594 20.8924 30.123 20.809 29.8772 20.7775C29.6289 20.7474 29.377 20.7708 29.1385 20.8463C28.9 20.9218 28.6805 21.0475 28.4947 21.215C27.2186 22.3404 25.5762 22.9625 23.8747 22.965C23.4106 22.965 22.9655 23.1494 22.6373 23.4775C22.3091 23.8057 22.1247 24.2508 22.1247 24.715C22.1247 25.6432 21.756 26.5335 21.0996 27.1898C20.4432 27.8462 19.553 28.215 18.6247 28.215C17.6965 28.215 16.8062 27.8462 16.1498 27.1898C15.4935 26.5335 15.1247 25.6432 15.1247 24.715C15.1361 24.0842 15.3177 23.4682 15.6504 22.9322C15.9831 22.3962 16.4545 21.9601 17.0147 21.67Z" fill="#8B38C1"/>
<path d="M86 98.25H84.25V79C84.25 78.5359 84.0656 78.0908 83.7374 77.7626C83.4092 77.4344 82.9641 77.25 82.5 77.25C82.0359 77.25 81.5908 77.4344 81.2626 77.7626C80.9344 78.0908 80.75 78.5359 80.75 79V98.25H77.25V56.25C77.2491 55.9517 77.172 55.6586 77.0259 55.3985C76.8798 55.1383 76.6697 54.9199 76.4155 54.7638C76.1612 54.6078 75.8713 54.5193 75.5732 54.5068C75.2752 54.4943 74.9789 54.5583 74.7125 54.6925L52.75 65.665V56.25C52.7491 55.9517 52.672 55.6586 52.5259 55.3985C52.3798 55.1383 52.1697 54.9199 51.9155 54.7638C51.6612 54.6078 51.3713 54.5193 51.0733 54.5068C50.7752 54.4943 50.4789 54.5583 50.2125 54.6925L28.25 65.665V51H30C30.4641 51 30.9093 50.8156 31.2374 50.4874C31.5656 50.1592 31.75 49.7141 31.75 49.25V37C31.75 36.5359 31.5656 36.0908 31.2374 35.7626C30.9093 35.4344 30.4641 35.25 30 35.25H2C1.53587 35.25 1.09075 35.4344 0.762563 35.7626C0.434375 36.0908 0.25 36.5359 0.25 37V49.25C0.25 49.7141 0.434375 50.1592 0.762563 50.4874C1.09075 50.8156 1.53587 51 2 51H3.75V98.25H2C1.53587 98.25 1.09075 98.4344 0.762563 98.7626C0.434375 99.0908 0.25 99.5359 0.25 100C0.25 100.464 0.434375 100.909 0.762563 101.237C1.09075 101.566 1.53587 101.75 2 101.75H86C86.4641 101.75 86.9092 101.566 87.2374 101.237C87.5656 100.909 87.75 100.464 87.75 100C87.75 99.5359 87.5656 99.0908 87.2374 98.7626C86.9092 98.4344 86.4641 98.25 86 98.25ZM3.75 38.75H28.25V47.5H3.75V38.75ZM7.25 51H24.75V98.25H7.25V51ZM28.25 98.25V69.585L49.25 59.085V68.5C49.2509 68.7983 49.328 69.0914 49.4741 69.3515C49.6202 69.6117 49.8303 69.8301 50.0845 69.9862C50.3388 70.1422 50.6287 70.2307 50.9267 70.2432C51.2248 70.2557 51.5211 70.1917 51.7875 70.0575L73.75 59.085V98.25H28.25Z" fill="#8B38C1"/>
<path d="M63.6873 71.9999C63.3142 71.9752 62.943 72.0706 62.6281 72.2721C62.3131 72.4737 62.071 72.7708 61.9373 73.1199C61.7442 73.5235 61.4548 73.8734 61.0948 74.1389C60.7347 74.4044 60.3149 74.5773 59.8723 74.6424C59.1418 74.7447 58.4047 74.7915 57.6673 74.7824C56.9738 74.7385 56.2782 74.7385 55.5848 74.7824C52.8993 75.0521 50.3805 76.2099 48.4273 78.0724C47.5184 78.8469 46.803 79.8229 46.3381 80.9228C45.8732 82.0226 45.6718 83.2159 45.7498 84.4074C45.8933 85.667 46.3506 86.8704 47.0798 87.9074H46.8873C44.4022 88.5364 41.7714 88.2052 39.5198 86.9799C39.1153 86.7601 38.6406 86.7085 38.1984 86.8363C37.7562 86.964 37.3822 87.2608 37.1573 87.6624C37.0457 87.8635 36.9749 88.0846 36.9488 88.313C36.9227 88.5415 36.9419 88.7728 37.0053 88.9939C37.0687 89.2149 37.175 89.4213 37.3182 89.6012C37.4614 89.7811 37.6386 89.931 37.8398 90.0424C39.8452 91.1687 42.1024 91.7706 44.4023 91.7924C45.5642 91.7601 46.7171 91.5778 47.8323 91.2499C48.504 91.0719 49.1597 90.8377 49.7923 90.5499C51.1402 91.4478 52.7227 91.9286 54.3423 91.9324H54.7273C57.0469 91.784 59.2457 90.8452 60.9573 89.2724C62.5619 87.7876 63.7966 85.9477 64.5623 83.8999C65.8811 80.5095 66.1315 76.7968 65.2798 73.2599C65.1783 72.9104 64.9704 72.6012 64.685 72.3753C64.3995 72.1495 64.0508 72.0183 63.6873 71.9999ZM61.3073 82.6924C60.7344 84.2263 59.8186 85.609 58.6298 86.7349C57.5125 87.7595 56.0817 88.3762 54.5698 88.4849C54.1579 88.4971 53.7461 88.4559 53.3448 88.3624C54.3423 87.4994 55.2037 86.4905 55.8998 85.3699C56.0416 85.176 56.142 84.9549 56.1947 84.7204C56.2474 84.4859 56.2512 84.2431 56.2059 84.0071C56.1606 83.7711 56.0672 83.5469 55.9315 83.3486C55.7958 83.1503 55.6207 82.982 55.4171 82.8543C55.2135 82.7266 54.9858 82.6422 54.7482 82.6064C54.5106 82.5706 54.2681 82.584 54.0359 82.646C53.8037 82.708 53.5868 82.8171 53.3986 82.9666C53.2105 83.1161 53.0551 83.3028 52.9423 83.5149C52.2611 84.6127 51.3689 85.5644 50.3173 86.3149C49.7634 85.6596 49.3949 84.8681 49.2498 84.0224C49.2667 83.3914 49.4211 82.7717 49.7022 82.2065C49.9833 81.6413 50.3843 81.1442 50.8773 80.7499C52.2642 79.433 54.0494 78.6143 55.9523 78.4224C56.5351 78.3882 57.1194 78.3882 57.7023 78.4224C58.6212 78.4322 59.5395 78.3737 60.4498 78.2474C61.0564 78.1256 61.6446 77.9256 62.1998 77.6524C62.2022 79.372 61.9 81.0783 61.3073 82.6924Z" fill="#8B38C1"/>
</svg>
