<svg width="175" height="149" viewBox="0 0 175 149" fill="none" xmlns="http://www.w3.org/2000/svg">
<g clip-path="url(#clip0_42_88)">
<path d="M59.3229 141.939V146.48C59.3229 146.48 59.3229 146.529 59.3229 146.578C59.3229 146.578 59.3229 146.628 59.3229 146.677C59.3229 147.812 60.3124 148.701 61.4504 148.701C61.4504 148.701 61.4504 148.701 61.4999 148.701H115.034C116.221 148.701 117.161 147.714 117.161 146.578V141.446C147.293 131.575 169.904 107.244 174.852 77.5336C174.852 77.4842 174.852 77.3855 174.852 77.3362C174.852 77.2375 174.852 77.1388 174.852 77.0401C174.852 75.8556 173.912 74.8685 172.675 74.8685H2.17699C0.989539 74.8685 0 75.8556 0 77.0401L0.0989539 78.0271C5.29403 108.034 28.4987 132.513 59.2734 141.989" fill="#D2A02A"/>
<path d="M117.211 2.22088C116.518 3.20794 99.9929 26.8974 117.557 46.0464C125.622 54.8312 124.929 62.5796 122.604 67.8111H133.885C136.161 60.0626 135.221 50.3894 126.067 40.4201C113.154 26.3052 126.216 7.25489 126.414 6.95877C127.947 4.78724 127.156 1.97412 124.583 0.690939C122.01 -0.592239 118.695 0.098703 117.161 2.22088" fill="#D2A02A"/>
<path d="M88.6627 67.8111H99.9434C102.219 60.0626 101.279 50.3895 92.126 40.4201C79.1631 26.3052 92.2745 7.25491 92.4724 6.90944C94.0062 4.7379 93.2145 1.92478 90.6417 0.641603C88.1184 -0.641576 84.8035 0.0493662 83.2202 2.2209C82.5275 3.20796 66.0022 26.8974 83.5665 46.0464C91.6313 54.8312 90.9386 62.5796 88.6132 67.8111" fill="#D2A02A"/>
<path d="M49.279 2.2209C48.5864 3.20796 32.061 26.8974 49.6254 46.0464C57.6901 54.8312 56.9974 62.5796 54.7215 67.8111H66.0022C68.2782 60.0626 67.3381 50.3895 58.1849 40.4201C45.2219 26.3052 58.3333 7.25491 58.5807 6.95879C60.1145 4.78726 59.3229 1.97413 56.7501 0.690954C54.2267 -0.641578 50.8623 0.0987177 49.3285 2.2209" fill="#D2A02A"/>
</g>
<defs>
<clipPath id="clip0_42_88">
<rect width="175" height="148.75" fill="white"/>
</clipPath>
</defs>
</svg>
