<svg width="142" height="150" viewBox="0 0 142 150" fill="none" xmlns="http://www.w3.org/2000/svg">
<g clip-path="url(#clip0_42_93)">
<path d="M128.233 35.4885L98.2496 64.0317C97.1062 65.1751 96.5557 65.9797 96.5557 68.3089V148.306C96.5557 149.238 97.318 150 98.2496 150H129.249C130.181 150 130.943 149.238 130.943 148.306V36.2084C130.943 35.2767 130.223 33.5404 128.233 35.4885Z" fill="#901839"/>
<path d="M41.8407 72.6708L11.8153 101.214C10.6719 102.357 10.1213 103.162 10.1213 105.491V148.306C10.1213 149.238 10.8836 150 11.8153 150H42.8147C43.7464 150 44.5087 149.238 44.5087 148.306V73.3908C44.5087 72.4591 43.7464 70.7228 41.7984 72.6708" fill="#901839"/>
<path d="M141.869 0.889328C141.869 0.677583 141.784 0.42349 141.615 0.254094C141.446 0.0846979 141.276 0.042349 141.064 0H140.895H140.641L117.688 5.16657H117.264C117.264 5.16657 116.968 5.33597 116.841 5.46302C116.502 5.80181 116.502 6.35234 116.841 6.69114L117.095 6.94523L122.346 12.1965L70.2993 64.2434L46.2451 40.1892C45.991 39.9351 45.5252 39.9351 45.2711 40.1892L38.7494 46.7109L0.211811 85.2908C-0.0422832 85.5872 -0.0422832 86.0107 0.211811 86.2648L6.73355 92.7866C6.98764 93.0407 7.45348 93.0407 7.70758 92.7866L45.7793 54.7572L63.2271 72.205C63.2271 72.205 63.2271 72.2473 63.2694 72.2897L69.7912 78.8114C70.0452 79.1079 70.5111 79.1079 70.7652 78.8114L129.842 19.7346L135.347 25.24C135.686 25.5788 136.237 25.5788 136.575 25.24C136.745 25.0706 136.83 24.8588 136.83 24.6894V24.6047L141.869 1.14342V0.889328Z" fill="#901839"/>
<path d="M85.2061 77.668L70.6804 92.3207C70.4263 92.5324 70.0028 92.5324 69.7487 92.3207L56.6206 78.9384C54.2067 76.5245 53.6985 78.4726 53.6985 79.4043V148.348C53.6985 149.28 54.4608 150.042 55.3924 150.042H86.3919C87.3236 150.042 88.0858 149.28 88.0858 148.348V78.2608C88.0858 77.3292 87.3236 75.5929 85.2061 77.7103" fill="#901839"/>
</g>
<defs>
<clipPath id="clip0_42_93">
<rect width="141.869" height="150" fill="white"/>
</clipPath>
</defs>
</svg>
