<svg width="174" height="175" viewBox="0 0 174 175" fill="none" xmlns="http://www.w3.org/2000/svg">
<g clip-path="url(#clip0_42_98)">
<path d="M167.706 146.413L131.287 167.413V125.364L167.706 104.364V146.413ZM47.4825 167.413V128.594L81.1119 148.028L47.4825 167.462V167.413ZM41.951 167.413L5.53147 146.413V104.364L41.951 125.364V167.413ZM81.1119 51.1538L47.4825 70.5874V31.7692L81.1119 51.2028V51.1538ZM125.804 70.5874L92.1748 51.1538L125.804 31.7203V70.5385V70.5874ZM92.1748 99.6154L128.545 78.6154L164.965 99.6154L128.545 120.615L92.1748 99.6154ZM83.8531 94.8182L50.2238 75.3846L83.8531 55.951V94.7692V94.8182ZM123.014 75.3846L89.3846 94.8182V56L123.014 75.4336V75.3846ZM83.8531 143.231L50.2238 123.797L83.8531 104.364V143.182V143.231ZM171.867 97.2168L131.287 73.8182V26.972C131.287 25.993 130.748 25.0629 129.916 24.5734L88.014 0.391608C87.1329 -0.0979025 86.1049 -0.0979025 85.2238 0.391608L43.2727 24.6224C42.4406 25.1119 41.9021 26.042 41.9021 27.021V73.8671L1.37063 97.2168C0.48951 97.7063 0 98.6364 0 99.6154V148.028C0 149.007 0.538462 149.937 1.37063 150.427L43.2727 174.608C43.7133 174.853 44.2028 175 44.6434 175C45.0839 175 45.6224 174.853 46.014 174.608L86.5455 151.21L127.077 174.608C127.517 174.853 127.958 175 128.448 175C128.937 175 129.378 174.853 129.818 174.608L171.769 150.427C172.601 149.937 173.14 149.007 173.14 148.028V99.6154C173.14 98.6364 172.601 97.7063 171.769 97.2168" fill="#F37027"/>
</g>
<defs>
<clipPath id="clip0_42_98">
<rect width="173.238" height="175" fill="white"/>
</clipPath>
</defs>
</svg>
