<svg width="175" height="124" viewBox="0 0 175 124" fill="none" xmlns="http://www.w3.org/2000/svg">
<g clip-path="url(#clip0_42_100)">
<path d="M1.14434 88.9964H39.9207C40.4489 88.9964 40.889 88.6003 40.889 88.1162C40.889 87.8961 40.801 87.676 40.625 87.4999H40.581L21.2588 63.9524L21.0827 63.7764C21.0827 63.7764 20.6426 63.4683 20.3785 63.4683C20.1584 63.4683 19.9383 63.5563 19.7623 63.6883L19.6302 63.8204L19.4542 63.9964L0.616166 87.2799L0.308068 87.588C0.308068 87.588 0.176025 87.8961 0.176025 88.0721C0.176025 88.5563 0.616166 88.9524 1.14434 88.9524" fill="#F99D28"/>
<path d="M39.7887 92.3416H0.96831C0.440141 92.3416 0 92.7377 0 93.2218V121.831C0 122.315 0.440141 122.711 0.96831 122.711H13.4683V104.71C13.4683 104.225 13.8644 103.829 14.3926 103.829H26.0123C26.5405 103.829 26.9806 104.225 26.9806 104.71V122.711H39.8327C40.3609 122.711 40.8011 122.315 40.8011 121.831V93.2218C40.8011 92.7377 40.3609 92.3416 39.8327 92.3416" fill="#F99D28"/>
<path d="M140.581 89.1285C140.053 89.1285 139.657 89.5247 139.657 90.0088V96.5669C139.657 97.0511 140.097 97.4472 140.581 97.4472H152.069C152.597 97.4472 152.993 97.0511 152.993 96.5669V90.0088C152.993 89.5247 152.553 89.1285 152.069 89.1285H140.581ZM158.143 89.1285C157.614 89.1285 157.218 89.5247 157.218 90.0088V96.5669C157.218 97.0511 157.658 97.4472 158.143 97.4472H169.63C170.158 97.4472 170.555 97.0511 170.599 96.5669V90.0088C170.599 89.5247 170.158 89.1285 169.674 89.1285H158.187H158.143ZM140.581 101.276C140.053 101.276 139.657 101.673 139.657 102.157V108.715C139.657 109.199 140.097 109.595 140.581 109.595H152.069C152.597 109.595 152.993 109.199 152.993 108.715V102.157C152.993 101.673 152.553 101.276 152.069 101.276H140.581ZM158.143 101.276C157.614 101.276 157.218 101.673 157.218 102.157V108.715C157.218 109.199 157.658 109.595 158.143 109.595H169.63C170.158 109.595 170.555 109.199 170.599 108.715V102.157C170.599 101.673 170.158 101.276 169.674 101.276H158.187H158.143ZM174.076 123.107H135.607C135.079 123.107 134.683 122.711 134.683 122.271V85.6954C134.683 85.2113 135.123 84.8152 135.607 84.8592H174.076C174.56 84.8592 175 85.2113 175 85.6954V122.271C175 122.755 174.56 123.151 174.076 123.107Z" fill="#F99D28"/>
<path d="M53.169 16.4613C52.9049 16.4613 52.6848 16.6813 52.6848 16.9454V25.9683C52.6848 26.2324 52.9049 26.4085 53.169 26.4085H61.7517C62.0158 26.4085 62.2359 26.1884 62.2359 25.9683V16.9454C62.2359 16.6813 62.0158 16.4613 61.7517 16.4613H53.169ZM70.0704 16.4613C69.8063 16.4613 69.5862 16.6813 69.5862 16.9014V25.9683C69.5862 26.2324 69.8063 26.4085 70.0704 26.4085H78.6971C78.9612 26.4085 79.1813 26.1884 79.1813 25.9683V16.9454C79.1813 16.6813 78.9612 16.4613 78.6971 16.4613H70.1144H70.0704ZM53.169 37.2359C52.9049 37.2359 52.6848 37.456 52.6848 37.6761V46.6989C52.6848 46.963 52.9049 47.1391 53.169 47.1391H61.7517C62.0158 47.1391 62.2359 46.919 62.2359 46.6989V37.632C62.2359 37.368 62.0158 37.1919 61.7517 37.1919H53.169V37.2359ZM70.0704 37.2359C69.8063 37.2359 69.5862 37.412 69.5862 37.6761V46.743C69.5862 47.007 69.8063 47.1831 70.0704 47.1831H78.6971C78.9612 47.1831 79.1813 46.963 79.1813 46.743V37.6761C79.1813 37.412 78.9612 37.2359 78.6971 37.2359H70.0704ZM53.169 57.9666C52.9049 57.9666 52.6848 58.1866 52.6848 58.4507V67.4736C52.6848 67.7377 52.9049 67.9577 53.169 67.9577H61.7517C62.0158 67.9577 62.2359 67.7377 62.2359 67.4736V58.4067C62.2359 58.1426 62.0158 57.9225 61.7517 57.9225H53.169V57.9666ZM70.0704 57.9666C69.8063 57.9666 69.5862 58.1866 69.5862 58.4507V67.4736C69.5862 67.7377 69.8063 67.9577 70.0704 67.9577H78.6971C78.9612 67.9577 79.1813 67.7377 79.1813 67.4736V58.4067C79.1813 58.1426 78.9612 57.9225 78.6971 57.9225H70.0704V57.9666ZM53.169 78.7412C52.9049 78.7412 52.6848 78.9173 52.6848 79.1813V88.2042C52.6848 88.4683 52.9049 88.6884 53.169 88.6884H61.7517C62.0158 88.6884 62.2359 88.5123 62.2359 88.2482V79.2254C62.2359 78.9613 62.0158 78.7852 61.7517 78.7852H53.1249L53.169 78.7412ZM70.0704 78.7412C69.8063 78.7412 69.5862 78.9613 69.5862 79.1813V88.2042C69.5862 88.4683 69.8063 88.6884 70.0704 88.6884H78.6971C78.9612 88.6884 79.1813 88.4683 79.1813 88.2482V79.2254C79.1813 78.9613 78.9612 78.7852 78.6971 78.7852H70.0704V78.7412ZM53.169 99.5159C52.9049 99.5159 52.6848 99.7359 52.6848 100V109.023C52.6848 109.287 52.9049 109.507 53.169 109.507H61.7517C62.0158 109.507 62.2359 109.287 62.2359 109.023V100C62.2359 99.7359 62.0158 99.5159 61.7517 99.5159H53.169ZM70.0704 99.5159C69.8063 99.5159 69.5862 99.7359 69.5862 99.956V109.023C69.5862 109.287 69.8063 109.507 70.0704 109.507H78.6971C78.9612 109.507 79.1813 109.287 79.1813 109.023V100C79.1813 99.7359 78.9612 99.5159 78.6971 99.5159H70.0704ZM84.683 122.799H47.051C46.5228 122.799 46.1267 122.403 46.1267 121.919V0.880282C46.1267 0.396127 46.5228 0 47.051 0H84.683C85.2112 0 85.6073 0.396127 85.6073 0.880282V121.919C85.6073 122.403 85.1672 122.799 84.683 122.799Z" fill="#F99D28"/>
<path d="M174.956 81.1619C174.956 81.5581 174.604 81.9102 174.208 81.9102H135.519C135.079 81.9102 134.727 81.6021 134.727 81.1619V73.8996C134.727 73.5035 135.079 73.1514 135.519 73.1514H174.208C174.648 73.1514 175 73.4595 175 73.8556V81.1619H174.956Z" fill="#F99D28"/>
<path d="M115.449 48.4595H124.78C125.352 48.4595 125.792 48.0193 125.792 47.4471V36.2675C125.704 35.7834 125.264 35.4753 124.78 35.4313C124.472 35.4313 124.164 35.5633 123.944 35.7834L123.68 36.0915C121.435 38.6883 117.298 43.4859 114.789 46.4788L114.525 46.7869C114.173 47.2271 114.261 47.8433 114.745 48.1954C114.921 48.3274 115.141 48.3714 115.317 48.3714H115.405L115.449 48.4595ZM113.732 52.3767C113.204 52.3767 112.808 52.7728 112.808 53.213V59.8151C112.808 60.2992 113.204 60.6954 113.732 60.6954H124.956C125.44 60.6954 125.88 60.2992 125.88 59.8151V53.213C125.88 52.7288 125.484 52.3327 124.956 52.3327H113.776L113.732 52.3767ZM113.732 64.6126C113.204 64.6126 112.808 64.9647 112.808 65.4489V72.095C112.808 72.5792 113.204 72.9753 113.732 72.9753H124.956C125.44 72.9753 125.88 72.5792 125.88 72.095V65.4489C125.88 64.9647 125.484 64.5686 124.956 64.5686H113.732V64.6126ZM107.702 56.338C107.394 56.338 107.086 56.47 106.866 56.6901L106.602 56.9542C103.213 60.8714 97.3591 67.6496 95.9947 69.5422V69.6302C95.9947 69.6302 95.9507 69.7623 95.9067 69.8063C95.9067 69.8063 95.9067 69.8503 95.8627 69.8943C95.8627 69.8943 95.8186 70.1144 95.7746 70.2464V72.095C95.7746 72.5792 96.2148 72.9753 96.6989 72.9753H107.878C108.363 72.9753 108.803 72.5792 108.803 72.095V57.1742C108.715 56.6901 108.275 56.382 107.79 56.382L107.702 56.338ZM96.5669 76.8045C96.0387 76.8045 95.6426 77.2006 95.6426 77.6848V84.2869C95.6426 84.7711 96.0387 85.1672 96.5669 85.1672H107.79C108.275 85.1672 108.715 84.7711 108.715 84.2869V77.6848C108.715 77.2006 108.319 76.8045 107.79 76.8045H96.5669ZM113.732 76.8045C113.204 76.8045 112.808 77.2006 112.808 77.6848V84.2869C112.808 84.7711 113.204 85.1672 113.732 85.1672H124.956C125.44 85.1672 125.88 84.7711 125.88 84.2869V77.6848C125.88 77.2006 125.484 76.8045 124.956 76.8045H113.732ZM96.5669 88.9964C96.0827 88.9964 95.6426 89.3485 95.6426 89.8327V96.4788C95.6426 96.963 96.0387 97.3591 96.5669 97.3591H107.79C108.319 97.3591 108.715 96.963 108.715 96.4788V89.8767C108.715 89.3926 108.319 88.9964 107.79 88.9964H96.5669ZM113.732 88.9964C113.204 88.9964 112.808 89.3485 112.808 89.8327V96.4788C112.808 96.963 113.204 97.3591 113.732 97.3591H124.956C125.484 97.3591 125.88 96.963 125.88 96.4788V89.8767C125.88 89.3926 125.484 88.9964 124.956 88.9964H113.732ZM96.5669 101.232C96.0387 101.232 95.6426 101.628 95.6426 102.113V108.715C95.6426 109.199 96.0387 109.595 96.5669 109.595H107.79C108.319 109.595 108.715 109.199 108.715 108.715V102.113C108.715 101.628 108.319 101.232 107.79 101.232H96.5669ZM113.732 101.232C113.204 101.232 112.808 101.628 112.808 102.113V108.715C112.808 109.199 113.204 109.595 113.732 109.595H124.956C125.484 109.595 125.88 109.199 125.88 108.715V102.113C125.88 101.628 125.484 101.232 124.956 101.232H113.732ZM129.313 122.975H91.7253C91.1972 122.975 90.801 122.579 90.801 122.095V67.8256C90.801 67.5616 90.9331 67.3415 91.1091 67.1214L91.2852 66.9014L128.257 22.7552L128.565 22.3591C129.005 22.051 129.577 22.139 129.886 22.5352C129.974 22.6232 130.018 22.7112 130.018 22.8433C130.062 22.9313 130.106 23.0633 130.15 23.1954V122.095C130.15 122.579 129.753 122.975 129.225 122.975H129.313Z" fill="#F99D28"/>
</g>
<defs>
<clipPath id="clip0_42_100">
<rect width="175" height="123.107" fill="white"/>
</clipPath>
</defs>
</svg>
