<svg width="185" height="95" viewBox="0 0 185 95" fill="none" xmlns="http://www.w3.org/2000/svg">
<g clip-path="url(#clip0_42_107)">
<path d="M130.358 55.2638C129.301 55.0151 125.012 48.9852 128.431 45.0689C128.99 44.4472 127.312 42.5202 127.747 42.458C129.612 42.3337 130.607 43.4526 131.104 45.1311C131.104 45.877 131.166 46.623 131.166 47.3689C131.166 50.042 130.917 52.7151 130.358 55.2638ZM119.79 74.7211C119.417 74.5968 118.982 74.4724 118.547 74.2859C116.433 73.2292 116.682 74.9076 115.687 74.5346C114.63 74.1616 116.868 71.7372 113.76 73.7886C110.652 75.84 111.522 73.4778 110.155 70.0588C108.787 66.6398 111.709 62.7234 114.133 61.791C117.49 60.5477 119.603 60.2991 121.158 59.9261C125.758 58.745 126.752 56.0097 127.623 57.6882C127.809 57.999 127.933 58.3098 128.058 58.5585C128.306 59.0558 128.617 60.0504 128.679 61.1072C126.69 66.2668 123.706 70.9291 119.852 74.7211M92.5622 85.9728C88.7702 85.9728 85.1646 85.4133 81.7456 84.4187C81.2483 83.9835 80.9997 83.3619 81.2483 82.5538C82.4294 79.4456 85.9728 78.2023 88.8323 77.9536C95.1109 77.332 103.317 81.9943 104.622 81.2483C105.927 80.5023 108.6 77.0833 112.455 77.2077C115.128 77.332 115.066 77.7671 115.998 78.078C109.533 83.0511 101.389 85.9728 92.6243 85.9728M87.3404 60.7964C86.8431 61.6667 85.3511 68.1317 84.3565 67.3857C83.3619 66.6398 84.7295 59.8639 85.0403 59.3666C86.5323 56.5692 89.8891 56.6935 87.3404 60.7964ZM103.13 53.1502C102.384 53.834 100.395 53.5854 99.4624 52.8394C98.4677 52.0934 100.084 50.8501 100.643 50.788C101.949 50.6636 103.876 52.4664 103.13 53.1502ZM120.163 53.2124C119.728 53.0259 119.355 52.6529 119.044 51.7204C118.733 50.788 119.541 50.2285 120.287 50.6015C121.095 51.0366 122.09 52.2177 122.09 52.8394C122.09 53.461 120.536 53.3989 120.101 53.2124M121.779 54.3935C123.085 54.2692 125.012 56.0719 124.266 56.7557C123.52 57.4395 121.593 57.1909 120.598 56.4449C119.603 55.6989 121.22 54.4556 121.779 54.3935ZM80.378 69.8101C79.6321 72.794 78.7618 73.8508 78.0158 74.7833C77.2698 75.7157 74.5346 76.8968 72.7318 76.7725C70.9913 76.6482 70.7426 71.9237 70.7426 69.5615C70.7426 68.7534 69.5615 71.1777 68.9398 66.2046C68.5669 62.9721 66.5155 66.5155 66.329 64.4019C66.2046 62.2883 65.1479 62.6613 64.0911 61.3558C63.0343 60.0504 61.6667 61.4802 60.1747 62.164C58.6828 62.8478 59.3044 63.1586 57.1909 62.537C57.1909 62.537 57.1287 62.537 57.0665 62.537C55.1395 57.9368 54.0205 52.8394 54.0205 47.4933C54.0205 46.1878 54.0827 44.8824 54.207 43.6391C54.2692 43.5148 54.3313 43.3905 54.4556 43.2661C56.5071 40.8417 56.4449 40.2823 56.4449 40.2823L58.6828 39.4741C58.6828 39.4741 62.2883 40.0336 65.0235 41.0282C67.2614 41.8985 70.8048 43.7634 72.8562 42.9553C74.3481 42.3337 75.4671 41.5255 75.3427 40.2823C75.1562 38.7282 73.9751 38.3552 72.4832 39.412C71.9237 39.7849 70.7426 37.0497 69.8723 37.2362C68.9398 37.3605 70.9913 40.4066 70.2453 40.5309C69.4993 40.6552 67.9452 37.3605 67.6344 36.8011C67.3857 36.2416 66.1425 34.9362 65.0857 35.9308C62.7856 38.1065 59.1179 37.9822 58.372 38.5417C56.1341 40.2201 55.5124 37.9822 55.5746 36.6146C55.6989 36.3038 55.7611 35.9929 55.8854 35.6821C56.6314 34.874 59.3044 34.6253 60.1747 35.1848C61.1694 35.8686 61.9153 34.9983 62.2883 34.6253C62.7235 34.2524 62.537 33.5686 62.2883 33.0712C62.0397 32.5118 62.7856 32.1388 63.2829 32.0145C63.7802 31.8901 65.5208 30.6468 66.2046 30.2739C66.8884 29.9009 70.4939 29.4657 72.048 30.2739C73.6643 31.082 75.0941 30.3982 75.9022 29.5279C76.8968 28.3468 78.1401 27.4765 78.6996 27.1657C79.2591 26.917 77.332 25.1142 75.7157 27.0413C74.0995 29.0306 73.2913 29.1549 72.5454 29.1549C71.7994 29.1549 67.3236 28.036 66.7641 26.6683C66.2046 25.2386 68.1317 24.1818 69.8101 23.4358C71.4886 22.6277 75.9644 22.6899 77.0833 22.379C79.4456 21.8817 82.4294 20.7006 83.9214 21.6952C85.4133 22.6899 77.6428 24.4926 80.1915 25.8602C81.124 26.3575 85.2268 23.498 86.6566 22.752C89.9513 21.0736 83.4241 20.4519 84.2944 16.9708C85.2268 13.0544 76.2752 14.5464 71.7994 14.9194C77.8293 11.0652 84.916 8.82728 92.5622 8.82728C110.776 8.82728 126.006 21.4466 130.109 38.4173C130.109 39.2876 129.985 39.8471 129.923 40.2201C129.55 41.5877 126.939 42.831 125.385 40.5931C125.012 40.0336 123.333 38.4795 123.396 41.1526C123.396 43.8256 126.006 44.0743 123.52 45.6905C121.033 47.3068 120.598 46.9338 119.479 47.3068C118.36 47.6798 117.241 50.4772 117.49 51.9069C117.739 53.3367 121.282 57.3773 118.671 57.253C118.049 57.253 113.449 54.0827 112.703 52.0312C111.895 49.9177 111.025 47.8041 110.403 46.1878C109.782 44.5716 108.165 44.1986 106.736 45.1311C105.368 46.0635 107.109 46.996 106.114 49.0474C105.119 51.0366 104.435 52.8394 102.944 51.1609C99.1515 46.8716 93.6811 48.9852 92.873 44.1986C92.4378 41.5877 90.1378 41.8364 88.2729 40.3444C86.4079 38.8525 85.3511 38.1065 85.0403 39.1633C84.7295 40.0958 90.9459 45.0067 91.381 46.25C92.0648 48.1149 89.5161 49.7312 87.7134 50.2285C85.9106 50.6636 85.1025 49.2339 83.2997 47.3068C81.497 45.4419 80.6888 44.0743 80.5645 45.5662C80.378 47.6798 82.2429 50.788 84.1079 51.9691C85.662 52.9637 87.4025 53.3989 86.9052 55.0151C86.4079 56.6314 86.9052 55.6989 85.1646 57.4395C83.4241 59.1801 83.0511 59.7396 83.1754 62.164C83.2997 64.5884 82.6781 64.7127 82.3051 66.7019C81.9321 68.6912 81.0618 66.9506 80.3159 69.9345M59.6153 27.29C59.6153 27.29 59.8017 27.1035 59.8017 27.0413C60.4855 26.2332 61.8532 26.0467 62.8478 25.9224C63.7802 25.7359 65.0857 26.2332 65.2722 26.8548C65.4587 27.4765 62.8478 28.6576 62.4126 29.0927C61.045 30.336 58.9936 32.8226 57.7503 33.0712C57.3152 33.1334 57.0044 33.0712 56.7557 32.9469C57.5638 30.9577 58.5585 29.0306 59.6153 27.2278M61.6045 23.3115C62.1018 22.5655 63.7802 20.4519 63.9667 20.2033C64.4019 19.6438 65.21 19.5195 65.8316 19.4573C66.4533 19.3952 67.1993 19.706 67.3236 20.1411C67.4479 20.5763 67.0749 22.3169 66.8263 22.5655C66.0181 23.4358 63.9046 24.6169 62.7235 24.4304C61.791 24.3061 61.4802 23.6223 61.6667 23.3115M184.316 46.1257C177.727 36.8632 147.95 0 92.5 0C37.0497 0 7.33535 36.8632 0.745968 46.1257C0.497312 46.4987 0.248656 46.8716 0 47.1825C0.186492 47.4933 0.435148 47.8041 0.745968 48.2392C7.33535 57.5017 37.1119 94.3649 92.5622 94.3649C148.012 94.3649 177.789 57.4395 184.378 48.2392C184.689 47.8041 184.876 47.4933 185.062 47.1825C184.876 46.8716 184.627 46.5608 184.378 46.1257" fill="#407F45"/>
</g>
<defs>
<clipPath id="clip0_42_107">
<rect width="185" height="94.3649" fill="white"/>
</clipPath>
</defs>
</svg>
