<svg width="111" height="98" viewBox="0 0 111 98" fill="none" xmlns="http://www.w3.org/2000/svg">
<path d="M108.47 61.9223C105.467 61.9223 103.882 62.5559 102.485 63.1158C101.73 63.4153 101.005 63.68 100.072 63.858C100.024 62.595 99.4639 61.3623 98.4396 60.4292C95.8571 58.0768 94.5853 57.0178 93.739 56.5795C92.6236 53.9146 90.0628 52.0959 87.1331 51.9831V29.2009C87.1331 15.5209 75.9998 4.38756 62.3153 4.38756H48.192V4.12281C48.192 1.88325 46.3691 0.0646973 44.1339 0.0646973H38.6781C36.8509 0.0646973 35.3188 1.28436 34.8109 2.95103L1.7509 2.94235C0.791703 2.94235 0.0104588 3.72359 0.0104588 4.68279V30.6417C0.0104588 31.6009 0.791703 32.3821 1.7509 32.3821H34.8198C35.3276 34.0445 36.8597 35.2685 38.687 35.2685H44.1428C46.3823 35.2685 48.2009 33.4456 48.2009 31.2103V30.9412H57.6845C59.286 30.9412 60.5838 32.2434 60.5838 33.8406V51.9828C57.7322 52.0956 55.2236 53.823 54.069 56.3751C50.9353 56.8135 48.4267 59.2007 47.7799 62.2606C46.8815 62.0609 45.8095 61.9264 44.4249 61.9264C41.4215 61.9264 39.8416 62.5601 38.444 63.1199C37.181 63.6234 36.0872 64.0618 33.7565 64.0618C31.4257 64.0618 30.332 63.6234 29.0689 63.1199C27.6713 62.56 26.0915 61.9264 23.088 61.9264C20.0846 61.9264 18.5047 62.5601 17.1071 63.1199C15.8441 63.6234 14.7547 64.0618 12.4196 64.0618C10.0888 64.0618 8.99512 63.6234 7.72768 63.1199C6.33012 62.56 4.75024 61.9264 1.74679 61.9264C0.787592 61.9264 0.00634766 62.7076 0.00634766 63.6668V95.5424C0.00634766 96.5016 0.787592 97.2828 1.74679 97.2828H108.47C109.429 97.2828 110.211 96.5016 110.211 95.5424V63.6668C110.211 62.7076 109.429 61.9264 108.47 61.9264L108.47 61.9223ZM3.49224 6.41893H34.6256V28.8967H3.49224V6.41893ZM44.72 31.2067C44.72 31.5279 44.4596 31.7883 44.1384 31.7883H38.6826C38.3615 31.7883 38.101 31.5279 38.101 31.2067V4.11449C38.101 3.79331 38.3615 3.53289 38.6826 3.53289H44.1384C44.4596 3.53289 44.72 3.79331 44.72 4.11449V31.2067ZM55.0151 59.7789C55.8745 59.8701 56.786 59.3189 56.9987 58.4855C57.4501 56.7016 59.0473 55.4559 60.8789 55.4559C61.1697 55.4559 61.4865 55.5037 61.8989 55.6035C62.4154 55.7337 62.9666 55.6165 63.392 55.2867C63.813 54.9568 64.0604 54.449 64.0604 53.9151V33.8373C64.0604 30.3216 61.1958 27.4571 57.6802 27.4571H48.1966V7.86487H62.3199C74.0866 7.86487 83.6566 17.4352 83.6566 29.2015V53.9193C83.6566 54.4532 83.904 54.961 84.325 55.2909C84.7503 55.6207 85.3016 55.7379 85.8181 55.6077C86.2304 55.5035 86.5473 55.4602 86.8381 55.4602C88.6696 55.4602 90.2669 56.7058 90.7183 58.4897C90.9093 59.2406 91.5733 59.77 92.3372 59.8005C92.6974 60.0392 93.6436 60.7727 96.0959 63.0079C96.417 63.2987 96.595 63.672 96.6037 64.0062C95.0629 63.8803 94.1167 63.5288 93.0923 63.1208C91.6948 62.5609 90.1105 61.9272 87.1071 61.9272C84.1037 61.9272 82.5194 62.5609 81.1262 63.1208C79.8589 63.6242 78.7694 64.0626 76.4343 64.0626C74.1036 64.0626 73.0056 63.6242 71.7424 63.1208C70.3449 62.5609 68.765 61.9272 65.7572 61.9272C62.7538 61.9272 61.1696 62.5609 59.7763 63.1208C58.509 63.6242 57.4196 64.0626 55.0844 64.0626C53.2008 64.0626 52.1243 63.7718 51.1174 63.3985C51.3301 61.376 53.0184 59.7874 55.0063 59.7831L55.0151 59.7789ZM106.73 93.7978H3.49179V65.5034C4.72879 65.6596 5.54046 65.9851 6.44312 66.3454C7.84068 66.9053 9.42057 67.5389 12.424 67.5389C15.4231 67.5389 17.0073 66.9053 18.4049 66.3454C19.6679 65.8419 20.7573 65.4035 23.0925 65.4035C25.4232 65.4035 26.5169 65.8419 27.78 66.3454C29.1776 66.9053 30.7575 67.5389 33.7609 67.5389C36.7643 67.5389 38.3442 66.9053 39.7418 66.3454C41.0048 65.8419 42.0986 65.4035 44.4293 65.4035C46.7601 65.4035 47.8538 65.8419 49.1169 66.3454C50.5145 66.9053 52.0943 67.5389 55.0978 67.5389C58.1012 67.5389 59.6855 66.9053 61.0787 66.3454C62.346 65.8419 63.4355 65.4035 65.7706 65.4035C68.1057 65.4035 69.1993 65.8419 70.4625 66.3454C71.86 66.9053 73.4399 67.5389 76.4477 67.5389C79.4511 67.5389 81.0353 66.9053 82.4286 66.3454C83.6959 65.8419 84.7853 65.4035 87.1205 65.4035C89.4556 65.4035 90.5492 65.8419 91.8167 66.3454C93.2142 66.9053 94.7985 67.5389 97.8019 67.5389C100.805 67.5389 102.39 66.9053 103.787 66.3454C104.69 65.9851 105.502 65.6596 106.743 65.5034V93.7978H106.73ZM37.8151 84.3577C37.8151 85.3169 37.0339 86.0982 36.0747 86.0982C33.0712 86.0982 31.4913 85.4645 30.0938 84.9046C28.8308 84.4011 27.737 83.9628 25.4062 83.9628C23.0755 83.9628 21.9861 84.4011 20.7187 84.9046C19.3211 85.4645 17.7412 86.0982 14.7378 86.0982C13.7786 86.0982 12.9973 85.3169 12.9973 84.3577C12.9973 83.3985 13.7786 82.6172 14.7378 82.6172C17.0686 82.6172 18.1579 82.1789 19.4253 81.6754C20.8229 81.1155 22.4028 80.4818 25.4062 80.4818C28.4053 80.4818 29.9896 81.1155 31.3871 81.6754C32.6501 82.1789 33.7439 82.6172 36.0747 82.6172C37.0339 82.6172 37.8151 83.3985 37.8151 84.3577ZM67.9762 77.4003C67.9762 78.3595 67.195 79.1407 66.2358 79.1407C63.2323 79.1407 61.6525 78.507 60.2549 77.9471C58.9919 77.4437 57.8981 77.0053 55.5673 77.0053C53.2366 77.0053 52.1472 77.4437 50.8798 77.9471C49.4822 78.507 47.9023 79.1407 44.8989 79.1407C43.9397 79.1407 43.1585 78.3595 43.1585 77.4003C43.1585 76.4411 43.9397 75.6598 44.8989 75.6598C47.2297 75.6598 48.319 75.2214 49.5865 74.718C50.984 74.1581 52.5639 73.5244 55.5673 73.5244C58.5665 73.5244 60.1507 74.1581 61.5482 74.718C62.8112 75.2214 63.905 75.6598 66.2358 75.6598C67.195 75.6598 67.9762 76.4411 67.9762 77.4003ZM97.2207 84.3577C97.2207 85.3169 96.4394 86.0982 95.4802 86.0982C92.4811 86.0982 90.8969 85.4645 89.4993 84.9046C88.2363 84.4011 87.1469 83.9628 84.8118 83.9628C82.481 83.9628 81.3873 84.4011 80.1242 84.9046C78.7267 85.4645 77.1468 86.0982 74.1433 86.0982C73.1841 86.0982 72.4029 85.3169 72.4029 84.3577C72.4029 83.3985 73.1841 82.6172 74.1433 82.6172C76.4741 82.6172 77.5678 82.1789 78.8309 81.6754C80.2285 81.1155 81.8083 80.4818 84.8118 80.4818C87.8152 80.4818 89.3951 81.1155 90.7927 81.6754C92.0557 82.1789 93.1451 82.6172 95.4802 82.6172C96.4394 82.6172 97.2207 83.3985 97.2207 84.3577Z" fill="#F4317B"/>
</svg>
