<svg width="126" height="140" viewBox="0 0 126 140" fill="none" xmlns="http://www.w3.org/2000/svg">
<path d="M125.803 55.1053C125.803 54.4555 125.519 53.8367 125.026 53.4139L112.554 42.72V24.4637C112.554 20.9535 109.699 18.098 106.188 18.098H83.9877C83.9664 18.0784 83.9517 18.0555 83.9289 18.0376L64.4383 1.46287C63.6024 0.754294 62.3762 0.75756 61.5436 1.4694L42.1542 18.098H19.1697C15.6595 18.098 12.804 20.9535 12.804 24.4637V43.2637L0.965619 53.4155C0.472558 53.8384 0.188477 54.4571 0.188477 55.1069C0.188477 55.1314 0.195007 55.1559 0.19664 55.1804V133.254C0.19664 136.46 2.80562 139.069 6.01052 139.069H119.996C123.202 139.069 125.81 136.46 125.81 133.254V55.1053H125.803ZM45.7411 95.1886L4.65215 130.421V59.9576L45.7411 95.1886ZM49.1632 98.1241L61.5452 108.741C61.9615 109.099 62.4791 109.278 62.995 109.278C63.5109 109.278 64.0285 109.099 64.4448 108.741L76.8268 98.1241L119.379 134.611H6.61133L49.1632 98.1241ZM80.2505 95.1902L121.356 59.9445V130.436L80.2505 95.1902ZM120.153 55.1053L112.553 61.6212V48.5894L120.153 55.1053ZM63.0015 6.09144L77.1207 18.098H48.9999L63.0015 6.09144ZM19.1697 22.5535H106.188C107.242 22.5535 108.099 23.4106 108.099 24.4637V43.3127C108.051 43.5723 108.053 43.8351 108.099 44.0947V65.4433L62.995 104.114L17.2595 64.898V24.4637C17.2611 23.409 18.1166 22.5535 19.1697 22.5535ZM12.8056 49.1331V61.0792L5.83909 55.1069L12.8056 49.1331ZM62.6799 81.3633C67.2497 81.3633 71.7493 80.1714 75.6938 77.9167C76.7615 77.3061 77.1321 75.9445 76.5215 74.8767C75.9093 73.809 74.5493 73.4367 73.4815 74.049C70.2097 75.92 66.4742 76.9094 62.6799 76.9094C50.657 76.9094 40.8775 67.1282 40.8775 55.1069C40.8775 43.0857 50.6587 33.3045 62.6799 33.3045C74.7011 33.3045 84.4807 43.0857 84.4807 55.1069C84.4807 62.7102 81.0358 65.5935 78.7207 65.6767C76.9607 65.7551 75.6611 64.3396 75.475 62.0996V55.4874C75.4783 55.36 75.4946 55.2359 75.4946 55.1069C75.4946 54.978 75.4783 54.8539 75.475 54.7265V44.5453C75.475 43.3143 74.4775 42.3167 73.2464 42.3167C72.0154 42.3167 71.0179 43.3143 71.0179 44.5453V45.3976C68.7746 43.4678 65.8636 42.2923 62.6783 42.2923C55.6122 42.2923 49.8636 48.0408 49.8636 55.1069C49.8636 62.1731 55.6122 67.9216 62.6783 67.9216C66.0546 67.9216 69.1207 66.5992 71.4113 64.4588C72.4481 67.9608 75.3493 70.258 78.8791 70.1306C83.7232 69.9559 88.9346 65.1821 88.9346 55.1086C88.9346 40.6302 77.1566 28.8506 62.6766 28.8506C48.1966 28.8506 36.4203 40.6269 36.4203 55.1053C36.4203 69.5837 48.1999 81.3633 62.6799 81.3633ZM62.6799 63.4645C58.0693 63.4645 54.3207 59.7143 54.3207 55.1053C54.3207 50.4963 58.0709 46.7461 62.6799 46.7461C67.1599 46.7461 70.8187 50.2923 71.0195 54.7249V55.4857C70.8187 59.9184 67.1615 63.4645 62.6799 63.4645Z" fill="#5F9341"/>
</svg>
