<svg width="123" height="142" viewBox="0 0 123 142" fill="none" xmlns="http://www.w3.org/2000/svg">
<path d="M120.848 102.608C118.4 99.3681 112.856 97.9281 106.808 100.952C106.736 100.592 106.592 100.304 106.448 99.9441C106.448 99.9441 106.448 99.8721 106.376 99.8721C104.576 96.3441 98.96 94.2561 93.056 96.9921C92.12 97.4961 91.112 98.0001 90.032 98.5041C89.456 98.7921 88.808 99.0801 88.232 99.4401C86.144 96.2721 81.176 94.5441 75.56 96.8481C72.68 98.0721 69.944 99.2961 67.568 100.448C67.064 100.664 66.56 100.88 66.056 101.096V101.024C66.056 96.5601 62.6 93.2481 57.344 92.8161L35.096 91.9521C34.88 91.8801 34.736 91.8801 34.52 91.8801C24.8 91.8801 15.008 99.7281 8.45603 104.84C5.79203 106.928 3.12803 109.088 1.61603 109.736C0.536033 110.168 -0.039966 111.392 0.320034 112.544C0.320034 112.616 0.392034 112.688 0.392034 112.76C0.752034 113.552 1.47203 113.984 2.33603 113.984C2.69603 113.984 3.05603 113.912 3.34403 113.768C5.28803 112.904 7.66403 111.104 11.12 108.296L11.264 108.152C17.528 103.184 26.024 96.4881 33.944 96.2721C34.088 96.3441 34.232 96.3441 34.376 96.3441L57.056 97.2081C58.136 97.2801 61.664 97.7841 61.664 101.024C61.664 103.256 59.72 104.984 57.272 104.984H39.416C39.2 104.984 38.912 105.056 38.552 105.2C38.408 105.272 38.336 105.344 38.192 105.416L37.904 105.704C37.616 105.992 37.472 106.352 37.472 106.712V107.072C37.472 107.432 37.544 107.72 37.688 108.008C37.688 108.008 37.688 108.008 37.688 108.08C37.688 108.152 37.76 108.224 37.832 108.296C37.904 108.44 37.976 108.512 38.12 108.656L38.264 108.8C38.408 108.944 38.552 109.088 38.768 109.16C40.856 110.024 42.944 110.888 45.392 111.824C45.68 112.04 45.968 112.184 46.328 112.184C50.792 113.84 55.256 115.064 59.504 115.856C59.648 115.928 59.792 115.928 60.008 115.928C63.968 116.576 67.28 116.864 70.376 116.864C81.752 116.864 93.056 113.48 107.024 105.92C107.024 105.92 107.096 105.92 107.096 105.848C111.56 102.968 115.808 103.328 117.248 105.272C118.256 106.568 117.104 108.224 115.808 109.232C115.736 109.232 115.736 109.304 115.664 109.304L115.592 109.376C101.048 119.384 86.072 126.512 69.656 131.192C66.128 132.128 62.528 132.632 59 132.632H53.096C34.664 132.704 17.168 132.776 10.904 137.672C9.96803 138.392 9.75203 139.832 10.472 140.768C10.544 140.84 10.544 140.912 10.616 140.912C11.048 141.344 11.624 141.632 12.2 141.632C12.704 141.632 13.064 141.416 13.28 141.344C13.352 141.272 13.424 141.272 13.496 141.2C18.536 137.24 36.824 137.168 53.024 137.096H58.928C62.888 137.096 66.92 136.592 70.736 135.512C87.584 130.76 103.136 123.416 118.328 112.904C118.4 112.832 118.472 112.832 118.544 112.76C118.616 112.688 118.76 112.544 118.832 112.4C123.008 108.872 122.576 104.912 120.848 102.608ZM102.632 103.256C90.968 109.376 81.248 112.328 71.528 112.472C76.928 110.096 83.12 106.928 88.808 104.048C89.672 103.616 90.536 103.184 91.4 102.752C92.624 102.104 93.776 101.528 94.928 101.024C96.08 100.448 97.376 100.16 98.672 100.16C100.328 100.16 101.912 100.664 102.488 101.816C102.632 102.176 102.632 102.68 102.632 103.256ZM57.848 109.52C57.92 109.52 58.064 109.448 58.136 109.376C58.136 109.376 58.136 109.376 58.208 109.376C60.152 109.232 61.952 108.44 63.464 107.144C63.464 107.144 63.536 107.144 63.536 107.072C64.4 106.64 65.336 106.28 66.272 105.848C67.352 105.416 68.36 104.912 69.44 104.408C72.392 103.04 74.984 101.816 77.288 100.88C79.736 99.9441 82.976 100.016 84.344 101.456C76.424 105.56 65.336 111.104 60.512 111.536C58.856 111.248 57.2 110.888 55.544 110.456C56.192 110.096 56.984 109.808 57.848 109.52Z" fill="black"/>
<path d="M105.224 35.5762C73.328 44.5762 62.24 66.1042 65.408 83.4562C65.624 84.5362 66.488 85.2562 67.496 85.2562C67.64 85.2562 67.784 85.2562 67.856 85.2562C69.008 85.0402 69.8 83.8882 69.584 82.7362C66.848 67.7602 76.496 49.1842 103.784 40.5442C104.36 54.3682 102.704 65.2402 98.744 72.8002C94.496 81.0082 87.656 85.4002 77.864 86.1922C76.64 86.2642 75.776 87.3442 75.92 88.4962C75.992 89.6482 76.928 90.5122 78.08 90.5122C78.152 90.5122 78.224 90.5122 78.224 90.5122C89.456 89.5762 97.592 84.3202 102.56 74.8162C107.096 66.0322 108.896 53.5042 107.888 37.5922C107.888 37.5202 107.888 37.4482 107.888 37.3762C107.888 37.3042 107.888 37.2322 107.816 37.1602V37.0882C107.816 37.0162 107.744 36.8722 107.672 36.8002C107.672 36.7282 107.6 36.6562 107.528 36.6562C107.456 36.5842 107.456 36.5122 107.384 36.5122C107.312 36.4402 107.24 36.3682 107.168 36.2962L107.096 36.2242C107.024 36.1522 106.952 36.0802 106.808 36.0082C106.808 36.0082 106.736 36.0082 106.736 35.9362C106.664 35.8642 106.52 35.7922 106.376 35.7922C106.376 35.7922 106.376 35.7922 106.304 35.7922C106.16 35.7202 106.016 35.7202 105.944 35.7202C105.8 35.7202 105.728 35.7202 105.584 35.7202H105.512C105.44 35.7202 105.368 35.7202 105.296 35.7202C105.368 35.5762 105.296 35.5762 105.224 35.5762Z" fill="black"/>
<path d="M70.592 92.672C70.664 92.672 70.664 92.672 70.736 92.672C71.888 92.672 72.824 91.808 72.896 90.656C73.256 85.976 75.272 81.152 78.512 76.04H83.624C84.848 76.04 85.784 75.104 85.784 73.88C85.784 72.656 84.848 71.72 83.624 71.72H81.464C83.768 68.552 86.504 65.24 89.528 61.784H95.144C96.368 61.784 97.304 60.848 97.304 59.624C97.304 58.4 96.368 57.464 95.144 57.464H93.416C95.432 55.304 97.52 53.072 99.68 50.768C100.472 49.904 100.472 48.536 99.608 47.744C98.744 46.952 97.376 46.952 96.584 47.816C90.392 54.368 84.92 60.344 80.456 65.96L80.24 64.808C80.024 63.656 78.872 62.864 77.72 63.08C76.568 63.296 75.776 64.448 75.992 65.6L76.928 70.712C72.104 77.552 69.08 83.96 68.648 90.44C68.504 91.52 69.368 92.6 70.592 92.672Z" fill="black"/>
<path d="M59.6479 75.176C60.0079 75.392 60.3679 75.464 60.7279 75.464C61.4479 75.464 62.1679 75.104 62.5999 74.384C63.1759 73.376 62.8879 72.008 61.8799 71.432C51.5839 65.312 46.9039 51.2 47.9119 29.456C60.3679 33.416 70.0879 39.824 76.0639 47.96C76.4959 48.536 77.1439 48.824 77.7919 48.824C78.2239 48.824 78.6559 48.68 79.0879 48.392C80.0239 47.672 80.2399 46.304 79.5919 45.368C72.6799 35.864 61.2319 28.664 46.5439 24.488C46.4719 24.488 46.3999 24.488 46.3279 24.416C46.2559 24.416 46.1839 24.416 46.1119 24.344C46.0399 24.344 46.0399 24.344 46.0399 24.344C45.9679 24.344 45.8239 24.344 45.7519 24.344C45.6799 24.344 45.6799 24.344 45.6079 24.344C45.5359 24.344 45.3919 24.416 45.3199 24.416C45.3199 24.416 45.2479 24.416 45.2479 24.488C45.1759 24.56 45.0319 24.56 44.9599 24.632C44.9599 24.632 44.8879 24.632 44.8879 24.704C44.8159 24.776 44.6719 24.848 44.5999 24.92C44.5999 24.92 44.5999 24.92 44.5279 24.992C44.4559 25.064 44.3839 25.136 44.3119 25.28C44.3119 25.28 44.3119 25.352 44.2399 25.352C44.1679 25.424 44.0959 25.496 44.0959 25.64C44.0959 25.712 44.0239 25.784 44.0239 25.856C44.0239 25.928 43.9519 26 43.9519 26.072C43.9519 26.144 43.9519 26.216 43.9519 26.288C43.9519 26.36 43.8799 26.432 43.8799 26.576C42.0079 51.488 47.4079 67.904 59.6479 75.176Z" fill="black"/>
<path d="M53.4562 48.392C53.3122 49.544 54.1762 50.624 55.3282 50.768L60.8722 51.416C62.6002 53.936 64.1842 56.456 65.6242 58.832C66.0562 59.48 66.7762 59.912 67.4962 59.912C67.8562 59.912 68.2882 59.84 68.5762 59.624C69.5842 58.976 69.9442 57.68 69.2962 56.672C69.1522 56.456 69.0082 56.24 68.9362 56.024L70.5202 50.84C70.8802 49.688 70.2322 48.464 69.0802 48.104C67.9282 47.744 66.7042 48.392 66.3442 49.544L65.8402 51.2C62.6722 46.376 59.0722 41.408 55.5442 36.656C54.8242 35.72 53.4562 35.504 52.5202 36.224C51.5842 36.944 51.3682 38.312 52.0882 39.248C53.8882 41.696 55.6882 44.216 57.4882 46.664L55.9042 46.52C54.6802 46.376 53.6002 47.24 53.4562 48.392Z" fill="black"/>
<path d="M66.3438 31.1841C66.5598 31.2561 66.7758 31.2561 66.9198 31.2561C67.8558 31.2561 68.7198 30.608 69.0078 29.672C71.5998 20.744 78.8718 11.168 87.0078 5.69605C95.0718 15.272 95.7198 25.712 95.2158 34.64C95.1438 35.8641 96.0798 36.8721 97.2318 36.944C97.3038 36.944 97.3038 36.944 97.3758 36.944C98.5278 36.944 99.4638 36.0801 99.5358 34.9281C100.112 24.6321 99.3198 12.608 89.0238 1.44805C89.0238 1.44805 89.0238 1.44805 88.9518 1.37605C88.8798 1.30405 88.8078 1.23205 88.6638 1.16005C88.5918 1.08805 88.5198 1.08805 88.5198 1.08805C88.4478 1.01605 88.3758 1.01605 88.3038 0.944049C88.2318 0.944049 88.1598 0.872049 88.0878 0.872049C88.0158 0.872049 87.9438 0.800049 87.8718 0.800049C87.7998 0.800049 87.7278 0.800049 87.6558 0.800049C87.5838 0.800049 87.5118 0.800049 87.4398 0.800049C87.3678 0.800049 87.2958 0.800049 87.2238 0.800049C87.1518 0.800049 87.0798 0.800049 87.0078 0.800049C86.9358 0.800049 86.8638 0.800049 86.7918 0.872049C86.7198 0.872049 86.6478 0.872049 86.5758 0.944049C86.5038 0.944049 86.3598 1.01605 86.2878 1.08805C86.2878 1.08805 86.2158 1.08805 86.2158 1.16005C76.6398 6.92005 67.8558 18.224 64.8318 28.592C64.5438 29.672 65.1918 30.8241 66.3438 31.1841Z" fill="black"/>
<path d="M82.9759 39.8241C83.1199 39.8241 83.1919 39.8241 83.3359 39.8241C84.3439 39.8241 85.2799 39.0321 85.4959 38.0241C85.5679 37.8081 85.5679 37.5201 85.6399 37.3041L90.2479 34.4241C91.2559 33.7761 91.5439 32.4801 90.9679 31.4721C90.3919 30.4641 89.0239 30.1761 88.0159 30.7521L86.5039 31.6881C87.1519 26.3601 87.5839 20.5281 88.0159 13.8321C88.0879 12.6081 87.2239 11.6001 85.9999 11.5281C84.8479 11.4561 83.7679 12.3201 83.6959 13.5441C83.5519 15.7761 83.4079 17.8641 83.2639 19.9521L81.8239 18.4401C81.0319 17.5761 79.6639 17.5041 78.7999 18.3681C77.9359 19.1601 77.8639 20.5281 78.7279 21.3921L82.8319 25.7841C82.4719 29.9601 81.9679 33.7761 81.3919 37.3761C81.0319 38.5281 81.8239 39.6081 82.9759 39.8241Z" fill="black"/>
</svg>
