<svg width="148" height="148" viewBox="0 0 148 148" fill="none" xmlns="http://www.w3.org/2000/svg">
<g clip-path="url(#clip0_76_248)">
<path d="M2.67967 144.511C5.75435 144.018 15.7394 143.8 18.5036 144.441L20.1702 144.829C23.3554 145.726 26.6551 146.148 29.9633 146.084C31.2539 145.979 32.538 145.807 33.8104 145.567C36.2787 145.146 38.6104 144.75 40.4091 145.548C40.7185 145.685 41.0143 145.855 41.3101 146.021C42.1904 146.57 43.1593 146.962 44.1737 147.179C44.6908 147.271 45.1877 147.404 45.6574 147.528C46.5438 147.796 47.4611 147.948 48.3865 147.98C49.2042 148.016 50.0133 147.801 50.7051 147.363C51.3968 146.926 51.9381 146.287 52.2561 145.533C52.5178 144.809 53.007 144.189 53.6506 143.766C54.3288 143.35 55.1168 143.15 55.9112 143.19C59.1993 143.382 62.4588 143.913 65.6377 144.775L67.0107 145.095C68.9397 145.45 70.9148 145.474 72.8518 145.166C73.9254 145.023 75.0086 144.964 76.0914 144.99C77.7772 145.168 79.4359 145.546 81.0325 146.116C83.8057 146.97 86.947 147.94 90.2159 147.09C92.4654 146.36 94.5417 145.177 96.3167 143.615C98.5411 141.893 99.9921 140.846 101.676 141.1C102.572 141.311 103.427 141.671 104.204 142.166C104.643 142.406 105.082 142.646 105.532 142.861C110.546 145.271 116.123 144.72 121.511 144.188C122.382 144.102 123.248 144.017 124.105 143.945C131.162 143.354 138.268 143.857 145.172 145.436C145.468 145.504 145.774 145.513 146.074 145.463C146.374 145.412 146.661 145.303 146.918 145.142C147.176 144.981 147.399 144.77 147.575 144.523C147.751 144.275 147.877 143.995 147.944 143.699C148.012 143.403 148.021 143.096 147.97 142.796C147.919 142.497 147.81 142.21 147.648 141.953C147.487 141.695 147.276 141.473 147.028 141.297C146.78 141.121 146.5 140.996 146.204 140.928C138.836 139.242 131.253 138.705 123.721 139.336C122.842 139.41 121.952 139.498 121.058 139.586C116.3 140.054 111.381 140.542 107.535 138.693C107.159 138.512 106.791 138.31 106.423 138.108C105.174 137.337 103.795 136.8 102.353 136.525C98.6371 135.971 95.9012 138.09 93.4859 139.957C92.1928 141.12 90.6871 142.022 89.0517 142.614C87.0554 143.131 84.7914 142.436 82.3965 141.696C80.443 141.008 78.4122 140.563 76.3499 140.372C75.0208 140.331 73.6906 140.396 72.3719 140.566C71.0674 140.759 69.7434 140.785 68.4324 140.643C68.5161 140.406 68.5603 140.157 68.5633 139.906V112.564C68.5633 112.167 68.5777 111.774 68.6063 111.387C71.3436 112.507 74.2607 113.123 77.2171 113.206C84.9134 113.205 88.3731 107.723 91.292 103.095C94.1894 98.5004 96.1959 95.682 100.488 95.8932C100.89 95.9087 101.289 95.8203 101.647 95.6366C102.005 95.4528 102.31 95.1799 102.532 94.8442C102.752 94.5067 102.88 94.1174 102.903 93.7151C102.926 93.3128 102.844 92.9115 102.664 92.5509C98.1516 83.5109 85.5028 78.7391 74.4677 81.9086C64.2466 84.8467 58.8165 93.5209 59.9423 105.113C60.0027 105.722 60.3025 106.283 60.7757 106.671C61.249 107.06 61.8571 107.245 62.4666 107.186C63.0761 107.126 63.6372 106.828 64.0268 106.355C64.4164 105.883 64.6027 105.275 64.5447 104.666C63.6391 95.3343 67.721 88.6598 75.7447 86.3541C83.2999 84.1838 92.0079 86.6262 96.5719 91.756C92.1152 93.1211 89.6299 97.0607 87.3806 100.628C83.6623 106.522 80.7299 111.182 69.8686 106.922C69.7937 106.896 69.7174 106.875 69.6403 106.858C71.0845 103.286 73.8359 100.864 76.9902 100.864C77.6035 100.864 78.1917 100.62 78.6254 100.186C79.0591 99.7527 79.3027 99.1645 79.3027 98.5512C79.3027 97.9379 79.0591 97.3497 78.6254 96.916C78.1917 96.4823 77.6035 96.2387 76.9902 96.2387C69.793 96.2387 63.9383 103.562 63.9383 112.564V115.957C63.2785 115.283 62.5668 114.663 61.8099 114.101C59.9179 104.342 53.3998 98.4399 44.2268 98.2813C33.7912 98.0815 23.8502 105.342 22.0152 114.42C21.9346 114.818 21.9601 115.23 22.0891 115.614C22.2181 115.999 22.446 116.343 22.7501 116.612C23.0541 116.881 23.4235 117.064 23.8211 117.145C24.2188 117.226 24.6306 117.2 25.0154 117.072C28.5169 115.901 30.695 117.681 34.2495 120.927C37.0758 123.507 40.5491 126.677 45.4631 126.677C48.4576 126.677 51.9885 125.498 56.2307 122.291C56.7201 121.921 57.0424 121.372 57.1269 120.764C57.2114 120.157 57.0511 119.54 56.6813 119.051C56.3114 118.562 55.7623 118.239 55.1548 118.155C54.5473 118.07 53.931 118.231 53.4417 118.6C45.3028 124.755 41.9752 121.716 37.3683 117.511C34.8051 115.171 31.7665 112.397 27.7174 112.113C30.5471 106.77 37.3524 102.828 44.1466 102.905C46.7803 102.857 49.3624 103.639 51.5274 105.14C53.6925 106.64 55.3308 108.784 56.2106 111.266C54.1424 110.596 51.9821 110.254 49.8081 110.251C49.1948 110.251 48.6066 110.495 48.173 110.929C47.7393 111.362 47.4956 111.951 47.4956 112.564C47.4956 113.177 47.7393 113.765 48.173 114.199C48.6066 114.633 49.1948 114.876 49.8081 114.876C57.5993 114.876 63.9372 120.23 63.9372 126.809L63.9384 126.821V139.645C61.3668 139.046 58.7454 138.686 56.1077 138.569C54.3387 138.478 52.5859 138.946 51.0988 139.909C49.8098 140.754 48.7917 141.953 48.1664 143.362C47.7189 143.282 47.2757 143.181 46.8385 143.057C46.2841 142.91 45.6563 142.744 44.9788 142.624C44.4807 142.483 44.0065 142.268 43.5719 141.986C43.1496 141.749 42.725 141.515 42.2847 141.32C39.2111 139.957 35.9298 140.514 33.0335 141.008C31.9201 141.219 30.7966 141.372 29.6675 141.468C26.8111 141.496 23.9657 141.111 21.2192 140.325L19.5481 139.936C15.8501 139.076 5.20674 139.421 1.94575 139.945C1.34355 140.046 0.805718 140.381 0.449614 140.877C0.0935101 141.373 -0.0519617 141.99 0.0449398 142.592C0.141841 143.195 0.47325 143.735 0.966855 144.095C1.46046 144.454 2.07616 144.604 2.67967 144.511Z" fill="black"/>
<path d="M90.3412 68.3557C90.5452 68.6977 90.8341 68.9811 91.18 69.1784C91.5258 69.3757 91.9169 69.4802 92.315 69.4817C92.4109 69.4818 92.5066 69.4759 92.6018 69.4642C94.8615 69.303 96.9851 68.3247 98.5761 66.7119C99.2711 67.1396 100.078 67.3508 100.893 67.3184C101.709 67.286 102.496 67.0116 103.155 66.5301C103.719 66.128 104.193 65.6139 104.549 65.0199L104.6 65.1035C105.013 65.8291 105.673 66.3822 106.46 66.6622C107.245 66.891 108.085 66.8399 108.837 66.5177C109.713 66.1998 110.609 65.9359 111.517 65.7273C111.871 65.6281 112.238 65.5879 112.605 65.6082C112.615 65.6223 112.625 65.6364 112.636 65.6506C112.932 66.0605 113.297 66.4161 113.714 66.7017C114.046 67.0165 114.465 67.2253 114.917 67.3015C115.369 67.3776 115.833 67.3176 116.251 67.1292C134.513 58.8886 144.789 40.7071 147.503 35.3312C147.943 34.4629 148.097 33.4777 147.943 32.5165C147.789 31.5554 147.335 30.6676 146.646 29.9801L118.039 1.35445C117.319 0.634128 116.382 0.171992 115.372 0.0399581C114.362 -0.0920757 113.337 0.113399 112.456 0.624407C103.669 5.70616 95.5352 11.8408 88.2343 18.8924C79.8018 27.3311 72.6927 38.6317 70.0279 43.0963C69.4998 43.9791 69.2819 45.0129 69.4088 46.0337C69.5356 47.0545 69.9999 48.0036 70.728 48.7302L90.3412 68.3557ZM91.5066 22.1613C96.762 17.03 102.509 12.428 108.665 8.42166L109.042 8.79893C109.446 9.20329 109.985 9.44386 110.555 9.47424C111.126 9.50463 111.688 9.32268 112.132 8.96348C112.576 8.60429 112.872 8.0933 112.961 7.52908C113.051 6.96485 112.929 6.38738 112.618 5.90803C113.446 5.40238 114.179 4.96625 114.768 4.6239L143.375 33.2467C143.078 33.8362 142.679 34.5953 142.187 35.4791C141.714 35.1463 141.134 35.0031 140.56 35.0778C139.987 35.1525 139.462 35.4397 139.09 35.8826C138.718 36.3256 138.526 36.8919 138.551 37.4697C138.577 38.0475 138.818 38.5947 139.228 39.0031L139.759 39.5342C135.289 46.51 127.321 56.5306 115.777 62.2364C114.564 61.0408 112.789 60.6917 110.485 61.2186C109.678 61.4038 108.872 61.6279 108.077 61.8882C107.736 61.2813 107.289 60.7403 106.757 60.291C106.339 59.9541 105.859 59.7028 105.344 59.5517C104.829 59.4006 104.289 59.3525 103.756 59.4103C103.303 59.4613 102.865 59.6044 102.469 59.8307C102.073 60.057 101.728 60.3617 101.454 60.7263C101.152 61.1593 100.93 61.6433 100.799 62.1552C100.771 62.2491 100.738 62.3411 100.698 62.4307C100.61 62.3516 100.508 62.2692 100.4 62.1879L99.2548 61.0419C98.894 60.6787 98.4226 60.4459 97.9148 60.3803C97.4071 60.3147 96.8919 60.4201 96.4507 60.6797C96.0094 60.9393 95.6672 61.3385 95.4779 61.8142C95.2887 62.2899 95.2632 62.8151 95.4055 63.3069L95.3671 63.355C94.8062 64.0218 94.0373 64.4805 93.1841 64.6575L73.9991 45.4681C74.338 44.9001 74.7554 44.2121 75.2356 43.4372C75.7193 43.7255 76.2917 43.8271 76.8451 43.7228C77.3984 43.6184 77.8946 43.3154 78.24 42.8707C78.5855 42.426 78.7564 41.8703 78.7207 41.3084C78.6849 40.7464 78.445 40.2169 78.0459 39.8195L77.7465 39.5199C81.7675 33.307 86.3753 27.4942 91.5066 22.1613Z" fill="black"/>
<path d="M108.731 47.9867C108.775 47.9867 108.819 47.9867 108.862 47.9862C115.192 47.928 119.682 43.8456 120.872 37.0656C120.92 36.7835 120.915 36.4949 120.857 36.2146C121.722 35.3526 122.459 34.371 123.044 33.2998C123.189 33.0328 123.28 32.7398 123.311 32.4377C123.343 32.1356 123.314 31.8302 123.228 31.5391C123.141 31.248 122.998 30.9767 122.806 30.7409C122.615 30.5051 122.379 30.3094 122.112 30.1648C121.845 30.0203 121.552 29.9298 121.249 29.8985C120.947 29.8672 120.642 29.8958 120.351 29.9826C120.06 30.0693 119.789 30.2126 119.553 30.4042C119.317 30.5958 119.122 30.8319 118.977 31.0991C118.655 31.6713 118.263 32.2013 117.811 32.6766C117.659 32.2641 117.391 31.9039 117.041 31.6389C109.609 26.0546 105.278 29.9954 102.409 32.6037C100.183 34.6277 99.1923 35.343 97.5878 34.8185C97.2048 34.693 96.7957 34.6697 96.4009 34.751C96.0062 34.8323 95.6395 35.0154 95.3374 35.282C95.0352 35.5487 94.808 35.8898 94.6782 36.2713C94.5485 36.6529 94.5208 37.0618 94.5978 37.4574C95.7314 43.2872 102.056 47.9867 108.731 47.9867ZM105.521 36.0256C108.292 33.5061 109.845 32.1069 114.057 35.1902C112.961 35.6715 111.748 35.8193 110.57 35.6152C109.979 35.4524 109.348 35.5307 108.815 35.8327C108.282 36.1347 107.891 36.6358 107.727 37.226C107.563 37.8162 107.64 38.4474 107.941 38.9809C108.242 39.5145 108.742 39.9068 109.332 40.0719C110.033 40.2594 110.755 40.3513 111.481 40.3452C112.732 40.3231 113.971 40.1061 115.156 39.702C114.539 40.8358 113.621 41.7774 112.503 42.423C111.385 43.0686 110.111 43.3932 108.82 43.3611C107.209 43.3614 105.618 43.0008 104.165 42.3059C102.711 41.611 101.431 40.5994 100.42 39.3453C102.354 38.6475 104.1 37.5112 105.521 36.0256Z" fill="black"/>
<path d="M132.701 32.472L135.148 34.9211C135.581 35.3551 136.169 35.599 136.783 35.5993C137.396 35.5996 137.984 35.3563 138.418 34.9228C138.852 34.4893 139.096 33.9012 139.097 33.2879C139.097 32.6745 138.854 32.0862 138.42 31.6522L135.973 29.2031C135.759 28.9882 135.504 28.8178 135.223 28.7014C134.943 28.585 134.642 28.5251 134.338 28.5249C134.035 28.5247 133.734 28.5844 133.453 28.7005C133.173 28.8166 132.917 28.9868 132.703 29.2014C132.488 29.4161 132.317 29.6709 132.201 29.9514C132.085 30.232 132.025 30.5327 132.024 30.8364C132.024 31.1401 132.084 31.4408 132.2 31.7215C132.316 32.0021 132.486 32.2571 132.701 32.472Z" fill="black"/>
<path d="M126.175 25.9422L128.621 28.3908C128.836 28.6056 129.091 28.7761 129.371 28.8925C129.652 29.0089 129.953 29.0688 130.256 29.069C130.56 29.0692 130.861 29.0095 131.141 28.8934C131.422 28.7773 131.677 28.6071 131.892 28.3925C132.107 28.1778 132.277 27.923 132.394 27.6425C132.51 27.3619 132.57 27.0612 132.57 26.7575C132.57 26.4538 132.511 26.1531 132.395 25.8724C132.279 25.5918 132.108 25.3368 131.894 25.1219L129.447 22.6733C129.013 22.2394 128.425 21.9954 127.812 21.9951C127.199 21.9948 126.61 22.2381 126.176 22.6716C125.742 23.1051 125.498 23.6932 125.498 24.3066C125.498 24.9199 125.741 25.5083 126.175 25.9422Z" fill="black"/>
<path d="M119.648 19.4117L122.095 21.8603C122.529 22.2942 123.117 22.5382 123.73 22.5385C124.343 22.5388 124.932 22.2954 125.366 21.862C125.8 21.4285 126.044 20.8404 126.044 20.227C126.044 19.6137 125.801 19.0253 125.367 18.5914L122.92 16.1428C122.487 15.7089 121.899 15.4649 121.286 15.4646C120.672 15.4643 120.084 15.7076 119.65 16.1411C119.216 16.5746 118.972 17.1627 118.972 17.7761C118.971 18.3894 119.215 18.9778 119.648 19.4117Z" fill="black"/>
<path d="M115.568 15.3298C116.002 15.7638 116.59 16.0077 117.203 16.008C117.817 16.0084 118.405 15.765 118.839 15.3315C119.273 14.898 119.517 14.3099 119.517 13.6966C119.517 13.0832 119.274 12.4949 118.841 12.0609L116.394 9.61238C115.959 9.18205 115.372 8.94116 114.761 8.94239C114.15 8.94361 113.564 9.18685 113.131 9.61892C112.699 10.051 112.455 10.6367 112.453 11.2481C112.451 11.8594 112.692 12.4466 113.121 12.8813L115.568 15.3298Z" fill="black"/>
<path d="M78.4319 46.7479L80.6258 48.9435C81.0593 49.3774 81.6474 49.6214 82.2608 49.6217C82.8741 49.622 83.4625 49.3787 83.8964 48.9452C84.3303 48.5117 84.5743 47.9236 84.5746 47.3103C84.5749 46.6969 84.3316 46.1086 83.8981 45.6746L81.7042 43.479C81.2707 43.0451 80.6826 42.8011 80.0692 42.8008C79.4559 42.8005 78.8675 43.0438 78.4336 43.4773C77.9996 43.9108 77.7557 44.4989 77.7554 45.1122C77.7551 45.7256 77.9984 46.3139 78.4319 46.7479Z" fill="black"/>
<path d="M84.2821 52.6031L86.476 54.7982C86.91 55.2307 87.4978 55.4733 88.1104 55.4729C88.7231 55.4725 89.3105 55.2291 89.7439 54.796C90.1772 54.3629 90.4211 53.7756 90.4219 53.163C90.4228 52.5503 90.1805 51.9624 89.7483 51.5282L87.5544 49.3331C87.1207 48.8997 86.5326 48.6562 85.9194 48.6563C85.3063 48.6563 84.7182 48.8997 84.2845 49.3332C83.8508 49.7666 83.6069 50.3545 83.6064 50.9677C83.606 51.5808 83.849 52.1691 84.2821 52.6031Z" fill="black"/>
<path d="M90.1331 58.4566L92.327 60.6522C92.7605 61.0862 93.3486 61.3301 93.962 61.3304C94.5753 61.3308 95.1637 61.0874 95.5976 60.6539C96.0315 60.2204 96.2755 59.6323 96.2758 59.019C96.2761 58.4056 96.0328 57.8173 95.5993 57.3833L93.4053 55.1877C92.9719 54.7538 92.3837 54.5098 91.7704 54.5095C91.157 54.5092 90.5687 54.7526 90.1347 55.186C89.7008 55.6195 89.4569 56.2076 89.4565 56.821C89.4562 57.4343 89.6996 58.0227 90.1331 58.4566Z" fill="black"/>
<path d="M116.781 90.1875C118.058 90.1875 119.094 89.1522 119.094 87.875C119.094 86.5978 118.058 85.5625 116.781 85.5625C115.504 85.5625 114.469 86.5978 114.469 87.875C114.469 89.1522 115.504 90.1875 116.781 90.1875Z" fill="black"/>
<path d="M119.774 79.1013C121.051 79.1013 122.086 78.066 122.086 76.7888C122.086 75.5117 121.051 74.4763 119.774 74.4763C118.497 74.4763 117.461 75.5117 117.461 76.7888C117.461 78.066 118.497 79.1013 119.774 79.1013Z" fill="black"/>
<path d="M99.8462 107.123C101.123 107.123 102.159 106.087 102.159 104.81C102.159 103.533 101.123 102.498 99.8462 102.498C98.569 102.498 97.5337 103.533 97.5337 104.81C97.5337 106.087 98.569 107.123 99.8462 107.123Z" fill="black"/>
<path d="M110.739 100.185C112.016 100.185 113.052 99.1497 113.052 97.8726C113.052 96.5954 112.016 95.5601 110.739 95.5601C109.462 95.5601 108.427 96.5954 108.427 97.8726C108.427 99.1497 109.462 100.185 110.739 100.185Z" fill="black"/>
<path d="M116.781 110.633C118.058 110.633 119.094 109.597 119.094 108.32C119.094 107.043 118.058 106.008 116.781 106.008C115.504 106.008 114.469 107.043 114.469 108.32C114.469 109.597 115.504 110.633 116.781 110.633Z" fill="black"/>
<path d="M105.083 122.33C106.361 122.33 107.396 121.295 107.396 120.018C107.396 118.74 106.361 117.705 105.083 117.705C103.806 117.705 102.771 118.74 102.771 120.018C102.771 121.295 103.806 122.33 105.083 122.33Z" fill="black"/>
<path d="M107.065 80.4714C108.342 80.4714 109.377 79.4361 109.377 78.1589C109.377 76.8818 108.342 75.8464 107.065 75.8464C105.788 75.8464 104.752 76.8818 104.752 78.1589C104.752 79.4361 105.788 80.4714 107.065 80.4714Z" fill="black"/>
</g>
<defs>
<clipPath id="clip0_76_248">
<rect width="148" height="148" fill="white"/>
</clipPath>
</defs>
</svg>
