<svg width="59" height="62" viewBox="0 0 59 62" fill="none" xmlns="http://www.w3.org/2000/svg">
<path d="M1.03136 2.05281C1.26542 1.06844 2.14917 0.375 3.15761 0.375C3.16198 0.375 3.16636 0.375 3.17073 0.375C14.6923 0.447187 42.7098 2.37875 54.0214 18.7063C59.897 27.1894 60.4023 38.2034 55.5242 51.4422C55.487 51.545 55.4104 51.615 55.3601 51.7091C57.1035 56.025 57.7795 58.8972 57.797 58.9781C58.0507 60.1594 57.296 61.3231 56.1148 61.5769C55.9617 61.6097 55.8085 61.625 55.6554 61.625C54.647 61.625 53.7392 60.9228 53.5182 59.8969C53.4723 59.6737 47.8985 37.2059 28.1935 24.07C27.1873 23.4006 26.916 22.0422 27.5876 21.0359C28.2592 20.0297 29.6154 19.7563 30.6217 20.43C41.7954 27.8784 48.6773 37.9475 52.7242 45.9275C55.6204 35.9131 54.8614 27.6028 50.4229 21.1978C41.6882 8.58906 20.9704 5.54844 8.46449 4.90531C11.1551 8.845 14.0951 16.0681 14.0951 28.8125C14.0951 35.6375 16.031 40.8919 19.846 44.4312C25.9623 50.0991 35.8979 50.6306 43.1648 50.0838C44.3723 49.9853 45.4201 50.8953 45.512 52.1006C45.6039 53.3037 44.7004 54.3538 43.4973 54.4456C42.0426 54.5572 40.4895 54.625 38.8751 54.625C31.477 54.625 22.8473 53.1747 16.8732 47.6381C12.1264 43.2391 9.72011 36.9062 9.72011 28.8147C9.72011 8.91063 2.21699 4.54219 2.1798 4.5225C1.2698 4.06531 0.792923 3.04156 1.03136 2.05281Z" fill="#D8D018"/>
</svg>
