<svg width="28" height="40" viewBox="0 0 28 40" fill="none" xmlns="http://www.w3.org/2000/svg">
<path d="M13.9177 39.7992L13.2226 38.8067C12.6998 38.0592 0.403809 20.4158 0.403809 13.3333C0.403809 5.98167 6.46648 0 13.9177 0C21.3689 0 27.4316 5.98167 27.4316 13.3333C27.4316 20.4158 15.1356 38.0592 14.6128 38.8067L13.9177 39.7992ZM13.9177 1.66667C7.39725 1.66667 2.09304 6.9 2.09304 13.3333C2.09304 18.9892 11.2867 32.9625 13.9177 36.845C16.5487 32.9625 25.7424 18.9892 25.7424 13.3333C25.7424 6.9 20.4381 1.66667 13.9177 1.66667Z" fill="white"/>
<path d="M13.9177 19.1667C10.6583 19.1667 8.00537 16.55 8.00537 13.3333C8.00537 10.1167 10.6583 7.5 13.9177 7.5C17.1771 7.5 19.83 10.1167 19.83 13.3333C19.83 16.55 17.1771 19.1667 13.9177 19.1667ZM13.9177 9.16667C11.5891 9.16667 9.69461 11.0358 9.69461 13.3333C9.69461 15.6308 11.5891 17.5 13.9177 17.5C16.2463 17.5 18.1408 15.6308 18.1408 13.3333C18.1408 11.0358 16.2463 9.16667 13.9177 9.16667Z" fill="white"/>
</svg>
