<svg width="108" height="106" viewBox="0 0 108 106" fill="none" xmlns="http://www.w3.org/2000/svg">
<g clip-path="url(#clip0_96_2)">
<path d="M106.504 72.3455C104.247 69.1043 99.9369 68.1031 96.475 70.0376L76.1793 81.4073C76.2472 80.9831 76.2981 80.5588 76.2981 80.1176C76.2981 76.0109 72.955 72.6849 68.8653 72.6849H57.5126C55.3575 72.6849 53.1514 72.0061 51.132 70.6994C48.2132 68.8328 44.0217 67.7467 39.6265 67.7467C34.1284 67.7467 29.1562 69.3758 26.3393 72.0909C24.3878 73.9746 21.6556 75.0097 18.669 75.0097H12.3223V73.177C12.3223 72.4813 11.7453 71.9043 11.0496 71.9043H1.39382C0.698063 71.9043 0.121094 72.4813 0.121094 73.177V105.182C0.121094 105.878 0.698063 106.455 1.39382 106.455H11.0496C11.7453 106.455 12.3223 105.878 12.3223 105.182V103.689C28.3417 98.9709 47.7041 103.23 47.9756 103.281C48.6035 103.383 49.2314 103.468 49.8423 103.536C60.3805 104.825 71.4278 102.467 80.9478 96.8837L104.094 83.3249C105.927 82.2558 107.251 80.44 107.709 78.3528C108.15 76.2825 107.726 74.0934 106.504 72.3455ZM9.77685 103.909H2.66655V74.4497H9.77685V103.909ZM105.214 77.8267C104.909 79.2352 104.044 80.4061 102.805 81.1358L79.675 94.6946C70.6472 99.9891 60.1599 102.246 50.1647 101.007C49.5708 100.939 48.9769 100.855 48.4678 100.787C47.9417 100.668 39.8641 98.8861 29.7672 98.8861C24.252 98.8861 18.1429 99.4122 12.3223 101.024V77.5552H18.669C22.3175 77.5552 25.6775 76.2655 28.1041 73.9237C30.429 71.6837 34.8411 70.2922 39.6265 70.2922C43.5466 70.2922 47.229 71.2255 49.7575 72.8376C52.2011 74.3988 54.8823 75.2303 57.5126 75.2303H68.8653C71.5635 75.2303 73.7526 77.4194 73.7526 80.1176C73.7526 81.4922 73.1756 82.7479 72.2593 83.6303C72.2084 83.6643 72.1744 83.7152 72.1235 83.7491C71.2581 84.5297 70.1041 85.0049 68.8484 85.0049H49.6726C48.9769 85.0049 48.3999 85.5819 48.3999 86.2776C48.3999 86.9734 48.9769 87.5503 49.6726 87.5503H68.8484C70.749 87.5503 72.4968 86.8376 73.8035 85.6497L97.6969 72.2606C100.005 70.9709 102.873 71.6328 104.383 73.8049C105.231 74.9928 105.52 76.4182 105.214 77.8267Z" fill="#8B38C1"/>
<path d="M27.7822 65.9479C27.7822 66.6436 28.3422 67.1867 29.055 67.1867C29.7507 67.1867 30.3277 66.5927 30.3277 65.88C30.3277 61.0945 31.4816 56.5976 33.484 52.5757C34.044 53.5939 34.5022 54.68 34.7737 55.766C35.164 57.3273 35.8089 59.9406 38.1847 60.246C39.3725 60.3988 40.3568 59.8218 41.1204 59.3467C41.375 59.1939 41.6465 59.0242 41.918 58.9054C43.6659 58.1248 45.8889 59.5503 47.0768 60.4497C49.1301 62.0448 50.5047 63.64 51.2513 65.3539C51.5568 66.0327 51.7604 66.7963 51.8283 67.526C51.8962 68.1709 52.4562 68.663 53.084 68.663C53.135 68.663 53.1689 68.663 53.2198 68.663C53.9156 68.5782 54.4247 67.9503 54.3398 67.2545C54.238 66.2533 53.9665 65.2691 53.5592 64.3357C52.6428 62.2315 51.0137 60.3139 48.604 58.4473C45.7531 56.2412 43.0719 55.5964 40.8659 56.5806C40.4925 56.7503 40.1362 56.9539 39.7798 57.1745C39.2877 57.48 38.8125 57.7515 38.4901 57.7176C37.8283 57.6327 37.455 56.0715 37.2174 55.1382C36.7762 53.3563 35.9616 51.6085 34.8756 50.0133C40.1701 41.5454 49.5713 35.8776 60.2792 35.8776C66.1168 35.8776 71.5471 37.5745 76.1628 40.4763C77.2828 42.5466 78.1483 44.7188 78.7253 46.9418C79.3362 49.3515 79.455 51.2521 79.0647 52.9151C78.6234 54.8497 77.4016 56.4279 75.8743 57.0048C74.8392 57.3951 73.6513 57.3951 72.3786 57.3951C71.5131 57.3951 70.5798 57.3951 69.6465 57.5139C65.0307 58.1757 61.0598 62.2654 60.0247 67.4582C59.8889 68.1539 60.3301 68.8157 61.0259 68.9515C61.1107 68.9685 61.1956 68.9685 61.2804 68.9685C61.8743 68.9685 62.4004 68.5442 62.5192 67.9503C63.2319 64.4376 66.0319 60.5854 70.0198 60.0254C70.7665 59.9236 71.5471 59.9236 72.3786 59.9236C73.838 59.9406 75.3313 59.9236 76.7907 59.3636C79.0986 58.4812 80.9143 56.2242 81.5422 53.4582C82.0174 51.3879 81.8986 49.1139 81.1859 46.297C80.9653 45.3976 80.6768 44.5151 80.3543 43.6497C86.4125 49.1309 90.2477 57.0388 90.2477 65.846C90.2477 66.6945 90.1968 67.526 90.1119 68.3576C90.044 69.0533 90.5701 69.6812 91.2659 69.7321C91.2998 69.7321 91.3337 69.7321 91.3677 69.7321C92.0295 69.7321 92.5725 69.223 92.6404 68.5612C92.7083 67.7636 92.7762 66.8133 92.7762 65.846C92.7762 54.4085 86.8368 44.3624 77.8937 38.5588C77.8768 38.5418 77.8428 38.5248 77.8089 38.5079C73.0743 35.4533 67.5083 33.6206 61.518 33.383V30.5151H62.655C71.5301 30.5151 78.7422 23.303 78.7422 14.4279V12.0691C78.7422 11.3733 78.1653 10.7963 77.4695 10.7963H75.0598C72.3447 10.7963 69.7653 11.4751 67.5253 12.68C67.5083 8.53938 65.8792 4.60241 62.9095 1.61574L61.2125 -0.0812265C60.7204 -0.573348 59.9059 -0.573348 59.4137 -0.0812265L57.7168 1.61574C54.7301 4.60241 53.118 8.52241 53.0501 12.663C50.7931 11.4582 48.2307 10.7794 45.5156 10.7794H43.1059C42.4101 10.7794 41.8331 11.3563 41.8331 12.0521V14.4618C41.8331 23.337 49.0453 30.5491 57.9204 30.5491H59.0574V33.417C47.7047 33.8582 37.8622 40.12 32.381 49.3345C32.3301 49.4024 32.2962 49.4533 32.2622 49.5382C29.4113 54.3745 27.7822 59.9576 27.7822 65.9479ZM76.2477 13.3418V14.4788C76.2477 21.9454 70.1725 28.0206 62.7059 28.0206H61.5689V27.9018V26.8836C61.5689 19.417 67.644 13.3418 75.1107 13.3418H76.2477ZM59.4986 3.41453L60.2962 2.61696L61.0937 3.41453C63.9956 6.31635 65.404 10.3042 64.9628 14.3939C62.9434 16.04 61.3144 18.1612 60.2792 20.6048C59.244 18.1612 57.6319 16.04 55.5956 14.3939C55.1883 10.3042 56.5798 6.33332 59.4986 3.41453ZM44.3447 14.4788V13.3418H45.4816C52.9483 13.3418 59.0234 19.417 59.0234 26.8836V27.9018V28.0206H57.8865C50.4198 28.0206 44.3447 21.9454 44.3447 14.4788Z" fill="#8B38C1"/>
</g>
<defs>
<clipPath id="clip0_96_2">
<rect width="108" height="106" fill="white"/>
</clipPath>
</defs>
</svg>
