<svg width="96" height="98" viewBox="0 0 96 98" fill="none" xmlns="http://www.w3.org/2000/svg">
<g clip-path="url(#clip0_96_71)">
<path d="M95.745 95.6512C95.6827 95.5266 89.564 83.0442 81.2775 69.8699L85.0093 64.3184L89.594 64.3012C91.1135 64.2921 92.5678 63.6831 93.6402 62.6066C94.7126 61.5302 95.3163 60.0736 95.3196 58.5541V57.0502C95.3201 56.2779 95.1649 55.5135 94.8633 54.8025C94.5616 54.0916 94.1197 53.4487 93.564 52.9125C93.0082 52.3762 92.3501 51.9574 91.6288 51.6813C90.9076 51.4052 90.1381 51.2773 89.3663 51.3053L88.436 51.3397C87.9474 51.3663 87.4634 51.2328 87.0574 50.9594C86.6515 50.6861 86.3458 50.2878 86.1866 49.825L85.8665 48.9528C85.5998 48.228 85.1896 47.5645 84.6606 47.0019C84.1316 46.4392 83.4946 45.989 82.7876 45.6782C82.0807 45.3673 81.3183 45.2022 80.5461 45.1926C79.7739 45.1831 79.0077 45.3294 78.2933 45.6227L76.9032 46.1899C75.4977 46.767 74.3772 47.8762 73.786 49.2759C73.1949 50.6756 73.1809 52.2522 73.7472 53.6621L75.4659 57.9117L74.3616 59.5553C63.9245 45.0104 55.0601 37.6412 47.9982 37.6412C43.1341 37.6412 37.3913 41.1453 30.9224 48.0547L28.037 46.1942C27.4798 45.8337 26.8433 45.6141 26.1824 45.5542C25.5214 45.4943 24.8558 45.596 24.2429 45.8504L20.1415 47.5455C19.4234 47.8441 18.8046 48.3399 18.3567 48.9757C17.9088 49.6114 17.6501 50.361 17.6107 51.1377L17.0886 61.6651C17.0485 62.4497 17.2358 63.2293 17.6278 63.9102L18.079 64.7008C8.1253 79.6024 0.330773 95.4922 0.246984 95.6512C0.14608 95.8577 0.0993451 96.0865 0.111171 96.3161C0.122996 96.5456 0.192993 96.7684 0.314585 96.9634C0.436176 97.1585 0.605369 97.3195 0.80626 97.4311C1.00715 97.5428 1.23314 97.6016 1.463 97.602H94.529C94.7589 97.6016 94.9849 97.5428 95.1857 97.4311C95.3866 97.3195 95.5558 97.1585 95.6774 96.9634C95.799 96.7684 95.869 96.5456 95.8808 96.3161C95.8927 96.0865 95.8459 95.8577 95.745 95.6512ZM77.9323 48.6971L79.3224 48.1299C79.7004 47.9757 80.1056 47.8992 80.5138 47.9051C80.922 47.9109 81.3248 47.999 81.6982 48.1641C82.0716 48.3291 82.4079 48.5677 82.6871 48.8657C82.9662 49.1636 83.1824 49.5147 83.3228 49.8981L83.6429 50.7725C84.0064 51.7668 84.6757 52.6204 85.5546 53.2106C86.4335 53.8008 87.4769 54.0973 88.5349 54.0574L89.4651 54.0252C89.8737 54.0132 90.2805 54.083 90.6617 54.2306C91.0428 54.3782 91.3906 54.6006 91.6845 54.8846C91.9796 55.167 92.2141 55.5066 92.3736 55.8826C92.5332 56.2586 92.6145 56.6632 92.6126 57.0717V58.5756C92.6103 59.3791 92.2907 60.1492 91.7234 60.7182C91.156 61.2872 90.3868 61.609 89.5833 61.6135L84.281 61.6328C84.0596 61.6338 83.8419 61.6889 83.6468 61.7934C83.4517 61.8979 83.2851 62.0486 83.1616 62.2322L73.4636 76.6504L68.4105 73.258L78.1085 58.827C78.2322 58.6437 78.309 58.4329 78.3322 58.213C78.3554 57.9931 78.3244 57.7709 78.2417 57.5658L76.263 52.6524C75.9622 51.9063 75.969 51.0715 76.2818 50.3304C76.5946 49.5893 77.188 49.0021 77.9323 48.6971ZM20.3155 51.2752C20.3297 51.0116 20.4178 50.7573 20.5698 50.5415C20.7218 50.3257 20.9315 50.157 21.1749 50.0549L25.2806 48.3555C25.489 48.2695 25.7151 48.2353 25.9396 48.2559C26.1642 48.2765 26.3803 48.3512 26.5696 48.4737L32.9097 52.5557C33.454 52.9049 34.0728 53.1214 34.7161 53.1878C35.3594 53.2543 36.0094 53.1687 36.6136 52.9381L37.4493 52.6158C37.681 52.5268 37.9323 52.5011 38.1772 52.5412C38.4222 52.5814 38.652 52.686 38.8432 52.8444C39.0343 53.0027 39.1799 53.2091 39.2649 53.4423C39.35 53.6755 39.3714 53.9271 39.3271 54.1713L39.1122 55.3121C38.967 56.104 39.0578 56.9211 39.3733 57.6618C39.6888 58.4025 40.2152 59.0341 40.8868 59.478L43.7206 61.3514C44.0267 61.551 44.2417 61.8634 44.3189 62.2205C44.3961 62.5777 44.3294 62.9509 44.1331 63.2592L42.2275 66.3057C42.0852 66.5372 41.8773 66.7212 41.6302 66.8342C40.3411 67.3928 37.9607 68.1233 36.3192 66.7225C35.8216 66.3013 35.2303 66.0055 34.5949 65.8597C33.9595 65.7139 33.2984 65.7224 32.6669 65.8846C32.0423 66.0417 31.4644 66.3463 30.9818 66.7728C30.4992 67.1994 30.1259 67.7354 29.8933 68.336C29.3677 69.6973 29.2395 71.18 29.5237 72.6114C29.5537 72.777 29.5501 72.9469 29.5132 73.1111C29.4762 73.2754 29.4068 73.4305 29.3089 73.5674C29.0868 73.8895 28.7461 74.1105 28.3614 74.1819L25.7017 74.6696C25.4548 74.7149 25.2002 74.6929 24.9647 74.606C24.7292 74.519 24.5214 74.3703 24.3632 74.1754C24.205 73.9805 24.1021 73.7466 24.0655 73.4982C24.0288 73.2499 24.0597 72.9962 24.1548 72.7639C24.3575 72.2035 24.4357 71.6056 24.3837 71.0119C24.3318 70.4183 24.151 69.8431 23.854 69.3264L19.9868 62.5588C19.8538 62.3266 19.7897 62.0613 19.8021 61.794L20.3155 51.2752ZM57.7735 90.0352C57.7731 89.1584 58.0328 88.3012 58.5196 87.572C59.0065 86.8428 59.6987 86.2743 60.5086 85.9386C61.3186 85.6029 62.21 85.5149 63.0699 85.6859C63.9299 85.8568 64.7198 86.279 65.3398 86.899C65.9598 87.519 66.382 88.3089 66.5529 89.1689C66.7239 90.0288 66.6359 90.9202 66.3002 91.7302C65.9645 92.5401 65.396 93.2323 64.6668 93.7192C63.9376 94.206 63.0804 94.4657 62.2036 94.4653C61.0292 94.4636 59.9034 93.9963 59.073 93.1658C58.2425 92.3354 57.7752 91.2096 57.7735 90.0352ZM67.4243 94.8992C68.3741 93.8821 69.006 92.6096 69.2423 91.2382C69.4787 89.8668 69.3092 88.4563 68.7547 87.1799C68.2003 85.9035 67.2849 84.8169 66.1213 84.0537C64.9576 83.2905 63.5963 82.8839 62.2047 82.8839C60.8131 82.8839 59.4518 83.2905 58.2881 84.0537C57.1244 84.8169 56.2091 85.9035 55.6546 87.1799C55.1002 88.4563 54.9307 89.8668 55.167 91.2382C55.4034 92.6096 56.0353 93.8821 56.9851 94.8992H3.6673C5.97257 90.3768 12.1107 78.6871 19.5872 67.3348L21.5079 70.6864C21.612 70.8715 21.6733 71.0775 21.6874 71.2894C21.7015 71.5013 21.6681 71.7137 21.5896 71.911C21.3687 72.5297 21.2995 73.1924 21.3875 73.8434C21.4756 74.4944 21.7184 75.1149 22.0957 75.6527C22.473 76.1905 22.9737 76.6301 23.5559 76.9345C24.1381 77.2389 24.7847 77.3994 25.4417 77.4024C25.696 77.4017 25.9498 77.3787 26.2001 77.3336L28.8599 76.8459C29.4028 76.7453 29.9205 76.5387 30.3835 76.2379C30.8466 75.9371 31.2458 75.548 31.5583 75.0928C31.8575 74.6603 32.0673 74.1724 32.1754 73.6578C32.2835 73.1431 32.2877 72.612 32.1878 72.0957C32.0028 71.1607 32.0862 70.1924 32.4284 69.3028C32.5054 69.1076 32.6284 68.9339 32.787 68.7966C32.9457 68.6593 33.1352 68.5624 33.3394 68.5143C33.5511 68.4565 33.7738 68.4514 33.9879 68.4993C34.2021 68.5473 34.4013 68.6468 34.5683 68.7893C36.59 70.508 39.5634 70.7035 42.7323 69.3178C43.4759 68.9881 44.1032 68.4424 44.5327 67.7516L46.4427 64.703C47.016 63.7941 47.2078 62.6959 46.9765 61.6465C46.7453 60.5972 46.1096 59.6813 45.2073 59.0977L42.3714 57.2221C42.1425 57.0712 41.9632 56.8563 41.8558 56.6041C41.7485 56.3519 41.7178 56.0737 41.7677 55.8041L41.9825 54.6655C42.1138 53.948 42.0516 53.2085 41.8024 52.523C41.5532 51.8375 41.126 51.2308 40.5647 50.765C40.0034 50.2993 39.3282 49.9914 38.6085 49.8731C37.8888 49.7547 37.1506 49.83 36.4696 50.0914L35.6317 50.4137C35.4265 50.4931 35.2053 50.5226 34.9865 50.4998C34.7676 50.477 34.5573 50.4026 34.3728 50.2826L33.2319 49.5479C39.022 43.4442 43.987 40.3504 47.996 40.3504C54.1792 40.3504 62.7278 47.8205 72.7439 61.9615L65.4112 72.8756C65.3116 73.0229 65.242 73.1884 65.2065 73.3626C65.1711 73.5368 65.1704 73.7164 65.2045 73.8909C65.2387 74.0654 65.307 74.2314 65.4055 74.3794C65.504 74.5274 65.6308 74.6545 65.7786 74.7533L73.0833 79.6561C73.2308 79.7555 73.3965 79.8249 73.5708 79.8602C73.7452 79.8956 73.9248 79.8962 74.0994 79.8621C74.274 79.828 74.4402 79.7598 74.5884 79.6614C74.7366 79.563 74.864 79.4363 74.9632 79.2887L79.6296 72.3471C85.6151 81.9592 90.3718 91.0385 92.3398 94.9057L67.4243 94.8992Z" fill="#19D8C5"/>
<path d="M49.5383 73.5459L44.627 78.0705C44.4962 78.191 44.3905 78.336 44.3158 78.4974C44.2411 78.6587 44.1988 78.8332 44.1916 79.0109C44.1843 79.1885 44.2121 79.3659 44.2733 79.5328C44.3346 79.6997 44.4281 79.8529 44.5486 79.9837C44.6691 80.1145 44.8141 80.2202 44.9755 80.2949C45.1368 80.3697 45.3113 80.4119 45.4889 80.4191C45.6666 80.4264 45.8439 80.3986 46.0109 80.3374C46.1778 80.2761 46.331 80.1826 46.4618 80.0621L51.3731 75.5397C51.5116 75.4213 51.6249 75.2762 51.706 75.113C51.7872 74.9499 51.8347 74.7721 51.8456 74.5902C51.8565 74.4083 51.8306 74.2261 51.7695 74.0544C51.7083 73.8828 51.6133 73.7252 51.4899 73.5911C51.3665 73.457 51.2173 73.3492 51.0513 73.2741C50.8853 73.1989 50.7059 73.158 50.5237 73.1538C50.3415 73.1496 50.1604 73.1821 49.9911 73.2495C49.8218 73.3169 49.6678 73.4177 49.5383 73.5459Z" fill="#19D8C5"/>
<path d="M54.5591 56.9492C54.3138 56.6964 53.9797 56.549 53.6275 56.5382C53.2754 56.5275 52.9329 56.6542 52.6726 56.8916C52.4123 57.129 52.2547 57.4584 52.233 57.81C52.2114 58.1617 52.3275 58.5079 52.5567 58.7754L56.8214 63.4526C56.9488 63.5912 57.1035 63.7019 57.2758 63.7777C57.4481 63.8535 57.6343 63.8927 57.8226 63.893C58.1607 63.894 58.4868 63.7674 58.7357 63.5385C59.0005 63.2959 59.1585 62.9583 59.175 62.5995C59.1915 62.2408 59.0652 61.8901 58.8237 61.6242L54.5591 56.9492Z" fill="#19D8C5"/>
<path d="M35.2512 87.7255C34.6432 87.5107 32.8686 86.6513 32.6731 85.4267C32.4389 84.0195 33.99 82.9238 34.033 82.8937C34.3198 82.6895 34.5156 82.3815 34.5791 82.0353C34.6426 81.689 34.5686 81.3316 34.373 81.039C34.1773 80.7463 33.8753 80.5414 33.5311 80.4677C33.1868 80.394 32.8274 80.4574 32.5291 80.6443C32.4045 80.7281 29.4783 82.7175 30.0047 85.8714C30.5203 88.9673 34.2436 90.2414 34.4025 90.2951C34.7444 90.409 35.1176 90.3825 35.4399 90.2213C35.7622 90.0602 36.0073 89.7776 36.1213 89.4357C36.2353 89.0938 36.2087 88.7207 36.0476 88.3983C35.8864 88.076 35.6038 87.8309 35.2619 87.7169L35.2512 87.7255Z" fill="#19D8C5"/>
<path d="M14.1644 87.7943C14.0821 87.4447 13.8642 87.1422 13.5588 86.9532C13.2534 86.7642 12.8854 86.7043 12.5359 86.7867C12.1863 86.869 11.8838 87.0868 11.6948 87.3923C11.5058 87.6977 11.4459 88.0656 11.5283 88.4152L12.4328 92.2609C12.5021 92.5581 12.6701 92.823 12.9092 93.0126C13.1483 93.2022 13.4446 93.3053 13.7497 93.305C13.8547 93.3056 13.9593 93.2933 14.0613 93.2685C14.2344 93.2278 14.3978 93.1534 14.5422 93.0495C14.6865 92.9456 14.809 92.8143 14.9026 92.6631C14.9961 92.5118 15.059 92.3436 15.0875 92.1681C15.1161 91.9925 15.1097 91.8131 15.0689 91.64L14.1644 87.7943Z" fill="#19D8C5"/>
<path d="M49.9512 25.2426C50.2678 25.4136 50.6392 25.4517 50.9839 25.3488C51.3286 25.2459 51.6183 25.0102 51.7892 24.6937C51.9602 24.3772 51.9984 24.0057 51.8954 23.661C51.7925 23.3163 51.5568 23.0266 51.2403 22.8557C51.2038 22.8364 47.7233 20.9221 47.1583 18.1141C46.8897 16.7907 47.313 15.4586 48.4473 14.0321C53.0858 8.25062 50.7354 2.86019 48.8427 0.825618C48.5993 0.561515 48.2611 0.404881 47.9023 0.390175C47.5435 0.375469 47.1936 0.503895 46.9295 0.7472C46.6654 0.990505 46.5087 1.32876 46.494 1.68755C46.4793 2.04634 46.6077 2.39628 46.851 2.66038C47.0079 2.83441 50.643 6.95726 46.3354 12.3284C44.6833 14.3887 44.0645 16.5178 44.5007 18.6512C45.3257 22.7268 49.7622 25.1524 49.9512 25.2426Z" fill="#19D8C5"/>
<path d="M33.7277 33.4024C34.0445 33.5733 34.4162 33.6114 34.7611 33.5083C35.106 33.4051 35.3958 33.1692 35.5668 32.8524C35.7377 32.5356 35.7758 32.1638 35.6726 31.819C35.5695 31.4741 35.3336 31.1843 35.0168 31.0133C34.9824 30.9961 31.5062 29.0669 30.9347 26.2868C30.664 24.9612 31.0851 23.6249 32.2238 22.2047C36.8623 16.4233 34.5097 11.0329 32.617 8.9983C32.3696 8.74975 32.0356 8.6067 31.685 8.59919C31.3345 8.59168 30.9946 8.72029 30.7369 8.95802C30.4791 9.19575 30.3235 9.52411 30.3027 9.87413C30.2819 10.2242 30.3976 10.5686 30.6254 10.8352C30.7822 11.0092 34.4173 15.1321 30.1119 20.5032C28.4576 22.5657 27.8388 24.6926 28.2771 26.8282C29.0935 30.8866 33.5386 33.3014 33.7277 33.4024Z" fill="#19D8C5"/>
<path d="M66.1712 33.4024C66.3279 33.487 66.4998 33.54 66.677 33.5582C66.8542 33.5764 67.0332 33.5596 67.2039 33.5086C67.3745 33.4576 67.5335 33.3735 67.6717 33.2611C67.8099 33.1487 67.9245 33.0102 68.0092 32.8535C68.0938 32.6967 68.1468 32.5249 68.165 32.3477C68.1832 32.1705 68.1664 31.9915 68.1154 31.8208C68.0644 31.6501 67.9803 31.4912 67.8679 31.353C67.7555 31.2148 67.617 31.1001 67.4603 31.0155C67.4237 30.9961 63.9454 29.0819 63.3782 26.276C63.1118 24.9526 63.5351 23.6184 64.6673 22.194C69.3058 16.4126 66.9532 11.0221 65.0605 8.98756C64.8131 8.73901 64.4791 8.59596 64.1285 8.58845C63.778 8.58094 63.4381 8.70955 63.1804 8.94728C62.9226 9.18501 62.767 9.51337 62.7462 9.86339C62.7254 10.2134 62.8411 10.5579 63.0689 10.8245C63.2278 10.9985 66.8608 15.1213 62.5554 20.4924C60.9011 22.5549 60.2845 24.684 60.7206 26.8174C61.5478 30.8866 65.9821 33.3014 66.1712 33.4024Z" fill="#19D8C5"/>
<path d="M46.4792 43.7621C43.9011 43.9146 42.2425 45.9621 42.1823 46.0501C42.0714 46.1891 41.989 46.3485 41.9397 46.5193C41.8905 46.6901 41.8753 46.869 41.8952 47.0456C41.9353 47.4024 42.1154 47.7287 42.3961 47.9526C42.6767 48.1765 43.0348 48.2798 43.3916 48.2397C43.7483 48.1996 44.0746 48.0194 44.2985 47.7388C44.3093 47.7388 45.2975 46.5357 46.6618 46.4648C47.5727 46.4046 48.5309 46.8945 49.5042 47.8505C49.6297 47.9765 49.7789 48.0764 49.9431 48.1446C50.1074 48.2128 50.2835 48.2479 50.4613 48.2479C50.6391 48.2479 50.8152 48.2128 50.9795 48.1446C51.1437 48.0764 51.2929 47.9765 51.4184 47.8505C51.6724 47.5963 51.8151 47.2517 51.8151 46.8923C51.8151 46.533 51.6724 46.1883 51.4184 45.9341C49.8587 44.3894 48.185 43.6632 46.4792 43.7621Z" fill="#19D8C5"/>
</g>
<defs>
<clipPath id="clip0_96_71">
<rect width="96" height="98" fill="white"/>
</clipPath>
</defs>
</svg>
