<svg width="102" height="102" viewBox="0 0 102 102" fill="none" xmlns="http://www.w3.org/2000/svg">
<path d="M94.6443 69.3593C94.7808 68.2445 94.875 67.1233 94.875 65.9971V41.25C94.875 38.5622 92.6878 36.375 90 36.375H82.2325L86.5306 14.8892C86.6753 14.1547 86.75 13.4056 86.75 12.6597V12C86.75 5.72913 81.6459 0.625 75.375 0.625C69.1041 0.625 64 5.72913 64 12V12.6597C64 13.4056 64.0748 14.1548 64.221 14.8909L68.5175 36.375H60.75C58.0622 36.375 55.875 38.5622 55.875 41.25V65.9971C55.875 67.6497 56.0245 69.2991 56.3186 70.9193C53.925 71.6359 51.8872 73.243 50.6441 75.4725C48.5251 75.1524 46.5768 75.5749 44.7974 76.5401C42.1259 73.906 38.0016 73.0041 34.4234 74.452C32.6034 71.982 29.7353 70.5 26.625 70.5V65.625V64H34.75C42.8149 64 49.375 57.4399 49.375 49.375V47.75H38C33.4077 47.75 29.3079 49.882 26.625 53.2019V44.5H31.5C37.7709 44.5 42.875 39.3959 42.875 33.125V31.5H34.75C31.5683 31.5 28.692 32.8162 26.625 34.9304V31.5C26.625 27.0199 22.9801 23.375 18.5 23.375C14.0199 23.375 10.375 27.0199 10.375 31.5C10.375 35.9801 14.0199 39.625 18.5 39.625H20.125V36.375H18.5C15.8123 36.375 13.625 34.1878 13.625 31.5C13.625 28.8123 15.8123 26.625 18.5 26.625C21.1877 26.625 23.375 28.8123 23.375 31.5V42.875V44.5V54.8269C20.6921 51.507 16.5922 49.375 12 49.375H0.625V51C0.625 59.0649 7.18513 65.625 15.25 65.625H23.375V71.0525C21.6655 71.6554 20.1624 72.7262 19.0281 74.153C17.3934 70.9794 14.0946 68.875 10.375 68.875C4.99788 68.875 0.625 73.2479 0.625 78.625V101.375H101.375V78.625C101.375 74.3025 98.5459 70.6332 94.6443 69.3593ZM38 51H46.0096C45.2199 56.5055 40.4716 60.75 34.75 60.75H26.7404C27.5317 55.2445 32.2784 51 38 51ZM34.75 34.75H39.4609C38.7052 38.4534 35.4244 41.25 31.5 41.25H26.7891C27.5431 37.5466 30.8256 34.75 34.75 34.75ZM15.25 62.375C9.52838 62.375 4.78175 58.1305 3.99038 52.625H12C17.7216 52.625 22.4683 56.8695 23.2596 62.375H15.25ZM76.4735 46.125H74.2765C69.6274 46.125 65.4528 43.5802 63.2541 39.625H87.4942C85.2956 43.5802 81.1226 46.125 76.4735 46.125ZM67.4076 14.2555C67.302 13.729 67.25 13.1927 67.25 12.6597V12C67.25 7.51988 70.8949 3.875 75.375 3.875C79.8551 3.875 83.5 7.51988 83.5 12V12.6597C83.5 13.1927 83.448 13.729 83.3424 14.2522L78.9175 36.375H71.8325L67.4076 14.2555ZM59.125 41.25C59.125 40.7219 59.3948 40.2734 59.7864 39.976C62.2499 45.4945 67.6465 49.1524 73.75 49.3539V67.25H77V49.3539C83.1035 49.1524 88.4985 45.4945 90.9636 39.976C91.3552 40.2734 91.625 40.7219 91.625 41.25V65.9971C91.625 66.9656 91.5454 67.9309 91.43 68.8896C87.3269 68.9725 83.7308 71.6261 82.4113 75.4351C80.7473 75.6204 79.1694 76.2298 77.8125 77.2113C75.0191 75.193 71.1565 74.8111 68.0284 76.2996C66.5626 72.9781 63.3191 70.7145 59.5963 70.5341C59.3119 69.0407 59.125 67.5246 59.125 65.9971V41.25ZM98.125 98.125H3.875V78.625C3.875 75.0403 6.79025 72.125 10.375 72.125C13.5048 72.125 16.186 74.361 16.7531 77.442L16.9563 78.547L18.0612 78.7469C18.1847 78.7712 18.3034 78.807 18.4236 78.8428L20.0503 79.2913L20.5784 77.9198C21.555 75.3864 23.9291 73.75 26.625 73.75C29.0495 73.75 31.2563 75.1117 32.3807 77.3055L33.1754 78.8525L34.6655 77.9539C37.5629 76.2038 41.2337 77.0114 43.1935 79.6374L44.1734 80.9471L45.4782 79.9624C46.6336 79.0865 47.9808 78.625 49.375 78.625C49.895 78.625 50.4524 78.7127 51.1251 78.8996L52.5454 79.2961L53.0768 77.9198C54.055 75.3864 56.4291 73.75 59.125 73.75C62.258 73.75 64.9392 75.9893 65.5047 79.0751L65.9923 81.7401L68.1145 80.0566C70.6869 78.014 74.4097 78.2675 76.6766 80.4938L77.8141 81.6118L78.9516 80.4938C80.1606 79.3091 81.745 78.6461 83.422 78.6266L84.995 78.6429L85.2566 77.338C85.8628 74.3171 88.5424 72.125 91.625 72.125C95.2097 72.125 98.125 75.0403 98.125 78.625V98.125Z" fill="#4B75F9"/>
<path d="M20.125 85.125C17.4372 85.125 15.25 87.3122 15.25 90C15.25 92.6877 17.4372 94.875 20.125 94.875V91.625C19.228 91.625 18.5 90.897 18.5 90C18.5 89.103 19.228 88.375 20.125 88.375C21.022 88.375 21.75 89.103 21.75 90H25C25 87.3122 22.8127 85.125 20.125 85.125Z" fill="#4B75F9"/>
<path d="M55.875 83.5V86.75C56.772 86.75 57.5 87.478 57.5 88.375C57.5 89.272 56.772 90 55.875 90C54.978 90 54.25 89.272 54.25 88.375H51C51 91.0627 53.1872 93.25 55.875 93.25C58.5627 93.25 60.75 91.0627 60.75 88.375C60.75 85.6872 58.5627 83.5 55.875 83.5Z" fill="#4B75F9"/>
<path d="M77 83.5C74.3122 83.5 72.125 85.6872 72.125 88.375H75.375C75.375 87.478 76.103 86.75 77 86.75C77.897 86.75 78.625 87.478 78.625 88.375C78.625 89.272 77.897 90 77 90V93.25C79.6877 93.25 81.875 91.0627 81.875 88.375C81.875 85.6872 79.6877 83.5 77 83.5Z" fill="#4B75F9"/>
<path d="M8.75 83.5C9.64746 83.5 10.375 82.7725 10.375 81.875C10.375 80.9775 9.64746 80.25 8.75 80.25C7.85254 80.25 7.125 80.9775 7.125 81.875C7.125 82.7725 7.85254 83.5 8.75 83.5Z" fill="#4B75F9"/>
<path d="M26.625 80.25C27.5225 80.25 28.25 79.5225 28.25 78.625C28.25 77.7275 27.5225 77 26.625 77C25.7275 77 25 77.7275 25 78.625C25 79.5225 25.7275 80.25 26.625 80.25Z" fill="#4B75F9"/>
<path d="M34.75 94.875C35.6475 94.875 36.375 94.1475 36.375 93.25C36.375 92.3525 35.6475 91.625 34.75 91.625C33.8525 91.625 33.125 92.3525 33.125 93.25C33.125 94.1475 33.8525 94.875 34.75 94.875Z" fill="#4B75F9"/>
<path d="M42.875 88.375C43.7725 88.375 44.5 87.6475 44.5 86.75C44.5 85.8525 43.7725 85.125 42.875 85.125C41.9775 85.125 41.25 85.8525 41.25 86.75C41.25 87.6475 41.9775 88.375 42.875 88.375Z" fill="#4B75F9"/>
<path d="M59.125 80.25C60.0225 80.25 60.75 79.5225 60.75 78.625C60.75 77.7275 60.0225 77 59.125 77C58.2275 77 57.5 77.7275 57.5 78.625C57.5 79.5225 58.2275 80.25 59.125 80.25Z" fill="#4B75F9"/>
<path d="M67.25 94.875C68.1475 94.875 68.875 94.1475 68.875 93.25C68.875 92.3525 68.1475 91.625 67.25 91.625C66.3525 91.625 65.625 92.3525 65.625 93.25C65.625 94.1475 66.3525 94.875 67.25 94.875Z" fill="#4B75F9"/>
<path d="M93.25 94.875C94.1475 94.875 94.875 94.1475 94.875 93.25C94.875 92.3525 94.1475 91.625 93.25 91.625C92.3525 91.625 91.625 92.3525 91.625 93.25C91.625 94.1475 92.3525 94.875 93.25 94.875Z" fill="#4B75F9"/>
<path d="M86.75 86.75C87.6475 86.75 88.375 86.0225 88.375 85.125C88.375 84.2275 87.6475 83.5 86.75 83.5C85.8525 83.5 85.125 84.2275 85.125 85.125C85.125 86.0225 85.8525 86.75 86.75 86.75Z" fill="#4B75F9"/>
<path d="M80.25 12C80.25 9.31225 78.0627 7.125 75.375 7.125C72.6872 7.125 70.5 9.31225 70.5 12C70.5 14.6877 72.6872 16.875 75.375 16.875C78.0627 16.875 80.25 14.6877 80.25 12ZM75.375 13.625C74.478 13.625 73.75 12.897 73.75 12C73.75 11.103 74.478 10.375 75.375 10.375C76.272 10.375 77 11.103 77 12C77 12.897 76.272 13.625 75.375 13.625Z" fill="#4B75F9"/>
</svg>
