<svg width="144" height="117" viewBox="0 0 144 117" fill="none" xmlns="http://www.w3.org/2000/svg">
<g clip-path="url(#clip0_77_624)">
<path d="M131.523 77.7274C138.477 77.7274 144.159 72.0683 144.159 65.091V62.6137C144.159 61.6819 143.386 60.9092 142.454 60.9092H139.977C138.409 60.9092 136.909 61.2047 135.523 61.7274C136.045 57.9319 134.909 53.9774 132 51.0683L130.25 49.3183C129.591 48.6592 128.5 48.6592 127.841 49.3183L126.091 51.0683C123.704 53.4547 122.386 56.6137 122.386 60.0001C122.386 60.591 122.477 61.1592 122.545 61.7274C121.159 61.2047 119.659 60.9092 118.091 60.9092H115.636C114.704 60.9092 113.932 61.6819 113.932 62.6137V65.091C113.932 72.0456 119.591 77.7274 126.568 77.7274H127.341V80.7728C125.045 78.2956 121.75 76.7501 118.113 76.7501H115.659C114.727 76.7501 113.954 77.5228 113.954 78.4547V80.9319C113.954 87.8865 119.613 93.5683 126.591 93.5683H127.363V96.6138C125.068 94.1365 121.773 92.591 118.136 92.591H115.682C114.75 92.591 113.977 93.3638 113.977 94.2956V96.7501C113.977 103.705 119.636 109.386 126.613 109.386H127.386V115.182C127.386 116.114 128.159 116.886 129.091 116.886C130.023 116.886 130.795 116.114 130.795 115.182V109.341H131.545C138.5 109.341 144.182 103.682 144.182 96.7047V94.2501C144.182 93.3183 143.409 92.5456 142.477 92.5456H140C136.363 92.5456 133.091 94.091 130.773 96.5683V93.5228H131.523C138.477 93.5228 144.159 87.8637 144.159 80.8865V78.4092C144.159 77.4774 143.386 76.7047 142.454 76.7047H139.977C136.341 76.7047 133.068 78.2501 130.75 80.7274V77.6819H131.523V77.7274ZM127.363 105.932H126.591C121.5 105.932 117.363 101.796 117.363 96.7047V95.9547H118.113C123.204 95.9547 127.341 100.091 127.341 105.182V105.932H127.363ZM127.363 90.1138H126.591C121.5 90.1138 117.363 85.9774 117.363 80.8865V80.1137H118.113C123.204 80.1137 127.341 84.2501 127.341 89.341V90.1138H127.363ZM139.977 64.3183H140.75V65.091C140.75 70.1819 136.613 74.3183 131.523 74.3183H130.773V73.5456C130.773 71.7956 131.295 70.2047 132.136 68.7956C132.727 68.1819 133.25 67.5456 133.704 66.841C135.341 65.2956 137.545 64.3183 139.977 64.3183ZM127.363 74.3183H126.591C121.5 74.3183 117.363 70.1819 117.363 65.091V64.3183H118.113C120.568 64.3183 122.773 65.2956 124.432 66.841C124.886 67.5456 125.409 68.1819 126 68.7956C126.841 70.1819 127.341 71.7956 127.341 73.5228V74.3183H127.363ZM139.977 95.9547H140.75V96.7047C140.75 101.796 136.613 105.932 131.523 105.932H130.773V105.182C130.773 100.091 134.909 95.9547 139.977 95.9547ZM139.977 80.1365H140.75V80.9092C140.75 86.0001 136.613 90.1365 131.523 90.1365H130.773V89.3637C130.773 84.2728 134.909 80.1365 139.977 80.1365ZM129.341 66.7956L129.068 67.0683L128.795 66.7956C128.318 66.0456 127.773 65.341 127.136 64.7047C125.023 61.1592 125.477 56.5228 128.5 53.4774L129.045 52.9319L129.591 53.4774C132.636 56.5228 133.068 61.1592 130.954 64.7047C130.363 65.341 129.818 66.0456 129.341 66.7956Z" fill="black"/>
<path d="M108.5 60.9092H106.023C104.455 60.9092 102.955 61.2047 101.568 61.7274C102.091 57.9319 100.955 53.9774 98.0455 51.0683L96.2955 49.3183C95.6364 48.6592 94.5455 48.6592 93.8864 49.3183L92.1364 51.0683C89.2273 53.9774 88.0909 57.9547 88.6136 61.7274C87.2273 61.2047 85.7273 60.9092 84.1591 60.9092H81.7045C80.7727 60.9092 80 61.6819 80 62.6137V65.091C80 72.0456 85.6591 77.7274 92.6364 77.7274H93.4091V80.7728C91.1136 78.2956 87.8182 76.7501 84.1818 76.7501H81.7273C80.7955 76.7501 80.0227 77.5228 80.0227 78.4547V80.9319C80.0227 87.8865 85.6818 93.5683 92.6591 93.5683H93.4318V96.6138C91.1364 94.1365 87.8409 92.591 84.2045 92.591H81.75C80.8182 92.591 80.0455 93.3638 80.0455 94.2956V96.7501C80.0455 103.705 85.7045 109.386 92.6818 109.386H93.4545V115.182C93.4545 116.114 94.2273 116.886 95.1591 116.886C96.0909 116.886 96.8636 116.114 96.8636 115.182V109.341H97.6136C104.568 109.341 110.25 103.682 110.25 96.7047V94.2501C110.25 93.3183 109.477 92.5456 108.545 92.5456H106.068C102.432 92.5456 99.1591 94.091 96.8409 96.5683V93.5228H97.5909C104.545 93.5228 110.227 87.8637 110.227 80.8865V78.4092C110.227 77.4774 109.455 76.7047 108.523 76.7047H106.045C102.409 76.7047 99.1364 78.2501 96.8182 80.7274V77.6819H97.5682C104.523 77.6819 110.205 72.0228 110.205 65.0456V62.5683C110.205 61.6819 109.432 60.9092 108.5 60.9092ZM93.4091 105.932H92.6364C87.5455 105.932 83.4091 101.796 83.4091 96.7047V95.9547H84.1591C89.25 95.9547 93.3864 100.091 93.3864 105.182V105.932H93.4091ZM93.4091 90.1138H92.6364C87.5455 90.1138 83.4091 85.9774 83.4091 80.8865V80.1137H84.1591C89.25 80.1137 93.3864 84.2501 93.3864 89.341V90.1138H93.4091ZM93.4091 74.3183H92.6364C87.5455 74.3183 83.4091 70.1819 83.4091 65.091V64.3183H84.1591C86.5909 64.3183 88.8182 65.2956 90.4545 66.841C90.9091 67.5228 91.4318 68.1819 92.0227 68.7956C92.8636 70.1819 93.3636 71.7956 93.3636 73.5228V74.3183H93.4091ZM106.023 95.9547H106.795V96.7047C106.795 101.796 102.659 105.932 97.5682 105.932H96.8182V105.182C96.8182 100.091 100.955 95.9547 106.023 95.9547ZM106.023 80.1365H106.795V80.9092C106.795 86.0001 102.659 90.1365 97.5682 90.1365H96.8182V89.3637C96.8182 84.2728 100.955 80.1365 106.023 80.1365ZM95.3636 66.7956L95.0909 67.0683L94.8182 66.7956C94.3409 66.0456 93.7955 65.341 93.1591 64.7047C91.0455 61.1592 91.5 56.5228 94.5227 53.4774L95.0682 52.9319L95.6136 53.4774C98.6591 56.5228 99.0909 61.1592 96.9773 64.7047C96.4091 65.341 95.8409 66.0456 95.3636 66.7956ZM106.795 65.091C106.795 70.1819 102.659 74.3183 97.5682 74.3183H96.8182V73.5456C96.8182 71.7956 97.3409 70.2047 98.1818 68.7956C98.7727 68.1819 99.2955 67.5456 99.75 66.841C101.409 65.2728 103.614 64.3183 106.045 64.3183H106.818V65.091H106.795Z" fill="black"/>
<path d="M65.9545 76.3637C61.5226 72.7955 55.9772 70.6591 49.8635 70.1137V65.3182C54.8863 62.1137 58.4772 56.8637 59.409 50.6137C62.2499 49.2728 64.1135 46.4091 64.1135 43.2046C64.1135 40.1137 62.3635 37.3182 59.659 35.9319V28.2728C59.659 27.5228 59.1817 26.8637 58.4772 26.6364C45.3408 22.4773 31.4545 22.4773 18.3181 26.6364C17.6135 26.8637 17.1363 27.5228 17.1363 28.2728V35.9319C14.4317 37.3182 12.6817 40.1137 12.6817 43.2046C12.6817 46.4091 14.5226 49.25 17.3863 50.6137C18.3181 56.8637 21.909 62.1137 26.9317 65.3182V70.1137C23.6817 70.4091 20.5681 71.1364 17.659 72.341C15.1817 73.3637 12.8863 74.7273 10.8408 76.3637C4.36355 81.5682 0.477184 88.8637 -0.0682707 96.9319C-0.113725 97.7046 -0.15918 98.4773 -0.15918 99.2501V115.182C-0.15918 116.114 0.613548 116.886 1.54537 116.886C2.47718 116.886 3.24991 116.136 3.24991 115.182V99.2501C3.24991 98.5455 3.27264 97.8637 3.31809 97.1591C3.74991 90.8637 6.52264 85.091 11.1135 80.6591V115.182C11.1135 116.114 11.8863 116.886 12.8181 116.886C13.7499 116.886 14.5454 116.136 14.5454 115.182V98H62.2726V115.182C62.2726 116.114 63.0454 116.886 63.9772 116.886C64.909 116.886 65.6817 116.114 65.6817 115.182V80.6591C70.2954 85.091 73.0454 90.8637 73.4772 97.1591C73.5226 97.841 73.5454 98.5455 73.5454 99.2501V115.182C73.5454 116.114 74.3181 116.886 75.2499 116.886C76.1817 116.886 76.9545 116.114 76.9545 115.182V99.2501C76.9545 98.4773 76.9317 97.7046 76.8635 96.9319C76.3181 88.8637 72.4317 81.5682 65.9545 76.3637ZM20.6363 49.2273C20.5681 48.5455 20.1135 47.9773 19.4545 47.7728C17.4317 47.1364 16.0908 45.2955 16.0908 43.2046C16.0908 41.1591 17.409 39.3182 19.3863 38.6591C20.0908 38.4319 20.5454 37.7728 20.5454 37.0455V29.5228C32.2499 26.0682 44.5454 26.0682 56.2726 29.5228V37.0455C56.2726 37.7728 56.7499 38.4319 57.4317 38.6591C59.409 39.3182 60.7272 41.1364 60.7272 43.2046C60.7272 45.2955 59.3635 47.1364 57.3635 47.7728C56.7045 47.9773 56.2499 48.5455 56.1817 49.2273C55.2499 58.3637 47.6135 65.2728 38.409 65.2728C29.2045 65.2728 21.5454 58.3637 20.6363 49.2273ZM46.4545 71.6364C46.4317 76.0682 42.8181 79.6591 38.3863 79.6591C33.9545 79.6591 30.3408 76.0455 30.3181 71.6137V71.591V71.5682V67.091C32.8181 68.1137 35.5226 68.6819 38.3863 68.6819C41.2499 68.6819 43.9545 68.1137 46.4545 67.091V71.5682V71.591C46.4545 71.6137 46.4545 71.6137 46.4545 71.6364ZM20.1817 94.591H14.5454V77.9546C15.9317 77.0228 17.3863 76.1591 18.9545 75.5C19.3635 75.341 19.7726 75.2046 20.1817 75.0455V94.591ZM53.2045 94.591H23.5908V74.0455C24.7272 73.7955 25.909 73.6364 27.1135 73.5228C28.0454 78.9319 32.7272 83.0682 38.409 83.0682C44.0908 83.0682 48.7726 78.9319 49.7045 73.5C50.909 73.6137 52.0681 73.7955 53.2272 74.0455V94.591H53.2045ZM62.2499 94.591H56.6135V75.0228C58.6363 75.75 60.5226 76.7046 62.2499 77.8864V94.591Z" fill="black"/>
<path d="M44.0684 39.4092C45.2503 38.2274 47.2957 38.2274 48.4775 39.4092C48.8184 39.7501 49.2503 39.9092 49.6821 39.9092C50.1139 39.9092 50.5457 39.7501 50.8866 39.4092C51.5457 38.7501 51.5457 37.6592 50.8866 37.0001C48.4321 34.5455 44.1139 34.5455 41.6594 37.0001C41.0003 37.6592 41.0003 38.7501 41.6594 39.4092C42.3184 40.091 43.4094 40.091 44.0684 39.4092Z" fill="black"/>
<path d="M33.9321 39.9092C34.3639 39.9092 34.7957 39.7501 35.1366 39.4092C35.7957 38.7501 35.7957 37.6592 35.1366 37.0001C32.6821 34.5455 28.3639 34.5455 25.9094 37.0001C25.2503 37.6592 25.2503 38.7501 25.9094 39.4092C26.5684 40.0683 27.6594 40.0683 28.3184 39.4092C29.5003 38.2274 31.5457 38.2274 32.7275 39.4092C33.0457 39.7501 33.5003 39.9092 33.9321 39.9092Z" fill="black"/>
<path d="M45.4314 50.9999C44.7723 50.3408 43.6814 50.3408 43.0223 50.9999C40.4768 53.5454 36.3405 53.5454 33.795 50.9999C33.1359 50.3408 32.045 50.3408 31.3859 50.9999C30.7268 51.659 30.7268 52.7499 31.3859 53.409C33.3177 55.3408 35.8632 56.3181 38.4086 56.3181C40.9541 56.3181 43.4996 55.3408 45.4314 53.409C46.0905 52.7499 46.0905 51.659 45.4314 50.9999Z" fill="black"/>
<path d="M8.38601 37.6819C9.11328 38.2728 10.1815 38.1592 10.7724 37.4319C11.3633 36.7047 11.2496 35.6365 10.5224 35.0456C8.93146 33.7728 7.0451 31.7274 7.0451 29.2501C7.0451 22.9319 19.636 16.1819 38.386 16.1819C57.136 16.1819 69.7269 22.9319 69.7269 29.2501C69.7269 31.7274 67.8406 33.7728 66.2496 35.0456C65.5224 35.6365 65.4087 36.7047 65.9996 37.4319C66.3406 37.841 66.8406 38.0683 67.3178 38.0683C67.7042 38.0683 68.0678 37.9547 68.386 37.6819C71.4996 35.1819 73.136 32.2501 73.136 29.2274C73.136 23.1819 66.5678 18.0001 56.5906 15.1365L52.2496 3.34102C52.0906 2.9092 51.7724 2.56829 51.3406 2.36375C43.0906 -1.27262 33.6587 -1.27262 25.4087 2.36375C24.9769 2.54557 24.6587 2.9092 24.4996 3.34102L20.1587 15.1365C10.1815 18.0001 3.61328 23.1819 3.61328 29.2274C3.65874 32.2501 5.2951 35.1819 8.38601 37.6819ZM27.4769 5.22739C34.4542 2.34102 42.3406 2.34102 49.3406 5.22739L52.6133 14.1592C48.2951 13.2728 43.4996 12.7501 38.4087 12.7501C33.3178 12.7501 28.5224 13.2501 24.2042 14.1592L27.4769 5.22739Z" fill="black"/>
</g>
<defs>
<clipPath id="clip0_77_624">
<rect width="144" height="117" fill="white"/>
</clipPath>
</defs>
</svg>
