<svg width="112" height="106" viewBox="0 0 112 106" fill="none" xmlns="http://www.w3.org/2000/svg">
<path d="M109.855 21.649C109.158 21.6631 101.851 21.896 97.4464 25.1344C93.7869 27.8301 92.1562 31.194 92.9715 34.3632C93.1341 34.9943 93.4195 35.592 93.7626 36.1463C92.6822 37.818 91.6813 39.5741 90.8198 41.4084C90.6432 41.7783 90.4717 42.1661 90.3002 42.5565C89.9955 42.0663 89.6934 41.5696 89.4323 41.1268C90.153 40.3639 90.6445 39.5076 90.8877 38.5642C91.5546 35.9722 90.24 33.2356 87.2781 31.0544C83.7696 28.474 77.984 28.2807 77.3901 28.2679C76.7821 28.2218 76.2112 28.7466 76.2061 29.384C76.2048 29.5671 76.247 29.7399 76.3225 29.8935C76.3571 30.0752 76.3968 30.3722 76.4493 30.7524C76.7514 32.9053 77.3146 36.9143 79.0029 39.4922C80.8026 42.2327 82.7277 43.0442 84.0243 43.2439C84.2906 43.2848 84.5568 43.3053 84.8243 43.3053C85.7792 43.3053 86.729 43.0327 87.639 42.522C88.1562 43.3872 88.7859 44.3933 89.257 45.1217C88.9088 46.0433 88.5978 46.9495 88.3136 47.8468C82.4115 46.1482 76.0742 46.0816 70.0992 47.7572L67.4496 48.5008L59.6889 45.9869C58.2029 45.5312 56.6874 45.2765 55.1795 45.2048C55.8579 38.7703 58.1107 32.5956 60.7565 27.2861C62.7417 28.6288 64.8397 29.3264 66.9389 29.3264C67.424 29.3264 67.9104 29.2893 68.3942 29.2151C71.8771 28.68 75.1667 26.1943 77.9072 22.024C81.2313 16.9488 82.4077 8.56997 82.9734 4.54437C83.0899 3.71621 83.209 2.86245 83.287 2.52069C83.3997 2.34277 83.465 2.13285 83.4637 1.90629C83.4586 1.26245 82.8749 0.756848 82.2617 0.790128C81.2198 0.810608 69.5629 1.16389 62.5933 6.29029C54.2733 12.4189 54.2054 19.1696 56.928 23.4602L57.0009 23.5703C55.5597 25.7732 54.1248 28.2538 52.7488 31.0237C51.927 30.3133 51.0669 29.5402 50.3142 28.8388C51.9987 25.3828 51.4995 20.3997 45.3337 15.8583C39.8144 11.7981 30.624 11.5063 29.7395 11.4884C29.7165 11.4871 29.6921 11.4871 29.6678 11.4871C29.0496 11.4871 28.5465 11.9863 28.5414 12.6045C28.5401 12.8144 28.5965 13.0103 28.6937 13.1792C28.7526 13.4634 28.8461 14.1239 28.9293 14.7152C29.376 17.8973 30.3065 24.52 32.9497 28.5559C35.1424 31.8928 37.7856 33.8845 40.5939 34.3146C40.9869 34.3748 41.3811 34.4042 41.7753 34.4042C43.4048 34.4042 45.0317 33.8832 46.5754 32.8848C47.5187 34.4938 48.8358 36.5994 49.7126 37.9421C48.6528 40.7018 47.7056 43.6432 46.8979 46.7063C46.7443 46.7728 46.5843 46.8228 46.432 46.8932L40.8857 49.5517L35.8707 47.6023C31.8067 46.024 27.4291 45.722 23.2883 46.5988C23.0323 45.8372 22.7929 45.1728 22.5523 44.5687C22.135 43.5063 21.687 42.472 21.1827 41.416C20.3289 39.5997 19.3318 37.8423 18.2477 36.1514C18.5881 35.5984 18.8697 35.0007 19.0323 34.3658C19.8477 31.1965 18.2182 27.8327 14.5574 25.137C10.1542 21.8999 2.84543 21.6669 2.15039 21.6516C1.52063 21.6298 0.963826 22.1264 0.959986 22.7652C0.958706 22.9597 1.00735 23.144 1.09311 23.304C1.13791 23.5319 1.20575 24.0208 1.26847 24.4599C1.64991 27.1748 2.35903 32.2295 4.46975 35.45C6.20031 38.0855 8.20735 39.6317 10.4358 40.0503C10.8262 40.1245 11.2179 40.1604 11.6109 40.1604C13.0573 40.1604 14.5062 39.6663 15.8605 38.7037C16.1421 38.5028 16.439 38.2596 16.7334 37.9856C17.6102 39.4052 18.4345 40.8631 19.1449 42.3773C19.6288 43.3911 20.0563 44.3767 20.4557 45.3943C20.6681 45.9293 20.8819 46.5181 21.1072 47.1824C18.56 47.9991 16.1433 49.2701 14.0019 50.9968L7.95519 55.8711C7.94623 55.8788 7.94367 55.8967 7.93599 55.9056C7.69791 56.1117 7.53791 56.4074 7.53791 56.7479C7.53791 74.3684 17.12 90.6218 32.5427 99.162C39.6723 103.122 47.7862 105.216 56.0051 105.216C59.0336 105.216 62.0557 104.932 64.9843 104.375C77.376 102.068 88.6272 94.7677 95.849 84.3511C101.491 76.2346 104.474 66.6897 104.474 56.7492C104.474 56.3549 104.26 56.026 103.954 55.825C103.94 55.8122 103.935 55.7866 103.918 55.7776L95.84 51.0608C94.1184 50.056 92.3123 49.224 90.455 48.5508C90.7827 47.5114 91.1386 46.4708 91.5584 45.393C91.9885 44.2948 92.4122 43.3092 92.8576 42.3748C93.5744 40.849 94.4 39.3936 95.2742 37.9869C95.5725 38.2672 95.8694 38.5117 96.1446 38.7076C97.4989 39.6714 98.9478 40.1629 100.394 40.1629C100.786 40.1629 101.179 40.1271 101.569 40.0528C103.798 39.6356 105.805 38.088 107.537 35.4512C109.645 32.232 110.355 27.1786 110.735 24.4637C110.798 24.0221 110.866 23.5332 110.911 23.304C110.996 23.144 111.044 22.961 111.043 22.7664C111.035 22.1252 110.464 21.626 109.855 21.649ZM88.7053 38.0036C88.6131 38.3607 88.4582 38.6948 88.247 39.0148C86.9376 36.6775 85.4899 34.362 83.2806 32.6263C82.7917 32.241 82.0838 32.3255 81.6998 32.8157C81.3158 33.3047 81.4003 34.0138 81.8893 34.3965C83.9001 35.9773 85.2646 38.2711 86.5331 40.5648C85.9302 40.9015 85.1878 41.1408 84.3674 41.0167C83.1552 40.8311 81.9507 39.8749 80.887 38.257C79.5174 36.1668 78.9722 32.506 78.7046 30.6103C80.5555 30.7908 83.8387 31.322 85.943 32.8682C88.1242 34.4759 89.1315 36.3472 88.7053 38.0036ZM16.8473 33.8026C16.832 33.8615 16.7949 33.9255 16.7757 33.9856C13.4605 29.4954 10.4576 27.3079 9.85343 26.8944C9.42975 26.5527 8.81151 26.5642 8.39295 26.9444C7.93215 27.3616 7.90527 28.081 8.32255 28.5405C8.38399 28.6084 8.45439 28.6698 8.53119 28.7197C8.67455 28.8157 11.9603 31.0455 15.4816 36.0426C15.1936 36.346 14.8864 36.6314 14.5523 36.8695C13.3235 37.7424 12.0781 38.0714 10.8493 37.8372C9.26847 37.5415 7.71199 36.2871 6.35007 34.216C4.51711 31.4167 3.82847 26.5066 3.49695 24.1476C3.48927 24.0925 3.48159 24.0375 3.47391 23.985C5.76383 24.1808 10.3334 24.8285 13.2185 26.9495C16.0998 29.0704 17.4221 31.5677 16.8473 33.8026ZM63.927 8.10149C69.1136 4.28837 77.5411 3.34245 80.9024 3.11077C80.8525 3.43973 80.8 3.81093 80.7424 4.22949C80.1997 8.09381 79.0707 16.1348 76.023 20.7876C73.6435 24.4087 70.8877 26.5527 68.0525 26.9879C65.9827 27.3015 63.8336 26.7063 61.7984 25.2676C65.9584 17.5248 70.6547 11.9914 71.6825 10.8189C71.6864 10.8151 71.6902 10.8125 71.6941 10.81C71.6966 10.8087 71.6954 10.8048 71.6966 10.8023C71.712 10.7844 71.7337 10.76 71.7466 10.7447C72.1562 10.2788 72.1049 9.57605 71.6377 9.16389C71.2576 8.82981 70.7161 8.81957 70.3027 9.07557C70.2886 9.08197 70.2694 9.07429 70.2579 9.08325C69.4246 9.64901 64.0896 13.4608 58.4038 21.498C56.2368 17.2317 58.2477 12.2832 63.927 8.10149ZM37.4605 20.154C40.9907 22.9277 43.2896 26.9572 45.4681 30.9175C43.9833 31.9095 42.4307 32.3165 40.9331 32.0861C38.7737 31.7546 36.663 30.106 34.8313 27.3194C32.4659 23.7072 31.5827 17.4212 31.1577 14.4016C31.1283 14.193 31.1014 13.9972 31.0745 13.8141C33.8662 14.0279 40.1139 14.8138 43.9962 17.6708C48.0384 20.648 49.673 24.1143 48.5773 27.1876C48.2381 26.8612 47.8963 26.5373 47.5571 26.2109C44.7987 23.5575 41.9456 20.8132 38.8518 18.3837C38.3629 17.9972 37.655 18.0829 37.271 18.5732C36.887 19.0621 36.9715 19.77 37.4605 20.154ZM47.9168 30.6973C47.5162 29.9652 47.1245 29.2522 46.7136 28.5239C47.1833 28.9757 47.6544 29.4288 48.1254 29.8756C49.1341 30.8432 50.5293 32.0925 51.7363 33.1204C51.3971 33.8564 51.0643 34.6064 50.7392 35.3757C49.7382 33.7936 48.5491 31.8506 47.9168 30.6973ZM52.0102 38.2212C52.0217 38.1917 52.032 38.161 52.041 38.1303C52.7014 36.4484 53.4042 34.8215 54.1312 33.2906C56.6336 28.0004 59.3843 23.7828 61.9533 20.4778C57.9609 27.0634 53.8368 35.8864 52.9126 45.2509C51.7555 45.3328 50.6048 45.521 49.4758 45.8205C50.2234 43.1684 51.0694 40.6148 52.0102 38.2212ZM64.2419 102.212C61.5488 102.705 58.7801 102.961 56.0025 102.961C48.7014 102.961 41.5001 101.209 35.0528 97.9204C36.8742 96.1629 39.7107 92.9168 38.8787 90.3888C38.3629 88.8234 36.6758 87.9402 33.8624 87.7636C29.9584 87.5191 26.8198 85.8218 25.0265 82.9815C23.584 80.698 23.1654 77.7924 23.9846 75.7495C24.5235 74.4055 25.7945 74.2737 28.352 74.289C30.6816 74.3069 33.8778 74.3325 34.3078 70.801C34.5331 68.9476 35.5712 67.3156 37.2313 66.2071C39.1731 64.9092 41.719 64.5213 44.0422 65.1703C49.2365 66.6192 53.6051 66.7908 53.7881 66.7972C53.8726 66.8074 53.9635 66.7933 54.0467 66.778C54.0633 66.7729 56.0064 66.4144 56.8793 67.5511C57.5219 68.3908 58.1325 70.7639 54.9888 77.2343C52.4045 82.5552 52.0051 86.2045 53.7702 88.3921C55.9411 91.08 60.4019 90.0279 60.5901 89.9818C61.184 89.8372 61.5475 89.2164 61.4169 88.6199C61.4067 88.5725 61.3235 88.1476 61.6333 87.8583C61.9354 87.5767 63.3216 86.7754 68.448 88.2781C69.9251 88.712 70.7635 89.4058 71.008 90.3965C71.8387 93.7488 66.6189 99.8391 64.2419 102.212ZM68.1101 101.334C70.6829 98.3159 74.0915 93.4788 73.1955 89.8564C72.7475 88.0452 71.3638 86.7882 69.0829 86.1188C64.4851 84.7671 61.5296 84.8132 60.0486 86.2583C59.5225 86.7703 59.2794 87.3796 59.191 87.9325C58.0339 88.0541 56.3277 87.976 55.5213 86.9725C54.4128 85.5927 54.944 82.4836 57.0163 78.216C59.863 72.3562 60.3994 68.4138 58.6547 66.1636C57.1161 64.1783 54.4397 64.4343 53.7613 64.5418C53.0662 64.506 49.1353 64.2538 44.6477 63.002C41.7024 62.1776 38.4614 62.6781 35.9808 64.3344C33.7664 65.8141 32.3776 68.0132 32.0729 70.5284C31.9091 71.8749 31.1398 72.0541 28.3712 72.0375C26.1414 72.0273 23.0656 71.994 21.8944 74.9124C20.8025 77.6349 21.2851 81.274 23.1232 84.1847C25.3133 87.6509 29.0777 89.7207 33.7229 90.0112C35.424 90.1175 36.5517 90.522 36.7398 91.0928C37.1289 92.2743 34.9478 94.9751 32.9638 96.7901C18.9824 88.7364 10.2195 73.978 9.82655 57.873H21.0829C21.6128 60.4202 23.04 62.2007 25.024 62.7088C25.3849 62.8023 25.751 62.8458 26.1145 62.8458C27.6672 62.8458 29.1891 62.0279 30.1901 60.593C30.7584 59.7866 31.159 58.874 31.3894 57.8717H67.7171C67.8272 57.9754 67.9373 58.0791 68.0473 58.184C70.0928 60.1399 72.6374 62.5744 76.5069 60.648C77.4733 60.1642 78.4512 60.1565 79.4995 60.6212C82.1786 61.8103 85.0048 66.065 86.3718 70.97C86.8672 72.7389 86.9133 74.3556 86.9568 75.9197C87.0541 79.4141 87.1629 82.7242 93.0214 84.3997C86.8493 92.6391 77.9814 98.6512 68.1101 101.334ZM23.3997 57.8717H29.0457C28.8768 58.3888 28.6489 58.8689 28.3456 59.2989C27.639 60.3114 26.5817 60.7812 25.5833 60.5252C24.567 60.2653 23.7952 59.2989 23.3997 57.8717ZM94.4115 82.4413C89.3709 81.2829 89.3069 79.418 89.207 75.857C89.1622 74.2365 89.111 72.3972 88.5402 70.3632C87.2422 65.7079 84.2265 60.2551 80.4121 58.5616C78.7584 57.8282 77.0585 57.8551 75.5008 58.6333C73.719 59.5178 72.5043 59.0672 71.0541 57.8717H102.198C101.987 66.6935 99.3088 75.1479 94.4115 82.4413ZM94.7021 53.0013L99.1859 55.6202H11.8502L15.4112 52.7492C20.9254 48.3063 28.4505 47.1389 35.0502 49.7002L47.5021 54.5386C48.0832 54.7639 48.7347 54.4759 48.96 53.896C49.1853 53.3162 48.8973 52.6634 48.3187 52.4394L43.7593 50.6679L47.3881 48.9296C49.4387 47.9812 51.7107 47.4653 53.9699 47.4346C55.6595 47.3949 57.3632 47.6305 59.0118 48.1335L63.5328 49.5978L57.6896 51.2362C57.0905 51.4039 56.7411 52.026 56.9088 52.625C57.0765 53.224 57.696 53.5735 58.2976 53.4045L70.7072 49.9242C78.7494 47.6688 87.4931 48.7927 94.7021 53.0013ZM108.502 24.1488C108.17 26.5079 107.482 31.418 105.65 34.2148C104.288 36.2884 102.732 37.5415 101.151 37.8372C99.9206 38.0701 98.6752 37.7412 97.4477 36.8695C97.1187 36.6352 96.8115 36.3472 96.5235 36.0426C100.046 31.0429 103.329 28.8144 103.474 28.7184C103.788 28.5098 103.976 28.1578 103.976 27.7815V27.77C103.976 27.1479 103.471 26.65 102.849 26.65C102.584 26.65 102.342 26.7408 102.15 26.8957C101.541 27.3143 98.5382 29.5031 95.2269 33.9908C95.2064 33.9293 95.168 33.8628 95.1526 33.8026C94.5779 31.5677 95.9014 29.0704 98.7814 26.9495C101.659 24.8336 106.234 24.1834 108.526 23.9863C108.518 24.0388 108.509 24.0925 108.502 24.1488Z" fill="black"/>
</svg>
