<svg width="107" height="100" viewBox="0 0 107 100" fill="none" xmlns="http://www.w3.org/2000/svg">
<g clip-path="url(#clip0_92_2)">
<path d="M42.3137 100.063C32.9716 100.08 23.9717 96.5485 17.1345 90.1824C10.2972 83.8162 6.13319 75.0908 5.48466 65.7712H0.727202C0.522422 65.7712 0.321799 65.7134 0.148282 65.6047C-0.0252343 65.4959 -0.164637 65.3405 -0.25398 65.1563C-0.343323 64.972 -0.378998 64.7663 -0.356925 64.5627C-0.334851 64.3592 -0.255921 64.1659 -0.129162 64.0051L14.0243 46.0323C14.1265 45.9027 14.2567 45.7979 14.4052 45.726C14.5538 45.654 14.7167 45.6166 14.8817 45.6167C15.0469 45.6167 15.2099 45.6543 15.3584 45.7264C15.5069 45.7986 15.6371 45.9036 15.7392 46.0334L29.8687 64.0062C29.9952 64.1671 30.0738 64.3603 30.0957 64.5638C30.1175 64.7674 30.0817 64.9729 29.9923 65.157C29.9028 65.3411 29.7634 65.4964 29.5899 65.605C29.4164 65.7136 29.2159 65.7712 29.0112 65.7712H24.4763C25.0342 73.0937 27.8974 80.0512 32.6551 85.6453C37.4127 91.2395 43.8202 95.1827 50.9581 96.9091C51.1962 96.9658 51.4083 97.101 51.5602 97.2929C51.7122 97.4847 51.7952 97.7221 51.796 97.9668C51.7967 98.2116 51.7152 98.4495 51.5644 98.6423C51.4136 98.8351 51.2024 98.9715 50.9647 99.0298C48.1328 99.7194 45.2284 100.066 42.3137 100.063ZM2.97557 63.5894H6.51557C6.79695 63.5892 7.06754 63.6976 7.27083 63.8922C7.47412 64.0867 7.59438 64.3523 7.60647 64.6334C7.97518 73.5858 11.795 82.0479 18.2652 88.2461C24.7355 94.4442 33.3538 97.8971 42.3137 97.8811C43.5593 97.8813 44.8039 97.8153 46.0425 97.6836C39.2867 95.119 33.4308 90.6305 29.1989 84.7732C24.9669 78.9159 22.5445 71.9466 22.2312 64.7272C22.2253 64.5804 22.2492 64.4338 22.3014 64.2964C22.3536 64.1589 22.433 64.0335 22.5349 63.9275C22.6368 63.8215 22.759 63.7372 22.8943 63.6797C23.0296 63.6222 23.1751 63.5926 23.3221 63.5927H26.7661L14.8807 48.4727L2.97557 63.5894Z" fill="#4B75F9"/>
<path d="M89.5652 85.7197C89.513 85.72 89.4608 85.716 89.4092 85.7077L66.7674 82.4349C66.604 82.4114 66.4481 82.3511 66.3114 82.2586C66.1747 82.166 66.0608 82.0437 65.9782 81.9007C65.8957 81.7578 65.8467 81.598 65.8348 81.4333C65.823 81.2687 65.8487 81.1035 65.91 80.9502L74.4092 59.7266C74.4855 59.5367 74.6135 59.3721 74.7789 59.2515C74.9442 59.1309 75.1401 59.0593 75.3442 59.0447C75.549 59.0288 75.754 59.0717 75.9353 59.1683C76.1166 59.2649 76.2665 59.4113 76.3674 59.5902L78.6354 63.5175C84.6987 59.373 89.2932 53.4143 91.7596 46.4964C94.2259 39.5785 94.4373 32.0572 92.3634 25.0117C92.2934 24.777 92.3044 24.5256 92.3946 24.298C92.4848 24.0703 92.6489 23.8797 92.8606 23.7566C93.0723 23.6336 93.3193 23.5853 93.5617 23.6197C93.8042 23.654 94.028 23.7689 94.1972 23.9458C96.2098 26.0553 97.9609 28.3994 99.4129 30.9277C104.097 39.009 105.538 48.5679 103.443 57.6709C101.349 66.774 95.8752 74.7419 88.1296 79.9629L90.5089 84.0833C90.6046 84.2491 90.655 84.4373 90.655 84.6287C90.655 84.8202 90.6046 85.0084 90.5089 85.1742C90.4131 85.34 90.2754 85.4777 90.1096 85.5735C89.9438 85.6692 89.7567 85.7197 89.5652 85.7197ZM68.4507 80.4767L87.4958 83.228L85.7252 80.1604C85.5849 79.917 85.5438 79.6287 85.6107 79.3558C85.6775 79.0829 85.8472 78.8463 86.0842 78.6953C93.6532 73.9001 99.0719 66.3609 101.204 57.6583C103.337 48.9556 102.017 39.7653 97.5223 32.0142C96.9002 30.9352 96.2211 29.8901 95.4878 28.8833C96.6448 36.0167 95.6856 43.3328 92.7286 49.9268C89.7716 56.5207 84.9466 62.1033 78.8503 65.984C78.7266 66.0632 78.5879 66.1162 78.4429 66.1399C78.2979 66.1635 78.1496 66.1572 78.0071 66.1215C77.8644 66.0865 77.7303 66.023 77.6128 65.9349C77.4952 65.8468 77.3967 65.7359 77.3231 65.6087L75.6005 62.6229L68.4507 80.4767Z" fill="#4B75F9"/>
<path d="M8.59938 28.7535C8.43015 28.7534 8.26324 28.714 8.11187 28.6383C7.9605 28.5627 7.82881 28.4528 7.72722 28.3175C7.62562 28.1821 7.55692 28.025 7.52652 27.8585C7.49613 27.692 7.50489 27.5207 7.55211 27.3582C8.3707 24.5621 9.52223 21.8745 10.9819 19.3531C15.638 11.2547 23.1959 5.22685 32.1271 2.48877C41.0583 -0.24932 50.6961 0.506747 59.091 4.60404L61.4703 0.482587C61.5728 0.30544 61.723 0.160684 61.9038 0.064858C62.0846 -0.0309683 62.2887 -0.0740013 62.4929 -0.059324C62.697 -0.0446466 62.8929 0.0271487 63.0581 0.14786C63.2234 0.268571 63.3513 0.43333 63.4274 0.623314L71.9147 21.8688C71.9759 22.022 72.0016 22.1872 71.9898 22.3519C71.978 22.5165 71.9289 22.6764 71.8464 22.8193C71.7638 22.9622 71.6499 23.0846 71.5132 23.1771C71.3765 23.2697 71.2206 23.33 71.0572 23.3535L48.4274 26.6044C48.2246 26.6336 48.0177 26.6052 47.8303 26.5223C47.6429 26.4394 47.4827 26.3054 47.368 26.1356C47.2532 25.9659 47.1886 25.7673 47.1815 25.5625C47.1744 25.3578 47.2251 25.1551 47.3277 24.9779L49.5957 21.0506C42.975 17.8711 35.5172 16.8709 28.2926 18.1937C21.0681 19.5164 14.4484 23.0941 9.38375 28.4131C9.28266 28.5198 9.16108 28.6049 9.0263 28.6634C8.89151 28.7218 8.7463 28.7525 8.59938 28.7535ZM34.5947 15.4444C40.529 15.4387 46.376 16.8748 51.6325 19.6291C51.7626 19.6975 51.8775 19.7915 51.9703 19.9055C52.0632 20.0194 52.1321 20.1509 52.1728 20.2922C52.2136 20.4334 52.2254 20.5814 52.2075 20.7273C52.1896 20.8731 52.1425 21.0139 52.0688 21.1411L50.3463 24.1248L69.3805 21.3899L62.2437 3.52077L60.4732 6.58731C60.3326 6.83109 60.1033 7.01112 59.8331 7.08979C59.563 7.16847 59.2728 7.1397 59.0234 7.0095C51.0861 2.85315 41.848 1.93053 33.2455 4.43503C24.643 6.93952 17.3438 12.6767 12.8779 20.444C12.2549 21.5219 11.6897 22.6322 11.1848 23.7702C17.7943 18.3778 26.0646 15.4372 34.5947 15.4444Z" fill="#4B75F9"/>
<path d="M55.6337 63.6079C45.0071 63.6079 37.7984 60.7661 34.1428 55.1185C32.8715 53.0917 32.1067 50.7886 31.913 48.4039C31.4515 43.4098 33.066 39.0494 36.342 36.441C39.6453 33.813 44.2642 33.2883 49.3457 34.9618C56.1562 36.909 58.1002 42.7999 60.1588 49.0345C61.505 53.1101 62.897 57.3254 65.6864 61.281C65.795 61.4355 65.8616 61.6155 65.8797 61.8034C65.8979 61.9913 65.867 62.1806 65.79 62.353C65.7131 62.5254 65.5927 62.6749 65.4407 62.7868C65.2887 62.8987 65.1102 62.9693 64.9228 62.9916C61.8418 63.385 58.7397 63.5908 55.6337 63.6079ZM43.7559 36.1879C41.5731 36.1281 39.4363 36.8215 37.7046 38.1516C35.0155 40.293 33.6977 43.9574 34.0904 48.2065C34.2507 50.2402 34.8984 52.2055 35.9788 53.936C39.953 60.0821 49.0042 62.4701 62.9057 61.0269C60.8551 57.4626 59.2375 53.6663 58.0871 49.7185C56.0526 43.5592 54.4457 38.6927 48.7053 37.0465C47.1113 36.5003 45.4407 36.2105 43.7559 36.1879Z" fill="#4B75F9"/>
<path d="M46.7744 50.9578C46.5053 50.9584 46.2455 50.8589 46.0457 50.6786C39.4888 44.9323 33.569 38.4974 28.3883 31.4851C28.2219 31.2483 28.1564 30.9551 28.2062 30.67C28.2561 30.3849 28.4171 30.1313 28.6539 29.9649C28.8907 29.7986 29.1839 29.7331 29.469 29.7829C29.7541 29.8327 30.0077 29.9937 30.1741 30.2305C35.2592 37.1083 41.0689 43.4195 47.5032 49.0553C47.6674 49.2028 47.783 49.3966 47.8348 49.6112C47.8865 49.8258 47.8719 50.051 47.793 50.2571C47.714 50.4632 47.5744 50.6406 47.3925 50.7657C47.2107 50.8908 46.9952 50.9578 46.7744 50.9578Z" fill="#4B75F9"/>
</g>
<defs>
<clipPath id="clip0_92_2">
<rect width="107" height="100" fill="white"/>
</clipPath>
</defs>
</svg>
