<svg width="116" height="116" viewBox="0 0 116 116" fill="none" xmlns="http://www.w3.org/2000/svg">
<path d="M100.399 15.9784L100.392 15.9849C100.386 15.9784 100.379 15.9784 100.379 15.9719C86.717 2.30982 67.3782 -2.20138 49.9608 2.42062C49.9086 2.43365 49.876 2.44669 49.876 2.44669C48.4551 2.82474 47.6142 4.28487 47.9923 5.70573V5.71225C48.1227 6.18155 48.3638 6.58569 48.6832 6.90507C49.335 7.55687 50.3063 7.85021 51.2579 7.59599C51.284 7.58947 51.3297 7.57643 51.3297 7.57643C66.9863 3.41782 84.3573 7.47866 96.6252 19.7524C108.873 31.9935 112.934 49.3126 108.834 64.9295C108.801 65.0533 108.782 65.1185 108.782 65.1185C108.527 66.0702 108.821 67.0413 109.473 67.6932C109.792 68.0126 110.196 68.2538 110.665 68.3842H110.672C112.093 68.7622 113.553 67.9214 113.931 66.5004C113.95 66.4483 113.99 66.3049 113.99 66.3049C118.565 48.9008 114.028 29.6146 100.399 15.9784ZM87.6817 28.6954L87.6752 28.7019C87.6752 28.6954 87.6686 28.6889 87.6621 28.6823C78.6996 19.7198 66.008 16.7607 54.5761 19.7981C54.55 19.8046 54.5305 19.8111 54.5305 19.8111C53.1095 20.1892 52.2686 21.6558 52.6467 23.0767C52.7771 23.546 53.0183 23.9501 53.3377 24.2695C53.9895 24.9213 54.9607 25.2212 55.9124 24.9604C55.9254 24.9604 55.9385 24.9539 55.9385 24.9539C65.6115 22.3792 76.3344 24.8822 83.9151 32.4628C91.4565 40.0043 93.966 50.6612 91.4631 60.2893C91.4305 60.4066 91.4174 60.4653 91.4174 60.4653C91.1632 61.4169 91.4565 62.3881 92.1084 63.04C92.4277 63.3594 92.8319 63.6006 93.3012 63.7309C94.7221 64.109 96.1888 63.2681 96.5667 61.8472C96.5798 61.782 96.6123 61.6712 96.6123 61.6712C99.5977 50.2645 96.6181 37.626 87.6817 28.6954ZM76.7637 39.6134L76.7572 39.6199C76.7507 39.6134 76.7507 39.6068 76.7441 39.6068C71.8099 34.6726 64.8225 33.0495 58.5325 34.7247H58.526C57.105 35.1093 56.2641 36.5694 56.6422 37.9903V37.9968C56.7726 38.4596 57.0138 38.8702 57.3331 39.1896C57.9849 39.8349 58.9431 40.1347 59.8949 39.8805H59.9014C64.4249 38.6681 69.4506 39.8349 72.9964 43.3808C76.4968 46.8812 77.683 51.8219 76.5488 56.2999C76.5163 56.4107 76.4967 56.4693 76.4967 56.4693C76.2425 57.421 76.5358 58.3921 77.1876 59.0441C77.507 59.3635 77.9177 59.6046 78.3804 59.735H78.387C79.8079 60.113 81.2681 59.2722 81.6525 57.8513C81.6655 57.7926 81.6916 57.6818 81.6916 57.6818C83.3016 51.4243 81.6588 44.5084 76.7637 39.6134ZM24.7885 18.7752C24.9515 18.9447 25.0949 19.1272 25.2057 19.3228L33.7575 33.8844C34.2985 34.8947 34.1421 36.1788 33.2882 37.0327C33.2817 37.0392 25.9031 44.4113 25.9031 44.4113C24.9319 45.3759 24.8667 46.9077 25.7011 47.9506V47.9572C31.4175 55.818 38.0334 63.5878 45.4112 70.9729C52.7506 78.3058 60.4811 84.9023 68.3034 90.5929C69.4636 91.4402 70.9629 91.4924 71.9666 90.4886C79.3387 83.097 79.3452 83.0905 79.3452 83.0905C80.1991 82.2366 81.4831 82.0801 82.4934 82.6211L97.0551 91.1795C97.2506 91.2838 97.4331 91.4272 97.6026 91.5901L97.5961 91.5966H97.6026C98.6455 92.6395 98.6455 94.3277 97.6026 95.3706L85.6874 107.305C81.959 110.753 76.4773 111.255 72.2339 108.805L72.1883 108.772C60.2862 101.921 47.8694 92.4635 35.9152 80.5083L35.8891 80.4888C23.9412 68.5344 14.4569 56.0914 7.60044 44.1956L7.57437 44.15C5.13013 39.9066 5.62539 34.4249 9.07356 30.6899L21.0083 18.7748C22.0512 17.7319 23.7456 17.7323 24.7885 18.7752ZM101.371 87.8224C100.876 87.327 100.328 86.9033 99.7418 86.5644L85.3757 78.1298C82.299 76.2656 78.2383 76.6632 75.5788 79.3226L69.7841 85.1174C62.8879 79.9549 55.959 73.9778 49.1863 67.1994C42.4074 60.427 36.4238 53.4918 31.2683 46.5882C37.0565 40.8067 37.0565 40.8 37.0565 40.8C39.716 38.1405 40.1135 34.0798 38.2494 31.0032L29.8148 16.6371C29.4759 16.057 29.0522 15.5094 28.5568 15.0075L28.5503 15.0141C28.5568 15.0075 28.5503 15.0075 28.5503 15.0075C25.4346 11.8918 20.3896 11.8853 17.2609 14.988L5.5868 26.6098C0.196225 32.0329 -0.722699 40.2263 2.84271 46.5953L3.01218 46.8951C10.319 59.5338 20.2393 72.3754 32.0901 84.2245L32.1227 84.2571C43.9728 96.1007 56.8655 106.073 69.5038 113.38L69.7841 113.543C76.1458 117.102 84.3458 116.189 89.7629 110.792L101.391 99.1184C104.494 95.9831 104.487 90.9381 101.371 87.8224Z" fill="#3F5235"/>
</svg>
