<svg width="178" height="240" viewBox="0 0 178 240" fill="none" xmlns="http://www.w3.org/2000/svg">
<g clip-path="url(#clip0_50_422)">
<path d="M15.5402 115.355C24.4172 120.378 36.5469 122.923 43.8696 132.597C40.2485 120.963 30.9267 112.439 26.0562 103.451C29.4487 105.343 40.8838 118.105 44.9114 128.543C51.0906 144.547 47.9142 153.883 49.4813 153.883C50.4892 152.992 50.2097 135.212 50.125 131.719C49.9471 124.469 48.774 116.137 48.3208 114.127C46.5674 106.296 41.9891 92.7198 30.5032 87.3461C23.9767 84.2957 17.1834 81.9264 11.6438 77.0248C3.57991 69.8877 5.40529 73.6192 2.49146 79.9415C-3.06515 91.9969 3.09286 108.319 15.5359 115.355" fill="#94D938"/>
<path d="M62.1447 156.16C69.4335 140.093 76.9553 126.68 92.2359 113.763C102.002 105.506 114.661 102.31 126.329 97.7133C166.081 82.0476 179.74 42.4926 177.326 4.88074C177.067 0.82746 175.187 -2.08505 171.452 1.90555C156.069 18.3276 134.626 22.2764 114.666 29.2129C100.063 34.29 86.8741 41.6736 76.6037 52.9936C61.683 69.4365 58.1551 95.8497 62.1447 118.151C77.8447 92.6154 102.087 73.3895 126.677 59.8549C120.54 68.2498 112.425 74.0748 104.294 79.9123C66.1809 107.287 47.9397 152.888 58.1466 195.356C58.7734 197.967 59.6035 200.391 61.0562 203.073C59.0149 196.818 57.8459 190.044 57.8459 182.941C57.8459 174.019 58.9937 163.648 62.1447 156.164" fill="#94D938"/>
<path d="M117.681 226.344C91.4862 226.344 70.255 202.58 70.255 173.263C70.255 166.527 71.4197 160.109 73.4653 154.179C68.904 162.791 66.2273 172.933 66.2273 183.835C66.2273 214.853 87.5601 240 113.878 240C136.485 240 155.374 221.422 160.258 196.526C152.55 214.164 136.405 226.344 117.681 226.344Z" fill="#94D938"/>
<path d="M94.3832 127.394C82.1603 134.861 73.0334 148.396 69.8528 164.617C73.1563 157.058 78.0098 150.502 83.9476 145.479" fill="#94D938"/>
<path d="M175.754 105.937C153.897 98.3526 128.574 100.555 106.737 112.673C118.914 109.25 131.653 108.716 143.855 111.022" fill="#94D938"/>
<path d="M83.9475 145.479C91.8716 138.777 101.727 134.799 112.429 134.799C138.624 134.799 159.855 158.563 159.855 187.88C159.855 194.616 158.691 201.034 156.645 206.964C161.206 198.352 163.883 188.21 163.883 177.308C163.883 146.29 142.55 121.143 116.233 121.143C108.351 121.143 100.922 123.399 94.3831 127.398" fill="#94D938"/>
</g>
<defs>
<clipPath id="clip0_50_422">
<rect width="177.151" height="240" fill="white" transform="translate(0.44165)"/>
</clipPath>
</defs>
</svg>
