<?xml version="1.0" standalone="no"?>
<!DOCTYPE svg PUBLIC "-//W3C//DTD SVG 20010904//EN"
 "http://www.w3.org/TR/2001/REC-SVG-20010904/DTD/svg10.dtd">
<svg version="1.0" xmlns="http://www.w3.org/2000/svg"
 width="960.000000pt" height="960.000000pt" viewBox="0 0 960.000000 960.000000"
 preserveAspectRatio="xMidYMid meet">
<metadata>
Created by potrace 1.14, written by Peter Selinger 2001-2017
</metadata>
<g transform="translate(0.000000,960.000000) scale(0.100000,-0.100000)"
fill="#000000" stroke="none">
<path d="M8173 9583 c-18 -10 -76 -61 -130 -113 -140 -137 -255 -230 -388
-316 -33 -22 -63 -43 -67 -49 -4 -5 -8 -6 -8 -1 0 5 -8 2 -17 -6 -21 -18 -95
-59 -218 -121 -231 -116 -483 -213 -890 -342 -115 -37 -230 -74 -255 -82 -25
-8 -53 -15 -62 -16 -10 -1 -18 -5 -18 -9 0 -4 -9 -8 -20 -8 -12 0 -34 -7 -50
-15 -17 -9 -33 -15 -37 -15 -13 -1 -84 -21 -112 -32 -14 -6 -30 -12 -36 -14
-44 -10 -323 -119 -430 -167 -90 -41 -336 -166 -355 -181 -8 -7 -28 -18 -45
-26 -16 -8 -34 -19 -40 -23 -5 -4 -53 -35 -105 -69 -52 -34 -96 -65 -98 -70
-2 -4 -8 -8 -14 -8 -5 0 -15 -6 -22 -12 -7 -7 -25 -22 -41 -33 -15 -11 -38
-29 -51 -40 -13 -11 -37 -31 -53 -43 -206 -159 -484 -479 -567 -652 -4 -8 -18
-32 -31 -52 -13 -21 -20 -38 -16 -38 5 0 3 -4 -3 -8 -20 -14 -113 -227 -150
-342 -8 -25 -19 -53 -25 -63 -6 -11 -8 -21 -5 -24 3 -3 -1 -18 -10 -34 -8 -16
-14 -32 -14 -36 -1 -5 -5 -24 -10 -43 -5 -19 -11 -46 -14 -60 -2 -14 -7 -32
-10 -40 -5 -14 -9 -31 -21 -97 -3 -16 -8 -39 -11 -51 -2 -13 -7 -43 -10 -65
-3 -23 -7 -48 -9 -55 -3 -7 -7 -45 -10 -85 -4 -40 -8 -78 -11 -86 -7 -23 -17
-240 -17 -381 0 -124 8 -295 18 -395 11 -101 14 -126 19 -152 3 -15 8 -48 11
-73 6 -41 25 -81 25 -52 0 7 8 25 18 40 10 15 33 48 50 74 18 25 32 49 32 52
0 3 7 14 16 24 8 9 37 49 64 87 27 39 56 79 64 90 8 11 41 54 73 95 61 79 68
87 129 161 109 128 146 170 229 257 197 208 377 377 600 563 97 81 125 103
210 169 22 16 53 40 69 53 56 43 286 207 290 207 3 0 30 18 60 41 30 22 58 40
62 39 4 -1 10 2 13 7 8 11 206 140 241 156 8 4 35 21 60 37 25 16 56 35 70 42
14 7 36 19 50 28 14 9 57 34 95 55 l70 39 -29 -40 c-47 -63 -155 -182 -230
-253 -38 -36 -76 -73 -85 -82 -9 -8 -48 -42 -87 -75 -116 -96 -163 -132 -369
-282 -181 -132 -335 -250 -399 -307 -6 -5 -47 -41 -91 -80 -44 -38 -117 -106
-162 -150 -46 -45 -83 -79 -83 -77 0 3 -10 -8 -22 -24 -13 -16 -39 -45 -58
-65 -50 -51 -162 -178 -180 -203 -8 -12 -23 -30 -33 -41 -39 -41 -196 -254
-273 -370 -128 -193 -193 -306 -298 -520 -77 -158 -144 -310 -172 -391 -9 -27
-21 -60 -27 -74 -6 -14 -11 -28 -12 -32 -2 -5 -4 -10 -5 -13 -1 -3 -3 -8 -4
-12 -3 -11 -26 -85 -33 -103 -3 -8 -7 -19 -9 -25 -1 -5 -16 -59 -34 -120 -18
-60 -33 -119 -35 -130 -1 -11 -8 -38 -13 -60 -13 -46 -20 -85 -27 -135 -3 -19
-8 -43 -11 -52 -6 -21 -10 -41 -19 -108 -4 -30 -10 -66 -12 -80 -2 -14 -6 -43
-8 -65 -2 -22 -4 -40 -5 -40 -2 0 -6 -50 -16 -165 -12 -155 -6 -566 11 -705 3
-27 8 -70 11 -95 4 -39 24 -165 40 -255 30 -173 88 -370 128 -440 19 -33 18
-30 -5 55 -15 54 -19 68 -25 92 -11 47 -16 74 -19 93 -1 11 -4 27 -8 35 -5 16
-22 139 -34 250 -4 36 -7 146 -6 245 0 337 31 587 107 875 3 8 5 15 6 15 1 0
3 8 5 18 2 10 7 26 11 35 4 9 8 22 9 28 9 39 205 447 293 610 69 127 185 317
209 342 7 7 13 17 13 22 0 9 151 214 202 274 18 22 46 55 63 75 103 123 303
322 439 436 26 22 57 48 69 58 97 83 344 223 537 305 101 43 184 75 530 202
304 112 478 188 643 281 85 48 277 170 304 194 7 5 18 15 25 20 256 196 409
350 631 635 29 37 146 218 158 243 7 15 16 27 21 27 4 0 8 4 8 8 0 5 32 69 70
143 39 74 73 143 77 154 3 11 19 48 34 82 16 33 29 64 29 67 0 4 7 23 16 44
10 20 18 44 20 52 2 8 7 23 13 35 8 17 32 87 37 108 1 4 3 9 4 12 1 3 4 10 5
15 1 6 3 11 5 13 1 1 3 9 5 17 2 8 19 72 38 141 20 70 38 140 41 155 9 54 17
89 21 104 3 8 7 32 11 54 3 21 8 48 10 60 3 11 7 37 9 56 3 19 7 49 10 65 3
17 7 49 10 73 3 23 7 59 10 80 18 152 25 290 25 532 0 196 -5 352 -14 390 -2
8 -7 30 -11 48 -10 43 -56 92 -87 92 -13 0 -38 -8 -55 -17z"/>
<path d="M1447 6657 c-13 -12 -32 -47 -42 -77 -10 -30 -38 -107 -63 -170 -70
-178 -76 -210 -77 -390 0 -183 14 -264 71 -415 4 -11 8 -22 8 -25 4 -18 90
-177 117 -217 154 -230 345 -370 712 -527 191 -81 289 -127 299 -141 4 -5 8
-6 8 -1 0 5 6 4 13 -1 6 -6 39 -25 72 -43 53 -29 176 -106 214 -135 7 -5 58
-53 112 -106 55 -54 99 -95 99 -93 0 1 -5 16 -11 31 -6 15 -15 37 -19 48 -20
56 -164 332 -179 345 -3 3 -28 39 -56 80 -27 41 -53 77 -57 78 -5 2 -8 8 -8
13 0 5 -7 17 -15 26 -22 26 -143 191 -200 273 -27 39 -54 77 -60 83 -5 7 -16
24 -24 37 -8 14 -28 46 -44 73 -17 26 -28 50 -25 53 7 6 210 -191 265 -257 21
-25 54 -65 73 -89 19 -24 40 -48 45 -54 18 -19 111 -149 162 -226 95 -144 159
-267 203 -385 17 -50 36 -99 41 -110 4 -11 13 -40 20 -65 6 -25 14 -52 17 -60
12 -34 50 -214 57 -270 3 -25 8 -61 11 -80 2 -19 7 -109 9 -200 3 -91 7 -175
10 -187 8 -32 25 -29 26 5 3 63 5 78 11 87 7 12 2 859 -6 955 -2 36 -7 92 -11
125 -3 33 -8 79 -10 101 -2 23 -6 57 -9 75 -3 19 -8 57 -11 84 -3 28 -8 61
-11 75 -2 14 -7 39 -10 55 -3 17 -9 44 -14 60 -5 17 -21 69 -36 118 -45 153
-152 405 -176 415 -5 2 -8 8 -8 12 0 31 -125 194 -210 276 -113 108 -187 154
-390 244 -329 147 -489 236 -615 343 -33 28 -62 54 -65 57 -21 22 -123 92
-153 105 -34 14 -37 14 -60 -8z"/>
<path d="M7018 5535 c-2 -2 -41 -6 -88 -9 -109 -8 -130 -11 -325 -42 -30 -4
-60 -10 -105 -20 -14 -3 -35 -7 -47 -10 -12 -2 -34 -9 -48 -14 -14 -5 -25 -8
-25 -5 0 2 -23 -3 -52 -11 -28 -9 -59 -17 -67 -19 -21 -5 -202 -63 -221 -72
-8 -3 -17 -7 -20 -8 -14 -3 -129 -48 -155 -60 -16 -7 -55 -24 -85 -38 -95 -42
-155 -71 -160 -77 -3 -3 -24 -14 -48 -24 -23 -11 -41 -21 -39 -23 2 -2 33 4
68 13 35 9 71 18 79 19 8 2 17 4 20 5 3 1 8 2 11 2 4 -1 21 3 38 8 17 5 55 12
84 15 28 4 55 9 58 11 4 2 33 7 65 10 33 3 73 8 89 10 234 29 660 19 855 -21
52 -11 129 -13 174 -4 26 5 68 11 94 14 26 4 54 8 62 10 16 5 52 11 115 20 23
3 52 8 65 10 14 3 39 7 55 9 17 3 75 12 130 21 144 23 145 23 200 31 28 4 55
9 60 9 6 1 12 3 15 4 3 2 14 4 25 5 11 2 43 6 70 10 28 4 66 10 85 12 19 3 42
7 50 9 8 2 35 7 60 10 25 3 54 8 65 10 11 2 25 4 30 5 12 1 -52 30 -75 33 -8
1 -21 6 -27 10 -7 5 -13 6 -13 3 0 -3 -25 4 -55 14 -30 10 -55 17 -55 15 0 -1
-21 3 -47 11 -27 8 -64 17 -83 20 -19 3 -43 7 -52 10 -10 3 -29 7 -43 10 -115
19 -147 24 -200 30 -33 3 -82 8 -110 11 -60 5 -473 12 -477 8z"/>
<path d="M5817 4754 c-1 -1 -36 -4 -77 -8 -41 -3 -86 -8 -100 -11 -14 -3 -41
-8 -60 -11 -156 -25 -375 -108 -548 -210 -182 -108 -398 -299 -530 -469 -34
-44 -65 -84 -70 -90 -53 -69 -240 -399 -244 -432 -1 -10 -8 -28 -42 -112 -14
-36 -26 -68 -26 -72 0 -4 -5 -20 -12 -36 -6 -15 -12 -32 -14 -38 -2 -11 -40
-114 -57 -155 -6 -14 -11 -29 -13 -35 -1 -5 -9 -30 -17 -55 -18 -54 -39 -129
-42 -150 -1 -8 -4 -24 -8 -35 -8 -26 -30 -141 -52 -280 -8 -50 -15 -536 -8
-548 3 -5 7 -32 9 -61 3 -28 7 -62 9 -76 3 -14 8 -45 11 -69 3 -25 7 -48 9
-51 2 -4 7 -20 9 -36 3 -16 8 -39 11 -52 3 -12 7 -30 9 -40 22 -97 61 -220
109 -337 41 -101 140 -302 175 -352 11 -16 39 -57 62 -93 173 -262 453 -516
715 -648 70 -35 155 -74 162 -73 2 0 22 -8 46 -18 76 -33 251 -76 357 -89 75
-9 353 -8 418 1 249 35 503 132 722 276 56 37 83 57 105 78 8 7 16 13 19 13
14 0 230 208 285 275 51 62 131 167 131 174 0 3 11 19 25 35 14 16 25 35 25
42 0 7 4 14 8 16 31 13 219 408 237 499 2 8 17 50 33 92 16 42 27 77 23 77 -3
0 -1 4 4 8 6 4 21 41 34 82 12 41 27 86 32 100 5 14 11 34 14 45 2 11 13 56
23 100 20 80 27 116 37 190 4 22 8 51 10 65 31 185 20 623 -20 780 0 3 -5 28
-9 55 -13 83 -77 312 -106 380 -5 11 -12 31 -16 45 -4 13 -23 58 -42 100 -20
41 -37 80 -38 87 -1 7 -11 25 -22 40 -11 15 -19 30 -19 33 2 10 -107 190 -115
190 -4 0 -8 5 -8 11 0 11 -25 47 -110 154 -81 103 -250 269 -334 330 -16 11
-34 26 -41 33 -8 6 -18 12 -23 12 -6 0 -12 4 -14 9 -12 34 -359 210 -463 236
-5 1 -17 5 -25 8 -33 13 -162 43 -230 52 -92 13 -314 26 -323 19z m68 -553 c0
-1 23 -4 50 -6 83 -6 248 -43 355 -79 93 -32 277 -118 361 -169 198 -121 460
-369 568 -537 9 -14 24 -34 33 -44 10 -11 18 -23 18 -27 0 -4 16 -31 35 -61
116 -176 255 -538 289 -758 3 -19 8 -46 10 -60 7 -37 17 -118 22 -180 11 -117
5 -403 -10 -487 -5 -25 -18 -114 -21 -141 -4 -29 -60 -148 -88 -187 -12 -16
-29 -42 -36 -57 -8 -15 -22 -37 -33 -47 -10 -11 -18 -23 -18 -25 0 -6 -10 -20
-94 -120 -91 -108 -298 -306 -320 -306 -4 0 -12 -5 -19 -10 -7 -6 -23 -20 -37
-31 -27 -23 -231 -145 -240 -143 -3 0 -30 -12 -60 -27 -54 -27 -260 -102 -260
-95 0 2 -21 -2 -46 -10 -25 -7 -49 -13 -52 -13 -4 1 -10 0 -14 -1 -5 -1 -11
-3 -15 -4 -12 -3 -114 -18 -148 -22 -44 -5 -305 -5 -340 0 -16 3 -50 7 -75 10
-25 3 -66 10 -91 16 -26 6 -53 13 -60 14 -66 13 -173 48 -269 89 -263 110
-512 294 -700 517 -30 36 -57 67 -60 70 -3 3 -17 21 -30 40 -13 19 -30 41 -37
48 -7 7 -13 17 -13 22 0 5 -6 15 -13 22 -27 26 -109 176 -173 313 -39 83 -103
260 -120 330 -4 17 -8 35 -10 40 -6 20 -32 142 -38 176 -3 19 -8 44 -10 57
-20 98 -28 492 -12 612 22 161 52 279 77 300 3 3 14 21 24 40 10 19 21 37 24
40 3 3 23 30 43 60 21 30 45 66 55 80 69 101 277 313 373 380 19 13 44 32 54
42 11 10 23 18 27 18 4 0 14 6 21 13 40 37 229 138 352 187 84 33 232 76 292
85 21 3 75 11 119 18 62 9 360 16 360 8z"/>
</g>
</svg>
